<svg width="200" height="65" viewBox="0 0 200 65" fill="none" xmlns="http://www.w3.org/2000/svg">
<path d="M12.525 41.5892C12.7208 41.5892 12.9396 41.5892 13.1333 41.5372C13.425 41.4312 13.7396 41.3793 14.0562 41.3522C14.275 41.3522 14.4687 41.2732 14.6396 41.1671C15.1021 40.8511 15.5625 40.5374 16 40.1673C16.4625 39.7994 16.8271 39.3254 17.0937 38.7725C17.3604 38.2466 17.5312 37.6666 17.5791 37.0617C17.6271 36.6419 17.6041 36.1928 17.6041 35.773C17.6271 35.6398 17.6271 35.4819 17.6041 35.351C17.5062 34.8251 17.3125 34.3511 17.1416 33.8772C17.0208 33.5612 16.85 33.2452 16.6312 32.9812C16.2666 32.5343 15.9521 32.0355 15.6354 31.5615C15.4416 31.2975 15.3687 31.0086 15.5146 30.6926L15.7562 30.1916L15.975 29.6138C16.0979 29.2188 16.1937 28.772 16.2666 28.3499C16.3166 28.061 16.3166 27.797 16.2916 27.5081C16.2187 27.1921 16.1458 26.8761 16.0979 26.5602C16.0479 25.9553 15.7562 25.4813 15.3937 25.0345C15.175 24.7433 14.8833 24.5063 14.6396 24.2445C14.4687 24.0595 14.25 23.8496 13.9833 23.7706C13.6687 23.6645 13.3521 23.5584 13.0604 23.3756C12.8896 23.2966 12.7208 23.2176 12.525 23.2176C12.0875 23.2176 11.675 23.2176 11.2625 23.1905C10.5583 23.1657 9.82915 23.1905 9.12498 23.1905H9.00206C8.68748 23.2176 8.39581 23.2447 8.07915 23.1905C7.78748 23.1386 7.49581 23.1386 7.18123 23.1657C7.0104 23.1905 6.81665 23.2447 6.6229 23.2176C6.33123 23.1657 6.03956 23.1657 5.7229 23.1657C5.2604 23.1657 4.77498 23.1657 4.31456 23.1115C3.9729 23.0867 3.63331 23.1115 3.26873 23.1386C3.1479 23.1386 3.02706 23.1657 2.90415 23.1905C2.75831 23.2447 2.6854 23.3485 2.6854 23.5065C2.6854 23.6374 2.7104 23.7435 2.7354 23.8496L2.97706 24.6395C3.19581 25.4023 3.31665 26.1923 3.29373 27.007C3.26873 27.56 3.29373 28.14 3.26873 28.7178C3.24373 29.3227 3.24373 29.9546 3.29373 30.5865C3.31665 31.1124 3.29373 31.6135 3.29373 32.1393V32.2454C3.24373 32.4824 3.24373 32.7194 3.24373 32.9563C3.24373 33.1143 3.26873 33.2723 3.26873 33.4303C3.24373 33.9562 3.31665 34.5091 3.29373 35.035V35.0869C3.29373 35.4029 3.31665 35.7459 3.29373 36.0619C3.24373 36.4049 3.24373 36.7457 3.29373 37.0888C3.31665 37.2987 3.34165 37.5086 3.31665 37.7456L3.26873 38.2466C3.22081 38.6935 3.17081 39.1155 3.07498 39.5624C2.97706 39.9574 2.83123 40.3523 2.7354 40.7473C2.6854 40.9053 2.63748 41.0362 2.66248 41.1942C2.66248 41.3793 2.75831 41.5102 2.92915 41.5621C3.07498 41.5892 3.22081 41.6162 3.38956 41.6162C3.80415 41.6411 4.21665 41.5892 4.65415 41.5892H4.67915C4.94581 41.5372 5.21248 41.5372 5.47915 41.5372C5.91665 41.5372 6.37915 41.6162 6.81665 41.5892H6.86456C7.08331 41.6411 7.30206 41.6162 7.52081 41.6162C7.76456 41.5891 8.00623 41.5621 8.24998 41.5621H9.27081C9.36665 41.5621 9.46456 41.5372 9.5854 41.5372C9.80415 41.5372 10.0229 41.5102 10.2416 41.5621C10.5583 41.6162 10.8979 41.6411 11.2146 41.6162C11.5062 41.5891 11.7729 41.5621 12.0646 41.5621C12.2104 41.5621 12.3562 41.6162 12.525 41.5892ZM12.6229 35.9829C12.6479 36.5359 12.55 37.0888 12.4291 37.6418C12.3312 38.0615 12.1375 38.4317 11.8708 38.7725C11.675 38.9824 11.4333 39.0885 11.1416 39.0885L9.92706 39.1404C9.6104 39.1674 9.29373 39.1404 8.97915 39.1674C8.83331 39.1674 8.68748 39.1404 8.56456 39.1155C8.37081 39.0885 8.22498 38.9824 8.10415 38.7996C7.95831 38.5355 7.8604 38.2466 7.8604 37.9306C7.83748 37.0617 7.8604 36.168 7.8604 35.299C7.8854 34.798 7.9104 34.2992 7.98331 33.7982C8.03123 33.4032 8.22498 33.1933 8.58956 33.1392C8.95415 33.0602 9.34373 33.0353 9.70831 33.0872L10.8979 33.1392C11.0437 33.1392 11.1896 33.1392 11.3354 33.1662C11.675 33.2452 11.9187 33.4303 12.0875 33.7463C12.3312 34.1931 12.5021 34.6942 12.5979 35.2449C12.6229 35.4819 12.5979 35.7459 12.6229 35.9829ZM7.8854 29.0879C7.9104 28.6659 7.8604 28.219 7.8604 27.7451C7.83748 27.3501 7.83748 26.9551 7.83748 26.5331C7.83748 26.3503 7.8604 26.1381 7.95831 25.9553C8.03123 25.7702 8.15206 25.6642 8.3479 25.6393C8.63748 25.5852 8.90623 25.6122 9.1729 25.6122C9.43956 25.6122 9.70831 25.5852 9.94998 25.5852C10.1937 25.5852 10.3625 25.6641 10.5333 25.8221C10.9458 26.2171 11.1416 26.7452 11.2375 27.323C11.2875 27.56 11.3354 27.797 11.3354 28.061C11.3354 28.9299 11.1896 29.7718 10.5812 30.4286C10.3875 30.6407 10.1458 30.7445 9.85415 30.7197C9.6104 30.6926 9.36665 30.6926 9.12498 30.6926C8.92915 30.6926 8.7354 30.6926 8.51665 30.6655C8.10415 30.6136 7.95831 30.4556 7.9104 30.0088C7.9104 29.8756 7.8854 29.7176 7.8854 29.5596V29.0879Z" fill="white"/>
<path d="M19.1567 41.6164C19.2276 41.6412 19.2776 41.6412 19.3255 41.6412C19.6901 41.6683 20.0547 41.6412 20.4192 41.5893C20.663 41.5893 20.9047 41.5374 21.1234 41.5622C21.3422 41.5893 21.5609 41.5893 21.7797 41.5893C21.8276 41.5893 21.8776 41.6164 21.9005 41.6164C22.1192 41.6164 22.363 41.6412 22.5817 41.5893C22.7755 41.5622 22.8234 41.4832 22.8234 41.2733C22.8234 40.9573 22.7755 40.6685 22.8005 40.3525C22.8005 40.1674 22.8234 39.9575 22.8234 39.7476C22.8234 39.5896 22.8484 39.4565 22.8734 39.2985C22.9692 38.7207 23.1651 38.1948 23.3338 37.6419C23.3838 37.4839 23.5047 37.3778 23.6505 37.3507C23.7963 37.2988 23.9422 37.2988 24.088 37.2988C24.3547 37.2717 24.5984 37.2717 24.8401 37.2717C25.4484 37.2717 26.0317 37.2988 26.6151 37.3259C26.9297 37.3259 27.2713 37.2988 27.5859 37.3259C28.0234 37.3507 28.0963 37.4297 28.2172 37.8247C28.2672 37.9579 28.2901 38.1158 28.3401 38.2738C28.4359 38.6936 28.5588 39.1405 28.5817 39.5625C28.6067 39.9056 28.6317 40.2216 28.6317 40.5624C28.6067 40.7474 28.6067 40.9303 28.6317 41.1153C28.6317 41.4042 28.7276 41.5374 28.9713 41.5893C29.3609 41.6954 29.7734 41.6683 30.1609 41.6412C30.4526 41.6164 30.7692 41.5622 31.0609 41.5893C31.4005 41.6412 31.7651 41.6164 32.1047 41.6412C32.5192 41.6683 32.9067 41.6412 33.3213 41.6412C33.4901 41.6412 33.6359 41.6412 33.8067 41.6164L34.1463 41.5374C34.2672 41.4832 34.2922 41.4042 34.2192 41.3004C34.1713 41.1943 34.1213 41.1424 34.0734 41.0634C33.8547 40.7474 33.6109 40.4315 33.4172 40.1155C33.1026 39.5625 32.8338 38.9825 32.6151 38.3777C32.4692 37.9827 32.3005 37.5877 32.2505 37.1679C32.2026 36.8768 32.0817 36.5879 31.9359 36.3261C31.813 36.1139 31.7172 35.877 31.6922 35.6152C31.6442 35.3511 31.5713 35.0622 31.4734 34.8252C31.2797 34.2204 31.1088 33.6403 30.9401 33.0355C30.8422 32.6924 30.7692 32.3516 30.5984 32.0086C30.5255 31.8235 30.4526 31.6407 30.4047 31.4556L30.2338 30.9297C30.088 30.4829 29.9192 30.0608 29.7984 29.5869L29.5797 28.9301L28.9963 27.2961C28.8984 27.0613 28.8505 26.7702 28.7276 26.5332C28.5588 26.2172 28.388 25.9283 28.1692 25.6395C27.9026 25.2964 27.563 25.0865 27.1484 25.0075C26.638 24.9014 26.1297 24.9285 25.6192 25.0075C25.3276 25.0346 25.0588 25.0865 24.7922 25.0594C24.7192 25.0594 24.6713 25.0594 24.6213 25.0865C24.4526 25.1136 24.4047 25.1655 24.3797 25.3483C24.3797 25.4815 24.4047 25.6124 24.4047 25.7433V26.8763C24.4047 27.0862 24.3797 27.2961 24.3317 27.5082C24.2338 27.8761 24.1609 28.244 24.0401 28.587C23.9422 28.8511 23.8942 29.1129 23.7484 29.3499C23.6505 29.5598 23.5526 29.7967 23.4797 30.0337C23.4067 30.3249 23.3109 30.6138 23.213 30.9027C23.0922 31.2705 22.9463 31.6407 22.8963 32.0356C22.8734 32.1936 22.8234 32.3764 22.7505 32.5344C22.4359 33.3514 22.2172 34.2452 21.9005 35.087C21.8047 35.324 21.7547 35.5881 21.6817 35.8521C21.6088 36.1681 21.463 36.4841 21.3422 36.773C21.1713 37.2469 21.0505 37.6938 20.9047 38.1678C20.7838 38.5108 20.6859 38.8516 20.5172 39.1676C20.2734 39.6686 19.9567 40.1426 19.7151 40.6685C19.5922 40.9573 19.3505 41.1943 19.1567 41.4584V41.6164ZM26.2255 35.1412C26.0567 35.166 25.8609 35.087 25.6672 35.1141C25.4234 35.1412 25.2047 35.1141 24.963 35.1412C24.8901 35.1412 24.8172 35.1141 24.7192 35.1141C24.5255 35.0351 24.4276 34.9042 24.4276 34.6672C24.4047 34.3783 24.4776 34.1143 24.5484 33.8502C24.6942 33.3763 24.7922 32.8775 24.938 32.4035C25.0109 32.1936 25.0838 31.9815 25.1817 31.7716C25.2547 31.5617 25.3026 31.3495 25.3505 31.1125C25.4005 30.9297 25.4234 30.7198 25.5463 30.5619C25.6672 30.3768 25.7401 30.3768 25.8609 30.5619C25.9838 30.7198 26.0567 30.9297 26.1047 31.1125C26.2755 31.6407 26.5172 32.1665 26.663 32.6924C26.7838 33.1145 26.9297 33.5613 27.0276 33.9834L27.1005 34.5612C27.1484 34.8523 26.9797 35.0351 26.688 35.087C26.5422 35.1141 26.3963 35.1412 26.2255 35.1412Z" fill="white"/>
<path d="M49.5481 41.5373C49.9127 41.5102 50.2523 41.5373 50.6169 41.4831C50.6898 41.4831 50.7377 41.4831 50.8106 41.4583C50.9314 41.4312 50.9314 41.4041 50.8585 41.3003L50.6898 41.0881C50.446 40.7993 50.2273 40.5104 50.0335 40.2215C49.8398 39.9845 49.6939 39.6934 49.5481 39.4316C49.3523 39.0614 49.1106 38.7206 48.9398 38.3256L48.1877 36.7729C48.1627 36.6668 48.1148 36.5878 48.0648 36.5088C47.896 36.168 47.8231 35.773 47.7002 35.4029C47.6773 35.2991 47.6523 35.1659 47.6523 35.0621C47.7002 34.5611 47.846 34.1413 48.1627 33.7982C48.4294 33.5342 48.6481 33.2182 48.7939 32.8774L48.8669 32.7194C49.0127 32.4305 49.1835 32.1935 49.2794 31.8776C49.4752 31.3765 49.5481 30.8236 49.596 30.2706C49.6439 29.6138 49.596 28.9819 49.4502 28.3229C49.3044 27.7451 48.9877 27.244 48.6231 26.7972C48.4544 26.6121 48.2606 26.4293 48.1148 26.2171C47.896 25.9012 47.6044 25.6642 47.2627 25.4814C46.8252 25.2715 46.3648 25.0864 45.8544 24.9803C45.5148 24.9013 45.1731 24.8494 44.8335 24.8765C44.5669 24.9013 44.2752 24.9284 44.0085 24.9284C43.6919 24.9013 43.4002 24.9013 43.1085 24.9013C42.8419 24.9013 42.5981 24.9013 42.3314 24.9284C42.0877 24.9284 41.821 24.9803 41.5773 24.9803C41.3356 24.9803 41.1169 24.9284 40.8981 24.9284C40.3877 24.9013 39.9023 24.8765 39.3919 24.8765H39.271C39.1252 24.8494 38.9544 24.8494 38.8085 24.8765C38.5169 24.9013 38.2502 24.9555 37.9585 24.9555C37.7648 24.9284 37.5689 24.9284 37.3752 24.9555C37.0585 25.0345 36.9856 25.1135 37.0835 25.4272C37.2044 25.8763 37.3023 26.2961 37.4002 26.7453C37.521 27.2711 37.5689 27.8241 37.5689 28.377C37.546 28.614 37.5689 28.8758 37.6419 29.1128C37.6669 29.2189 37.6669 29.3227 37.6669 29.4288V31.1125C37.6669 31.3494 37.6669 31.6135 37.6189 31.8234C37.546 32.1394 37.546 32.4553 37.5939 32.7713C37.6419 33.0602 37.6419 33.3513 37.6189 33.6402C37.5939 33.9833 37.5689 34.3241 37.6419 34.6671C37.6669 34.9041 37.6919 35.1411 37.6669 35.3781C37.6419 35.6151 37.6419 35.852 37.6419 36.089V37.1137C37.6189 37.4048 37.5689 37.6937 37.5939 38.0097C37.5939 38.2986 37.6189 38.6145 37.5689 38.9034C37.521 39.5105 37.4002 40.1154 37.1814 40.6932C37.1085 40.8783 37.0356 41.0633 36.9856 41.2732C36.9627 41.4312 37.0106 41.5102 37.1564 41.5621C37.2544 41.5892 37.3752 41.5892 37.496 41.5621C37.7148 41.5373 37.9585 41.5102 38.2002 41.5373C38.346 41.5373 38.4689 41.5621 38.6148 41.5621C39.3669 41.5621 40.096 41.5373 40.8252 41.5102H40.946C41.1898 41.4831 41.4564 41.4831 41.7002 41.5102C41.846 41.5373 41.9919 41.5102 42.1377 41.4831C42.3064 41.4312 42.3794 41.3251 42.3314 41.1423C42.2835 40.8783 42.1856 40.6684 42.0877 40.4585C41.9419 40.1673 41.8689 39.8513 41.821 39.5105C41.796 39.1404 41.7481 38.7725 41.7002 38.3776C41.6752 38.0887 41.6752 37.7998 41.7002 37.4838C41.7481 37.2717 41.7481 37.0347 41.7002 36.8C41.6273 36.484 41.6502 36.168 41.6752 35.852C41.6752 35.6399 41.7002 35.43 41.7481 35.2201C41.7731 35.114 41.846 35.035 41.9669 35.0079C42.0148 34.9831 42.0648 34.9831 42.1127 34.9831H42.8169C43.0356 34.9831 43.2064 35.0621 43.3273 35.272C43.521 35.6151 43.7398 35.9829 43.8856 36.3779C44.0814 36.9309 44.3002 37.4838 44.5419 38.0368C44.6877 38.3256 44.8335 38.6145 44.9314 38.9305C45.1002 39.5354 45.1731 40.1425 45.2231 40.7473C45.246 41.1671 45.3439 41.3003 45.7085 41.3793C45.7335 41.4041 45.7564 41.4041 45.7814 41.4041C45.9752 41.4583 46.171 41.4583 46.3648 41.4831C46.5835 41.5102 46.7773 41.5102 46.971 41.4831C47.1669 41.4583 47.3856 41.4583 47.5794 41.4831C47.871 41.5373 48.1627 41.5621 48.4773 41.5621C48.746 41.5373 49.0127 41.5102 49.2794 41.5373H49.5481ZM41.6502 30.5076C41.6502 30.0878 41.6752 29.6928 41.7231 29.2708C41.7731 28.9819 41.7231 28.693 41.7002 28.377C41.6752 28.0859 41.7002 27.7699 41.821 27.481C41.9189 27.2711 42.0648 27.1651 42.2835 27.1651C42.5981 27.1651 42.9398 27.1402 43.2544 27.1651C43.4731 27.1921 43.6669 27.1921 43.8627 27.1921C44.1544 27.1921 44.396 27.323 44.5669 27.56C44.9064 28.0611 45.1002 28.6388 45.1502 29.2437C45.1731 29.4017 45.1252 29.5868 45.1252 29.7718C45.1002 29.8756 45.1002 29.9546 45.1002 30.0607C45.1731 30.5347 45.1252 30.9815 44.9314 31.4284L44.6648 32.0875C44.421 32.5614 44.0814 32.8255 43.571 32.7984C43.1814 32.7984 42.7939 32.7713 42.4044 32.7713C42.0398 32.7713 41.846 32.5885 41.7731 32.1935C41.7231 31.9814 41.7002 31.7444 41.6752 31.5345C41.6752 31.1914 41.6502 30.8506 41.6502 30.5076Z" fill="white"/>
<path d="M62.9327 41.6163C63.1514 41.6163 63.3681 41.6163 63.5868 41.5621C64.0493 41.4583 64.4868 41.3003 64.8514 40.9843L65.4827 40.5104L65.7993 40.2463C66.1389 39.9055 66.4056 39.4835 66.6493 39.0614C66.8181 38.7996 66.916 38.5107 66.9639 38.1948L67.0368 37.7456C67.1597 37.2717 67.2327 36.8248 67.1827 36.3508C67.1347 36.0349 67.1097 35.746 66.9889 35.4819C66.8181 35.0621 66.6493 34.6671 66.4306 34.2722L66.1389 33.7463C66.041 33.4552 65.8722 33.2453 65.6764 33.0354C65.5306 32.8774 65.4347 32.7194 65.3118 32.5343C65.166 32.3244 65.1431 32.0875 65.216 31.8234C65.3368 31.4555 65.4827 31.0606 65.6764 30.7198C65.7993 30.4828 65.9202 30.2458 65.9452 29.9817C65.9452 29.9027 65.9452 29.7967 65.9681 29.7177C65.9931 29.3769 65.9931 29.0338 65.8952 28.693L65.7493 28.034C65.6535 27.6661 65.5556 27.3231 65.2889 27.0071C65.0931 26.7972 64.9243 26.5602 64.7306 26.3232L64.5847 26.1382C64.2202 25.7703 63.8056 25.5062 63.3681 25.3234C62.8597 25.1135 62.3243 25.0074 61.7889 24.9803C61.6681 24.9803 61.5702 25.0074 61.4743 25.0074C61.1097 25.0074 60.7702 25.0345 60.4285 24.9803C60.0639 24.9555 59.7243 25.0074 59.3597 25.0074C58.8014 25.0074 58.2181 25.0074 57.6347 24.9803C56.9056 24.9555 56.2014 24.9803 55.4722 24.9284C55.1327 24.9014 54.7931 24.9014 54.4764 24.9555C54.2577 24.9803 54.0639 25.0074 53.8702 25.0864C53.6993 25.1135 53.6514 25.2173 53.6993 25.4024C53.7472 25.6123 53.8202 25.8222 53.8931 26.0592C54.1118 26.7182 54.1847 27.4291 54.2347 28.1401C54.2577 28.4809 54.2577 28.8239 54.2577 29.1647C54.2827 29.6387 54.2827 30.1126 54.2827 30.5866C54.2827 30.6656 54.2827 30.7446 54.2577 30.8236C54.2097 31.1395 54.2097 31.4826 54.2347 31.8234C54.2577 32.1394 54.2577 32.4824 54.2097 32.8255C54.2097 32.9564 54.1847 33.0602 54.1847 33.1663C54.2097 33.6673 54.1847 34.1661 54.2097 34.6671C54.2347 35.0621 54.2097 35.4571 54.2347 35.852C54.2577 36.1138 54.2347 36.3779 54.2577 36.642C54.2827 36.8519 54.3077 37.0618 54.2577 37.2717C54.1847 37.6147 54.1847 37.9578 54.1847 38.2986C54.2097 38.7454 54.2097 39.2194 54.0389 39.6415C53.8702 40.1154 53.8202 40.6413 53.6993 41.1423C53.6514 41.3522 53.7243 41.4583 53.9181 41.4831C54.2097 41.5373 54.5243 41.5892 54.841 41.6163C55.1577 41.6411 55.4722 41.5892 55.7889 41.5892H58.316C58.4618 41.5892 58.6077 41.5373 58.7535 41.5621C59.1181 41.6163 59.4827 41.5892 59.8452 41.5892C60.1139 41.5621 60.3806 41.5621 60.6472 41.5892C60.7452 41.6163 60.8431 41.6163 60.916 41.6163H62.9327ZM60.7702 39.4045C60.3556 39.3774 59.9431 39.4564 59.5306 39.4564C59.3368 39.4564 59.166 39.4564 58.9722 39.4316C58.7535 39.4316 58.5827 39.2984 58.5097 39.0614C58.4368 38.7996 58.4118 38.5107 58.3389 38.2467L58.291 37.7998C58.266 37.6147 58.316 37.4296 58.316 37.2468C58.3639 36.8767 58.3639 36.484 58.316 36.1139C58.266 35.7979 58.2431 35.509 58.291 35.193C58.291 35.035 58.291 34.877 58.316 34.6942C58.3889 34.2993 58.6077 34.0871 58.9722 34.0081C59.3597 33.9291 59.7243 33.9291 60.0889 33.9562C60.4785 33.9833 60.866 33.9833 61.2306 33.9833C61.5952 33.9833 61.8618 34.1413 62.0577 34.4302C62.3972 34.9041 62.591 35.4819 62.6889 36.089C62.7618 36.563 62.7139 37.0618 62.591 37.5357C62.5431 37.7998 62.5181 38.0616 62.3972 38.3257C62.2514 38.7206 61.9847 39.0095 61.6681 39.2465C61.5222 39.3774 61.3535 39.4045 61.1827 39.4045H60.7702ZM61.4743 29.6139C61.4743 29.8757 61.4743 30.1397 61.4264 30.3767C61.3764 30.5866 61.3035 30.7717 61.2077 30.9296C61.0618 31.1395 60.9389 31.3494 60.7702 31.5345C60.5514 31.7715 60.3077 31.8234 60.016 31.7986C59.7722 31.7444 59.5306 31.7444 59.2868 31.7196C59.141 31.6925 58.9952 31.7444 58.8493 31.7444H58.7285C58.5097 31.7196 58.3889 31.6135 58.3389 31.3765C58.2431 30.9567 58.2431 30.5618 58.291 30.1397C58.316 29.7177 58.3389 29.3227 58.291 28.93C58.266 28.5079 58.291 28.0859 58.3639 27.6661C58.4368 27.3231 58.5577 27.1921 58.9222 27.1921C59.2868 27.1651 59.6514 27.1921 59.991 27.2192C60.1368 27.2441 60.2827 27.2192 60.4285 27.2441C60.7452 27.3231 60.9389 27.5329 61.1097 27.8241C61.2806 28.113 61.3535 28.456 61.4264 28.7968C61.4743 29.088 61.4972 29.3498 61.4743 29.6139Z" fill="white"/>
<path d="M71.0189 24.9804C70.7523 24.9556 70.4856 24.9804 70.2189 25.0075L69.8294 25.0594C69.5627 25.1384 69.5127 25.2174 69.5377 25.4814V25.5333C69.6106 25.8493 69.6356 26.1924 69.7314 26.5083L69.9273 27.1922C70.0231 27.533 70.0231 27.9031 70.0231 28.271C70.0231 28.5599 70.0002 28.8759 70.0731 29.1648C70.0731 29.2438 70.096 29.3228 70.096 29.4017V30.7988C70.0731 31.0606 70.096 31.3247 70.0731 31.5865C70.0481 31.7986 70.0002 31.9814 70.0002 32.1936C69.9752 32.6405 70.0481 33.0873 70.0231 33.5613C70.0231 33.5884 70.0481 33.6403 70.0481 33.6674C70.121 34.0082 70.121 34.3241 70.0731 34.6672C70.0481 35.087 70.0481 35.5361 70.0002 35.983C69.9752 36.378 70.0002 36.8 70.0002 37.1927C70.0002 37.2717 70.0002 37.3259 70.0231 37.4049C70.0731 37.7728 70.0731 38.1406 70.0002 38.5108C69.9752 38.8245 69.9273 39.1405 69.9273 39.4316C69.9023 39.6686 69.8773 39.8785 69.8294 40.1155C69.7564 40.2734 69.7085 40.4585 69.6585 40.6165C69.6106 40.7722 69.5627 40.9302 69.5377 41.0882C69.5127 41.3523 69.5856 41.5103 69.8294 41.5892C70.0231 41.6412 70.2189 41.6682 70.4356 41.6412C70.7273 41.6163 71.0439 41.6163 71.3606 41.6412C71.846 41.6953 72.3564 41.6412 72.8669 41.6163C73.1335 41.5892 73.4002 41.5622 73.6919 41.5622C74.1773 41.5622 74.6648 41.5892 75.1502 41.6163C75.321 41.6163 75.4898 41.6682 75.6606 41.6412C76.121 41.6412 76.5835 41.6412 77.046 41.6163C77.5314 41.6163 78.0169 41.6163 78.4794 41.5622C78.9169 41.5103 79.3294 41.4583 79.7419 41.3523C80.2523 41.2462 80.5689 40.9302 80.7148 40.3795C80.8106 39.9846 80.8106 39.5625 80.8356 39.1675C80.8356 38.9035 80.8585 38.6417 80.9085 38.4047C81.0294 37.9578 80.9814 37.5087 80.9814 37.0618C80.9814 37.0099 80.9564 36.9309 80.9085 36.9038C80.8356 36.8767 80.8106 36.9557 80.7627 36.9828C80.7377 37.0099 80.7377 37.0099 80.7377 37.0347L80.3731 37.5358C80.2273 37.7208 80.1064 37.9578 79.9127 38.1158C79.4502 38.5356 78.9648 38.8787 78.3814 39.1156C77.9689 39.2736 77.5314 39.4316 77.0689 39.3774C76.6085 39.3526 76.121 39.4045 75.6606 39.4564C75.3939 39.4835 75.1502 39.4316 74.8835 39.4045C74.7606 39.4045 74.6398 39.3774 74.5189 39.3255C74.446 39.2984 74.3731 39.2195 74.3002 39.1405C74.1773 38.9825 74.1544 38.7726 74.1544 38.5898C74.1544 38.1158 74.1294 37.6419 74.1044 37.1679C74.0814 36.8519 74.1044 36.5359 74.1294 36.22C74.1294 35.904 74.1544 35.6151 74.2273 35.2991C74.2502 35.087 74.3002 34.8771 74.396 34.6943C74.5189 34.4573 74.6648 34.3783 74.9064 34.4031C75.0294 34.4302 75.1252 34.4821 75.2231 34.5092C75.321 34.5611 75.4169 34.6153 75.5148 34.5611C75.5398 34.5363 75.5877 34.5363 75.6106 34.5611C75.6356 34.5611 75.6606 34.5882 75.6356 34.5882C75.5627 34.6943 75.6606 34.6943 75.7085 34.7191C76.1939 34.929 76.6814 35.1931 77.1419 35.509L77.2877 35.588C77.3856 35.6151 77.4335 35.588 77.4585 35.482C77.4814 35.403 77.5064 35.324 77.5064 35.2721C77.5064 34.9561 77.4814 34.6401 77.5064 34.3512C77.5064 34.1142 77.4814 33.8773 77.5064 33.6403C77.5314 33.4304 77.5314 33.2453 77.5064 33.0354L77.4335 32.4306C77.4335 32.1936 77.4814 31.9566 77.5064 31.7196C77.5314 31.5075 77.5544 31.3247 77.4814 31.1396C77.4585 31.0087 77.3856 30.9816 77.2648 31.0358L77.0689 31.1396L76.7544 31.3495C76.2669 31.6406 75.7814 31.8505 75.271 32.0356C75.1023 32.1146 74.9314 32.1665 74.7377 32.1394C74.6148 32.1394 74.5189 32.0875 74.446 31.9814C74.396 31.8776 74.3481 31.7986 74.3231 31.6925C74.2273 31.2457 74.1544 30.7988 74.1544 30.3248C74.1773 29.7448 74.1544 29.1648 74.1773 28.587L74.2273 27.9031C74.2273 27.77 74.2273 27.6391 74.2752 27.5082C74.3231 27.2712 74.396 27.1922 74.6148 27.1922C74.9794 27.1922 75.321 27.1651 75.6835 27.2193C75.8294 27.2193 76.0002 27.2441 76.146 27.2441C76.3398 27.2441 76.5356 27.2193 76.7294 27.1922C76.8752 27.1922 77.021 27.1922 77.1419 27.2193C77.6523 27.296 78.0898 27.4811 78.5523 27.691C78.7939 27.8241 78.9898 27.955 79.1585 28.1649C79.3773 28.4019 79.5481 28.6389 79.7669 28.8511C79.9606 29.009 80.1064 29.1919 80.2523 29.4017L80.3981 29.5868C80.4231 29.6139 80.446 29.6658 80.496 29.6387C80.5439 29.6387 80.5439 29.5597 80.5439 29.5349C80.5439 29.1399 80.5439 28.7721 80.496 28.4019L80.4231 27.2193C80.4231 26.9281 80.3981 26.6392 80.3252 26.3504C80.2044 25.6642 79.8398 25.3234 79.2064 25.2174C78.9648 25.1925 78.721 25.1655 78.4794 25.1136C78.1627 25.0594 77.871 25.0346 77.5794 25.0346C77.3356 25.0346 77.0689 25.0865 76.8273 25.0346C76.6085 25.0075 76.3648 25.0075 76.121 25.0075C75.7814 24.9804 75.4169 24.9556 75.0523 24.9556H74.6877C74.4689 24.9556 74.2502 24.9556 74.0314 25.0075C73.7648 25.0594 73.5231 25.0594 73.2544 25.0346C73.0127 25.0075 72.7689 24.9804 72.5252 24.9804C72.3314 24.9804 72.1606 25.0075 71.9669 25.0075C71.6523 25.0346 71.3356 24.9556 71.0189 24.9804Z" fill="white"/>
<path d="M95.8974 41.5373C96.2619 41.5102 96.6015 41.5373 96.9661 41.4831C97.039 41.4831 97.0869 41.4831 97.1599 41.4583C97.2807 41.4312 97.2807 41.4041 97.2078 41.3003L97.039 41.0881C96.7953 40.7993 96.5765 40.5104 96.3828 40.2215C96.189 39.9845 96.0432 39.6934 95.8974 39.4316C95.7015 39.0614 95.4599 38.7206 95.289 38.3256L94.5369 36.7729C94.5119 36.6668 94.464 36.5878 94.414 36.5088C94.2453 36.168 94.1724 35.773 94.0494 35.4029C94.0265 35.2991 94.0015 35.1659 94.0015 35.0621C94.0494 34.5611 94.1953 34.1413 94.5119 33.7982C94.7786 33.5342 94.9974 33.2182 95.1432 32.8774L95.2161 32.7194C95.3619 32.4305 95.5328 32.1935 95.6286 31.8776C95.8244 31.3765 95.8974 30.8236 95.9453 30.2706C95.9932 29.6138 95.9453 28.9819 95.7994 28.3229C95.6536 27.7451 95.3369 27.244 94.9724 26.7972C94.8036 26.6121 94.6099 26.4293 94.464 26.2171C94.2453 25.9012 93.9536 25.6642 93.6119 25.4814C93.1744 25.2715 92.714 25.0864 92.2036 24.9803C91.864 24.9013 91.5224 24.8494 91.1828 24.8765C90.9161 24.9013 90.6244 24.9284 90.3578 24.9284C90.0411 24.9013 89.7494 24.9013 89.4578 24.9013C89.1911 24.9013 88.9474 24.9013 88.6807 24.9284C88.4369 24.9284 88.1703 24.9803 87.9265 24.9803C87.6849 24.9803 87.4661 24.9284 87.2474 24.9284C86.7369 24.9013 86.2515 24.8765 85.7411 24.8765H85.6203C85.4744 24.8494 85.3036 24.8494 85.1578 24.8765C84.8661 24.9013 84.5994 24.9555 84.3078 24.9555C84.114 24.9284 83.9182 24.9284 83.7244 24.9555C83.4078 25.0345 83.3349 25.1135 83.4328 25.4272C83.5536 25.8763 83.6515 26.2961 83.7494 26.7453C83.8703 27.2711 83.9182 27.8241 83.9182 28.377C83.8953 28.614 83.9182 28.8758 83.9911 29.1128C84.0161 29.2189 84.0161 29.3227 84.0161 29.4288V31.1125C84.0161 31.3494 84.0161 31.6135 83.9682 31.8234C83.8953 32.1394 83.8953 32.4553 83.9432 32.7713C83.9911 33.0602 83.9911 33.3513 83.9682 33.6402C83.9432 33.9833 83.9182 34.3241 83.9911 34.6671C84.0161 34.9041 84.0411 35.1411 84.0161 35.3781C83.9911 35.6151 83.9911 35.852 83.9911 36.089V37.1137C83.9682 37.4048 83.9182 37.6937 83.9432 38.0097C83.9432 38.2986 83.9682 38.6145 83.9182 38.9034C83.8703 39.5105 83.7494 40.1154 83.5307 40.6932C83.4578 40.8783 83.3849 41.0633 83.3349 41.2732C83.3119 41.4312 83.3599 41.5102 83.5057 41.5621C83.6036 41.5892 83.7244 41.5892 83.8453 41.5621C84.064 41.5373 84.3078 41.5102 84.5494 41.5373C84.6953 41.5373 84.8182 41.5621 84.964 41.5621C85.7161 41.5621 86.4453 41.5373 87.1744 41.5102H87.2953C87.539 41.4831 87.8057 41.4831 88.0494 41.5102C88.1953 41.5373 88.3411 41.5102 88.4869 41.4831C88.6557 41.4312 88.7286 41.3251 88.6807 41.1423C88.6328 40.8783 88.5349 40.6684 88.4369 40.4585C88.2911 40.1673 88.2182 39.8513 88.1703 39.5105C88.1453 39.1404 88.0974 38.7725 88.0494 38.3776C88.0244 38.0887 88.0244 37.7998 88.0494 37.4838C88.0974 37.2717 88.0974 37.0347 88.0494 36.8C87.9765 36.484 87.9994 36.168 88.0244 35.852C88.0244 35.6399 88.0494 35.43 88.0974 35.2201C88.1224 35.114 88.1953 35.035 88.3161 35.0079C88.364 34.9831 88.414 34.9831 88.4619 34.9831H89.1661C89.3849 34.9831 89.5557 35.0621 89.6765 35.272C89.8703 35.6151 90.089 35.9829 90.2349 36.3779C90.4307 36.9309 90.6494 37.4838 90.8911 38.0368C91.0369 38.3256 91.1828 38.6145 91.2807 38.9305C91.4494 39.5354 91.5224 40.1425 91.5724 40.7473C91.5953 41.1671 91.6932 41.3003 92.0578 41.3793C92.0828 41.4041 92.1057 41.4041 92.1307 41.4041C92.3244 41.4583 92.5203 41.4583 92.714 41.4831C92.9328 41.5102 93.1265 41.5102 93.3203 41.4831C93.5161 41.4583 93.7349 41.4583 93.9286 41.4831C94.2203 41.5373 94.5119 41.5621 94.8265 41.5621C95.0953 41.5373 95.3619 41.5102 95.6286 41.5373H95.8974ZM87.9994 30.5076C87.9994 30.0878 88.0244 29.6928 88.0724 29.2708C88.1224 28.9819 88.0724 28.693 88.0494 28.377C88.0244 28.0859 88.0494 27.7699 88.1703 27.481C88.2682 27.2711 88.414 27.1651 88.6328 27.1651C88.9474 27.1651 89.289 27.1402 89.6036 27.1651C89.8224 27.1921 90.0161 27.1921 90.2119 27.1921C90.5036 27.1921 90.7453 27.323 90.9161 27.56C91.2557 28.0611 91.4494 28.6388 91.4994 29.2437C91.5224 29.4017 91.4744 29.5868 91.4744 29.7718C91.4494 29.8756 91.4494 29.9546 91.4494 30.0607C91.5224 30.5347 91.4744 30.9815 91.2807 31.4284L91.014 32.0875C90.7703 32.5614 90.4307 32.8255 89.9203 32.7984C89.5307 32.7984 89.1432 32.7713 88.7536 32.7713C88.389 32.7713 88.1953 32.5885 88.1224 32.1935C88.0724 31.9814 88.0494 31.7444 88.0244 31.5345C88.0244 31.1914 87.9994 30.8506 87.9994 30.5076Z" fill="white"/>
<path d="M103.911 22.6128C103.79 22.6376 103.619 22.6647 103.499 22.7166C103.159 22.8227 102.867 23.0326 102.599 23.2696C102.259 23.5585 101.944 23.8496 101.628 24.1904L101.117 24.6644C100.947 24.7975 100.801 24.9803 100.657 25.1654C100.024 25.9802 99.6111 26.9032 99.4653 27.955C99.4653 28.0611 99.4653 28.1649 99.4174 28.271V29.0338C99.4403 29.0338 99.4403 29.0609 99.4403 29.088C99.4653 29.3498 99.5132 29.5868 99.5632 29.8237C99.7569 30.6656 100.194 31.2704 100.947 31.6135C101.457 31.8505 101.967 31.9295 102.503 31.7986C103.013 31.6654 103.451 31.4036 103.815 30.9815C104.301 30.4557 104.397 29.8237 104.349 29.1399C104.301 28.851 104.203 28.614 104.13 28.3499C104.034 27.9279 103.815 27.6119 103.499 27.3749C103.182 27.1131 102.915 26.8243 102.697 26.4541C102.478 26.1133 102.43 25.9282 102.649 25.4814C102.89 25.0345 103.232 24.6395 103.572 24.2446C103.863 23.9015 104.253 23.6126 104.688 23.5065C104.834 23.4546 104.859 23.4275 104.786 23.2696C104.64 22.9288 104.447 22.6647 104.057 22.6376C104.034 22.6376 104.034 22.6128 104.009 22.6128H103.911Z" fill="white"/>
<path d="M112.243 24.6396C112.001 24.6645 111.808 24.6645 111.612 24.6645C111.393 24.6916 111.199 24.7435 110.981 24.7435C110.737 24.7435 110.495 24.7976 110.251 24.9015C110.033 24.9804 109.814 25.1136 109.595 25.1926C109.231 25.3754 108.866 25.5605 108.551 25.8494C108.333 26.0344 108.114 26.2173 107.968 26.4542L107.506 27.0613C107.337 27.2442 107.191 27.4541 107.093 27.691C106.972 27.9551 106.899 28.2192 106.776 28.4561C106.608 28.824 106.535 29.219 106.535 29.6388C106.535 30.1669 106.535 30.6928 106.681 31.2186C106.849 31.8506 107.141 32.3765 107.603 32.7985C107.749 32.9046 107.87 33.0084 107.993 33.1393C108.235 33.3763 108.478 33.6133 108.745 33.7712C109.11 34.0082 109.449 34.2452 109.814 34.4574C110.106 34.6673 110.422 34.7982 110.737 34.9561C111.174 35.1931 111.589 35.482 112.074 35.6671C112.439 35.798 112.753 35.9831 113.095 36.1681C113.241 36.2471 113.362 36.3261 113.483 36.457L114.091 37.01C114.212 37.089 114.31 37.1928 114.406 37.3259C114.624 37.6148 114.82 37.9037 114.843 38.2738C114.893 38.5627 114.843 38.8245 114.649 39.0367C114.456 39.1947 114.26 39.3527 114.041 39.4565C113.606 39.6686 113.168 39.6416 112.731 39.6416C112.56 39.6416 112.366 39.6145 112.195 39.5896C111.612 39.5107 111.053 39.3775 110.495 39.1676C110.276 39.0886 110.081 38.9306 109.864 38.8516C109.256 38.6417 108.745 38.2468 108.235 37.8518C107.895 37.5877 107.603 37.2718 107.287 36.9829C107.214 36.931 107.141 36.8249 107.068 36.8768C106.947 36.931 106.972 37.0348 106.972 37.1409C106.972 37.4839 107.02 37.8518 106.995 38.2197C106.995 38.3528 106.972 38.4567 106.972 38.5898C106.972 38.9035 107.02 39.1947 107.02 39.5107L107.068 40.6166C107.068 40.7723 107.093 40.9574 107.093 41.1153C107.118 41.2214 107.118 41.3252 107.166 41.4313C107.214 41.5374 107.287 41.5622 107.385 41.5374L107.506 41.4832C107.651 41.4042 107.797 41.3004 107.943 41.1943C108.285 40.9574 108.624 40.8784 109.037 40.9574C109.401 41.0634 109.791 41.1673 110.153 41.2462C110.372 41.3004 110.591 41.3523 110.787 41.4313C111.006 41.5374 111.224 41.6412 111.466 41.6954C111.903 41.7992 112.341 41.9324 112.803 41.9324C113.118 41.9324 113.41 41.9053 113.701 41.9572C114.187 42.0113 114.624 41.9053 115.062 41.7202C115.547 41.5103 116.01 41.3004 116.472 41.0363C116.837 40.8265 117.199 40.5895 117.491 40.2216C117.76 39.9056 118.001 39.5626 118.22 39.1676C118.537 38.6417 118.756 38.0617 118.876 37.4298C118.924 37.1138 118.974 36.8001 118.949 36.4841C118.949 36.035 118.828 35.5881 118.731 35.166C118.537 34.4822 118.124 33.9292 117.687 33.4034C117.443 33.1145 117.128 32.9046 116.86 32.6676C116.276 32.1936 115.645 31.7716 114.966 31.4827C114.795 31.4037 114.624 31.3247 114.456 31.2186C114.164 30.9817 113.822 30.8237 113.46 30.7199C113.216 30.6409 112.997 30.5077 112.803 30.3768C112.608 30.2188 112.414 30.1127 112.22 29.9818C111.831 29.7968 111.443 29.5869 111.101 29.298C110.787 29.0091 110.616 28.639 110.641 28.1921C110.664 27.7452 110.835 27.4292 111.174 27.2442C111.71 26.9553 112.243 26.8763 112.803 26.9282C113.362 27.0072 113.895 27.1133 114.431 27.2712C114.893 27.4292 115.353 27.5872 115.743 27.928C115.937 28.086 116.131 28.2192 116.326 28.3501L116.764 28.639C117.078 28.903 117.322 29.1919 117.637 29.456C117.735 29.5598 117.856 29.6659 117.978 29.7178C118.124 29.7968 118.197 29.7449 118.197 29.5869C118.22 29.5598 118.22 29.535 118.197 29.5079C118.197 29.2709 118.197 29.061 118.172 28.8511L118.124 28.4291C118.099 28.165 118.026 27.9032 118.026 27.6391C118.051 27.2193 118.001 26.7702 118.001 26.3504V26.2443C117.978 26.0344 117.978 25.8223 118.001 25.6124C118.001 25.4815 118.026 25.3483 118.001 25.2445C117.978 25.0594 117.881 24.9804 117.71 25.0865L117.418 25.2716C117.272 25.3754 117.151 25.4273 116.983 25.4815C116.568 25.5334 116.181 25.5063 115.791 25.4025C115.135 25.2174 114.503 25.0075 113.847 24.8766C113.289 24.7435 112.753 24.6396 112.243 24.6396Z" fill="white"/>
<path d="M146.546 32.2725C146.546 32.0874 146.569 31.8775 146.546 31.6653C146.521 31.3245 146.449 31.1124 146.084 31.0605C145.915 31.0356 145.769 31.0086 145.624 31.0086H144.553C144.482 31.0086 144.432 31.0086 144.359 30.9815C144.117 30.9815 143.899 30.9025 143.655 30.9025H142.174C142.149 30.9025 142.101 30.9025 142.051 30.9296C141.638 30.9567 141.226 30.9567 140.813 30.9296C140.642 30.9025 140.471 30.9025 140.303 30.9296C139.938 30.9567 139.596 30.9815 139.257 30.8235C139.015 30.7197 138.771 30.6136 138.528 30.5865C138.188 30.5346 137.921 30.3766 137.653 30.1396C137.459 29.9817 137.24 29.7966 137.144 29.5348L136.803 28.5079C136.73 28.219 136.755 27.9278 136.78 27.666C136.828 27.2192 136.926 26.8242 137.167 26.5082L137.436 26.1381C137.703 25.7431 138.067 25.4542 138.528 25.3481C138.771 25.2962 138.99 25.2962 139.232 25.3233C139.621 25.3482 139.986 25.4542 140.303 25.7183C140.74 26.0862 141.226 26.3751 141.638 26.7971L142.342 27.587L143.119 28.6139C143.169 28.6659 143.192 28.7178 143.242 28.7449C143.338 28.8509 143.411 28.7968 143.411 28.6659C143.436 28.6139 143.411 28.535 143.436 28.456C143.509 27.982 143.509 27.481 143.534 27.007C143.557 26.5872 143.557 26.1652 143.509 25.7183C143.484 25.4813 143.461 25.2443 143.338 25.0074C143.192 24.6914 142.974 24.4544 142.707 24.2445C142.342 23.9285 141.955 23.6374 141.517 23.4275C141.201 23.2695 140.886 23.1115 140.544 23.0596C140.278 23.0077 140.011 22.9806 139.742 22.8745C139.257 22.7166 138.771 22.7166 138.286 22.7166C138.042 22.7166 137.799 22.7166 137.532 22.7436C137.436 22.7436 137.313 22.7436 137.217 22.7955C136.561 22.9535 135.905 23.0596 135.249 23.2447C134.957 23.3237 134.665 23.4275 134.399 23.5855C133.694 24.0594 133.086 24.6124 132.576 25.2962C132.284 25.6912 132.065 26.1133 131.969 26.612C131.896 26.8761 131.846 27.1402 131.799 27.4291C131.751 27.7969 131.774 28.1648 131.871 28.535C131.919 28.6929 131.944 28.8238 131.944 28.9818C131.969 29.4016 132.09 29.7718 132.332 30.1126C132.649 30.5346 132.915 31.0086 133.207 31.4554C133.403 31.7443 133.378 31.9023 133.111 32.1393C133.111 32.1664 133.086 32.1664 133.086 32.1935C132.674 32.4824 132.332 32.8502 132.017 33.2452C131.846 33.4551 131.678 33.6672 131.555 33.9042C131.482 34.087 131.409 34.2721 131.313 34.4572C131.094 34.9289 130.899 35.4028 130.851 35.9558C130.826 36.2469 130.803 36.5358 130.851 36.8247L130.924 37.4047C131.021 37.9035 131.117 38.3775 131.361 38.8244C131.459 38.9823 131.555 39.1403 131.628 39.3254C131.774 39.6414 131.969 39.9303 132.236 40.1672C132.551 40.4584 132.867 40.7202 133.207 40.9572C133.571 41.1942 133.936 41.4041 134.349 41.5101L134.982 41.641C135.394 41.7742 135.807 41.799 136.196 41.957C136.438 42.036 136.682 42.036 136.901 42.0112C137.192 41.9841 137.459 41.9841 137.726 41.9841C138.09 42.0112 138.432 41.9841 138.771 41.9322C139.232 41.8532 139.694 41.7742 140.107 41.5891C140.642 41.3521 141.176 41.2212 141.711 41.0091C142.028 40.8782 142.028 40.8782 142.221 41.1942C142.319 41.3521 142.44 41.4311 142.611 41.4582C142.974 41.5101 143.338 41.5101 143.703 41.5372C143.899 41.562 144.092 41.5372 144.311 41.5101C144.651 41.483 144.917 41.2731 145.04 40.9301C145.136 40.5893 145.161 40.2462 145.136 39.9303C145.088 39.5105 145.161 39.1403 145.186 38.7454C145.186 38.5896 145.209 38.4046 145.186 38.2466C145.161 38.0096 145.136 37.7997 145.136 37.5627V36.3778C145.136 36.3259 145.136 36.2469 145.113 36.1928C145.113 35.931 145.063 35.6669 145.088 35.378C145.113 35.1659 145.161 34.9289 145.161 34.719C145.161 34.5091 145.186 34.324 145.209 34.1141C145.209 33.9561 145.234 33.8252 145.282 33.6672C145.332 33.4822 145.428 33.4032 145.624 33.4032H146.036C146.351 33.3761 146.496 33.2723 146.546 32.9811V32.2725ZM135.88 36.01C135.855 35.615 135.978 35.299 136.219 35.035L136.755 34.403C136.999 34.1141 137.313 33.9291 137.653 33.7981C137.921 33.6921 138.188 33.6131 138.432 33.5093C138.746 33.3761 139.063 33.3242 139.403 33.3513C139.621 33.4032 139.84 33.3761 140.059 33.3761H140.326C140.399 33.3761 140.471 33.4303 140.496 33.5093L140.544 33.8252C140.544 34.008 140.569 34.2202 140.594 34.403C140.667 34.8251 140.642 35.22 140.617 35.615C140.594 35.9039 140.594 36.1679 140.617 36.4297C140.642 36.6419 140.617 36.8518 140.617 37.0617C140.642 37.4837 140.617 37.9035 140.569 38.3256C140.544 38.5626 140.449 38.7454 140.253 38.8785C139.938 39.0613 139.621 39.2193 139.257 39.2464C139.088 39.2464 138.917 39.2983 138.746 39.3254C138.213 39.3773 137.653 39.3773 137.144 39.0884C136.853 38.9304 136.609 38.7205 136.438 38.4046C136.196 38.0367 136.001 37.6417 135.928 37.1926C135.88 36.9037 135.88 36.6148 135.88 36.3259V36.01Z" fill="white"/>
<path d="M173.097 24.3755C173.097 24.0595 173.097 23.7435 173.072 23.4276C173.049 23.2177 172.951 23.1658 172.781 23.2967L172.466 23.5585C172.101 23.8744 171.712 24.0076 171.251 23.8225C170.91 23.6645 170.57 23.5585 170.206 23.4546C170.06 23.4005 169.889 23.3486 169.743 23.2696C169.454 23.1116 169.137 23.0078 168.82 22.9017C168.408 22.7708 168.018 22.6918 167.606 22.7708C167.485 22.7956 167.364 22.7956 167.218 22.7956C166.974 22.8227 166.756 22.7956 166.512 22.8498C166.124 22.8746 165.735 22.9288 165.37 23.0326C164.812 23.1906 164.254 23.3757 163.743 23.6375C163.331 23.8744 162.941 24.1385 162.576 24.4545C162.212 24.7704 161.824 25.0864 161.508 25.4543C161.289 25.6913 161.095 25.9553 160.876 26.2171C160.56 26.6392 160.268 27.0861 160.026 27.56C159.881 27.8489 159.783 28.1649 159.685 28.456C159.539 28.8758 159.37 29.2708 159.247 29.6658C159.054 30.3248 158.956 31.0086 158.956 31.6925C158.956 32.0085 158.981 32.3244 158.981 32.6404C158.981 33.0083 159.006 33.4033 159.054 33.7982C159.126 34.5362 159.345 35.2449 159.564 35.931C159.685 36.2989 159.881 36.642 160.026 36.9828C160.245 37.4296 160.464 37.8517 160.731 38.2737C160.826 38.4317 160.949 38.5897 161.07 38.7206C161.387 39.0095 161.679 39.3255 161.945 39.6685C162.189 39.9303 162.479 40.1425 162.747 40.3524C162.868 40.4585 163.014 40.5623 163.185 40.6165C163.499 40.7474 163.791 40.9302 164.083 41.1423C164.181 41.1942 164.276 41.2732 164.374 41.3003C164.958 41.5621 165.589 41.6953 166.22 41.7991C166.562 41.8781 166.926 41.8781 167.266 41.9842C167.776 42.1151 168.287 42.0902 168.797 41.9842C169.162 41.9323 169.501 41.8533 169.841 41.7201L170.108 41.6163C170.351 41.5621 170.57 41.5102 170.789 41.4312C171.081 41.3003 171.347 41.1152 171.639 40.9302C172.149 40.6165 172.635 40.2734 173.072 39.8513C173.291 39.6415 173.51 39.4045 173.656 39.1404C173.899 38.6687 173.849 38.1406 173.51 37.7998C173.339 37.6147 173.145 37.5086 172.951 37.3777C172.831 37.2987 172.708 37.2987 172.562 37.3507C172.393 37.4048 172.222 37.5086 172.076 37.6418C171.712 37.9307 171.372 38.2737 170.983 38.5107C170.716 38.6687 170.449 38.8786 170.158 39.0095C169.743 39.1675 169.331 39.2984 168.87 39.3255C168.433 39.3526 167.995 39.3526 167.558 39.2194C167.168 39.1156 166.804 38.9034 166.464 38.6687C166.22 38.5107 165.979 38.2986 165.712 38.1158C165.493 37.9826 165.347 37.7727 165.224 37.5357C165.151 37.3777 165.079 37.2197 164.983 37.0618C164.641 36.4298 164.326 35.746 164.156 35.035C164.06 34.6401 163.962 34.2203 163.987 33.7982C163.987 33.6402 164.01 33.4552 163.987 33.2724C163.914 32.8503 163.914 32.4034 163.914 31.9814C163.914 31.7196 163.937 31.4284 163.987 31.1915C164.035 30.9296 164.083 30.6927 164.108 30.4557C164.133 30.2977 164.108 30.1668 164.133 30.0088C164.181 29.6658 164.276 29.2979 164.349 28.9548C164.399 28.7968 164.472 28.614 164.568 28.4809L164.787 28.0611C164.958 27.6661 165.151 27.296 165.37 26.9552C165.566 26.6121 165.785 26.3503 166.074 26.1133C166.318 25.8763 166.585 25.7184 166.926 25.6394L167.218 25.5604C167.704 25.3482 168.189 25.3234 168.699 25.4543C169.283 25.5852 169.816 25.8222 170.326 26.1382C170.862 26.4541 171.372 26.8243 171.785 27.323C171.883 27.4291 171.979 27.5081 172.076 27.5871C172.393 27.8241 172.685 28.0611 172.951 28.35C172.976 28.4019 173.024 28.4289 173.072 28.4809C173.193 28.535 173.266 28.5079 173.291 28.377V28.2191C173.316 27.955 173.266 27.6909 173.266 27.4291C173.266 27.2711 173.266 27.1402 173.218 26.9822C173.049 26.3751 173.097 25.7432 173.072 25.1383C173.072 24.9013 173.097 24.6395 173.097 24.3755Z" fill="white"/>
<path d="M183.444 24.5853C183.346 24.5853 183.225 24.6123 183.105 24.5853C182.765 24.5853 182.423 24.6643 182.084 24.6643C181.986 24.6643 181.89 24.6913 181.792 24.7184C181.04 24.8493 180.334 25.1134 179.655 25.5061C179.313 25.7182 178.973 25.9281 178.707 26.2712C178.561 26.454 178.367 26.612 178.171 26.77C177.978 26.8761 177.832 27.007 177.686 27.192L177.248 27.745C176.982 28.1129 176.738 28.5078 176.544 28.9547C176.423 29.2436 176.278 29.5347 176.155 29.8507C175.888 30.5075 175.621 31.1665 175.573 31.9023C175.548 32.3243 175.5 32.7193 175.548 33.1143C175.548 33.2452 175.573 33.3512 175.548 33.4821C175.5 33.7462 175.548 34.0351 175.573 34.2992C175.646 34.904 175.79 35.4818 175.986 36.0347C176.228 36.7209 176.471 37.4047 176.811 38.0367C177.03 38.4316 177.273 38.7995 177.613 39.0884C177.759 39.2193 177.905 39.3773 178.025 39.5623C178.148 39.7203 178.269 39.9302 178.44 40.0634C178.755 40.3004 179.096 40.5373 179.436 40.7472L180.261 41.1941C180.723 41.483 181.209 41.641 181.719 41.7742C182.157 41.878 182.619 41.9051 183.055 41.957C183.273 41.984 183.492 41.984 183.688 41.9321C183.907 41.9051 184.1 41.8261 184.294 41.799C184.659 41.7742 185.023 41.72 185.388 41.6162C185.946 41.4311 186.505 41.1941 187.04 40.9301C187.357 40.7721 187.671 40.6163 187.963 40.3523C188.086 40.2462 188.207 40.1153 188.353 40.0092C188.717 39.6932 189.082 39.3773 189.396 39.0094C189.592 38.7453 189.786 38.5106 189.907 38.1946L189.98 37.9577C190.271 37.4837 190.442 36.9556 190.734 36.5087C190.855 36.3259 190.928 36.1137 190.975 35.9038C191.048 35.615 191.121 35.299 191.171 34.983L191.292 34.087C191.317 33.6672 191.39 33.2722 191.317 32.8502C191.267 32.4823 191.244 32.1144 191.171 31.7714C191.025 31.1665 190.928 30.5617 190.734 29.9545C190.661 29.7446 190.611 29.5077 190.49 29.2978C190.15 28.6387 189.713 28.061 189.275 27.4809C189.155 27.271 188.984 27.1401 188.838 26.9551C188.692 26.77 188.521 26.612 188.353 26.454C188.036 26.1651 187.671 25.9011 187.307 25.6393C187.161 25.5332 187.015 25.4271 186.846 25.3481C186.409 25.1653 185.971 24.9802 185.486 24.9012L185.144 24.8222C184.586 24.6394 184.028 24.5604 183.444 24.5853ZM183.615 26.9031C184.221 26.8761 184.707 27.271 185.144 27.7969C185.34 28.061 185.534 28.3228 185.705 28.6139C186.044 29.1127 186.311 29.6656 186.457 30.2705C186.603 30.8505 186.7 31.4825 186.773 32.0873C186.796 32.3243 186.821 32.5613 186.796 32.8254C186.773 33.1143 186.773 33.4302 186.796 33.7462C186.821 33.8771 186.821 34.008 186.796 34.1412V34.3511C186.796 34.7189 186.748 35.062 186.675 35.4028C186.555 35.7978 186.482 36.1927 186.361 36.5877C186.165 37.1406 185.923 37.6665 185.559 38.1405C185.29 38.4835 184.998 38.7995 184.659 39.0613C184.271 39.3254 183.882 39.4834 183.419 39.4834C183.298 39.4834 183.2 39.5104 183.08 39.5104C182.765 39.5104 182.496 39.4314 182.255 39.1945C182.059 39.0094 181.84 38.8243 181.671 38.6144C181.355 38.2465 181.063 37.8516 180.844 37.4047L180.553 36.7728C180.432 36.4297 180.359 36.0347 180.286 35.6669C180.238 35.1929 180.14 34.6941 180.067 34.1931L179.969 33.2452C179.969 33.0082 180.042 32.7983 180.067 32.5613C180.115 32.0084 180.238 31.4554 180.238 30.9025C180.238 30.5617 180.359 30.2705 180.457 29.9545C180.53 29.6927 180.65 29.4557 180.821 29.2436C180.99 28.9818 181.088 28.6658 181.257 28.4018C181.5 28.0339 181.744 27.666 182.084 27.429C182.521 27.1401 182.982 26.8761 183.615 26.9031Z" fill="white"/>
<path d="M195.833 41.9843C196.172 42.0114 196.562 41.9053 196.926 41.7202C197.606 41.3252 198.043 40.7204 198.141 39.8515C198.189 39.4565 198.164 39.0886 198.093 38.6937C198.02 38.4318 197.897 38.1949 197.824 37.9308C197.703 37.6148 197.533 37.3779 197.291 37.1928C197.022 37.01 196.756 36.8249 196.416 36.773C196.003 36.7211 195.566 36.694 195.151 36.773C194.57 36.852 194.108 37.168 193.768 37.6938C193.622 37.9037 193.549 38.1678 193.451 38.4048C193.16 39.1157 193.185 39.7996 193.499 40.4834C193.695 40.9055 193.987 41.2214 194.301 41.4832C194.714 41.8534 195.224 42.0114 195.833 41.9843Z" fill="white"/>
</svg>
