<svg width="250" height="250" viewBox="0 0 250 250" fill="none" xmlns="http://www.w3.org/2000/svg">
<mask id="mask0_19_195" style="mask-type:luminance" maskUnits="userSpaceOnUse" x="0" y="0" width="250" height="250">
<path d="M0 0H250V250H0V0Z" fill="white"/>
</mask>
<g mask="url(#mask0_19_195)">
<path d="M125 250C56.0752 250 0 193.925 0 125C0 56.0752 56.0752 0 125 0C193.925 0 250 56.0752 250 125C250 193.925 193.925 250 125 250ZM125 2.21533C57.2988 2.21533 2.21533 57.2988 2.21533 125C2.21533 192.705 57.2988 247.785 125 247.785C192.705 247.785 247.785 192.705 247.785 125C247.785 57.2988 192.705 2.21533 125 2.21533Z" fill="#F9CC00"/>
</g>
<mask id="mask1_19_195" style="mask-type:luminance" maskUnits="userSpaceOnUse" x="5" y="5" width="240" height="240">
<path d="M5.89661 5.89685H244.253V244.253H5.89661V5.89685Z" fill="white"/>
</mask>
<g mask="url(#mask1_19_195)">
<path d="M244.253 125.075C244.253 127.023 244.203 128.974 244.106 130.922C244.01 132.87 243.867 134.814 243.678 136.754C243.486 138.695 243.247 140.632 242.961 142.559C242.676 144.488 242.341 146.411 241.963 148.323C241.581 150.235 241.153 152.14 240.678 154.031C240.204 155.922 239.687 157.802 239.119 159.668C238.552 161.537 237.942 163.388 237.286 165.222C236.626 167.059 235.927 168.878 235.177 170.68C234.432 172.481 233.643 174.265 232.809 176.027C231.974 177.793 231.096 179.534 230.18 181.254C229.259 182.973 228.3 184.671 227.294 186.344C226.291 188.017 225.249 189.662 224.165 191.285C223.081 192.908 221.96 194.499 220.797 196.069C219.634 197.635 218.436 199.172 217.198 200.678C215.96 202.187 214.687 203.664 213.377 205.108C212.068 206.553 210.723 207.966 209.346 209.346C207.966 210.723 206.553 212.068 205.108 213.378C203.663 214.687 202.187 215.96 200.678 217.198C199.172 218.436 197.635 219.635 196.069 220.798C194.499 221.961 192.908 223.081 191.285 224.165C189.662 225.25 188.017 226.291 186.344 227.294C184.671 228.3 182.973 229.259 181.253 230.18C179.534 231.097 177.793 231.974 176.027 232.809C174.265 233.644 172.481 234.432 170.68 235.178C168.878 235.927 167.059 236.626 165.222 237.286C163.388 237.942 161.537 238.552 159.667 239.12C157.802 239.687 155.922 240.204 154.031 240.679C152.14 241.153 150.235 241.581 148.323 241.963C146.411 242.341 144.488 242.676 142.558 242.962C140.632 243.247 138.695 243.486 136.754 243.679C134.814 243.868 132.869 244.01 130.922 244.107C128.974 244.203 127.022 244.253 125.075 244.253C123.123 244.253 121.172 244.203 119.224 244.107C117.276 244.01 115.332 243.868 113.392 243.679C111.451 243.486 109.514 243.247 107.588 242.962C105.658 242.676 103.735 242.341 101.823 241.963C99.9106 241.581 98.0056 241.153 96.1149 240.679C94.2242 240.204 92.3442 239.687 90.4785 239.12C88.6092 238.552 86.7578 237.942 84.9241 237.286C83.087 236.626 81.2676 235.927 79.4661 235.178C77.6646 234.432 75.8809 233.644 74.1186 232.809C72.3528 231.974 70.6119 231.097 68.8925 230.18C67.173 229.259 65.4749 228.3 63.8019 227.294C62.1288 226.291 60.4842 225.25 58.8611 224.165C57.2379 223.081 55.6469 221.961 54.0773 220.798C52.5112 219.635 50.9737 218.436 49.4682 217.198C47.9592 215.96 46.4824 214.687 45.0376 213.378C43.5928 212.068 42.1801 210.723 40.7996 209.346C39.4226 207.966 38.0777 206.553 36.7685 205.108C35.4592 203.664 34.1857 202.187 32.9478 200.678C31.71 199.172 30.5113 197.635 29.3484 196.069C28.1854 194.499 27.0653 192.908 25.9808 191.285C24.8963 189.662 23.8547 188.017 22.8522 186.344C21.8462 184.671 20.8866 182.973 19.9662 181.254C19.0494 179.534 18.1719 177.793 17.3371 176.027C16.5023 174.265 15.714 172.481 14.9684 170.68C14.2192 168.878 13.52 167.059 12.8601 165.222C12.2037 163.388 11.5937 161.537 11.0265 159.668C10.4592 157.802 9.94198 155.922 9.46753 154.031C8.99307 152.14 8.56499 150.235 8.18328 148.323C7.80514 146.411 7.46981 144.488 7.18442 142.559C6.89903 140.632 6.66002 138.695 6.46738 136.754C6.27831 134.814 6.13562 132.87 6.0393 130.922C5.94298 128.974 5.89661 127.023 5.89661 125.075C5.89661 123.124 5.94298 121.172 6.0393 119.224C6.13562 117.277 6.27831 115.332 6.46738 113.392C6.66002 111.451 6.89903 109.514 7.18442 107.588C7.46981 105.658 7.80514 103.735 8.18328 101.823C8.56499 99.9108 8.99307 98.0059 9.46753 96.1152C9.94198 94.2245 10.4592 92.3445 11.0265 90.4788C11.5937 88.6095 12.2037 86.758 12.8601 84.9244C13.52 83.0872 14.2192 81.2679 14.9684 79.4663C15.714 77.6648 16.5023 75.8812 17.3371 74.1189C18.1719 72.3566 19.0494 70.6122 19.9662 68.8927C20.8866 67.1733 21.8462 65.4752 22.8522 63.8021C23.8547 62.129 24.8963 60.4845 25.9808 58.8613C27.0653 57.2382 28.1854 55.6471 29.3484 54.0775C30.5113 52.5114 31.71 50.9739 32.9478 49.4685C34.1857 47.9595 35.4592 46.4826 36.7685 45.0378C38.0777 43.5931 39.4226 42.1804 40.7996 40.7998C42.1801 39.4228 43.5928 38.0779 45.0376 36.7687C46.4824 35.4595 47.9592 34.1859 49.4682 32.9481C50.9737 31.7102 52.5112 30.5116 54.0773 29.3486C55.6469 28.1857 57.2379 27.0655 58.8611 25.981C60.4842 24.8966 62.1288 23.8549 63.8019 22.8525C65.4749 21.8465 67.173 20.8869 68.8925 19.9665C70.6119 19.0497 72.3528 18.1721 74.1186 17.3373C75.8809 16.5026 77.6646 15.7142 79.4661 14.9686C81.2676 14.2195 83.087 13.5203 84.9241 12.8603C86.7578 12.2039 88.6092 11.5939 90.4785 11.0267C92.3442 10.4595 94.2242 9.94223 96.1149 9.46777C98.0056 8.99331 99.9106 8.56523 101.823 8.18352C103.735 7.80538 105.658 7.47005 107.588 7.18466C109.514 6.89928 111.451 6.66026 113.392 6.46763C115.332 6.27856 117.276 6.13586 119.224 6.03954C121.172 5.94323 123.123 5.89685 125.075 5.89685C127.022 5.89685 128.974 5.94323 130.922 6.03954C132.869 6.13586 134.814 6.27856 136.754 6.46763C138.695 6.66026 140.632 6.89928 142.558 7.18466C144.488 7.47005 146.411 7.80538 148.323 8.18352C150.235 8.56523 152.14 8.99331 154.031 9.46777C155.922 9.94223 157.802 10.4595 159.667 11.0267C161.537 11.5939 163.388 12.2039 165.222 12.8603C167.059 13.5203 168.878 14.2195 170.68 14.9686C172.481 15.7142 174.265 16.5026 176.027 17.3373C177.793 18.1721 179.534 19.0497 181.253 19.9665C182.973 20.8869 184.671 21.8465 186.344 22.8525C188.017 23.8549 189.662 24.8966 191.285 25.981C192.908 27.0655 194.499 28.1857 196.069 29.3486C197.635 30.5116 199.172 31.7102 200.678 32.9481C202.187 34.1859 203.663 35.4595 205.108 36.7687C206.553 38.0779 207.966 39.4228 209.346 40.7998C210.723 42.1804 212.068 43.5931 213.377 45.0378C214.687 46.4826 215.96 47.9595 217.198 49.4685C218.436 50.9739 219.634 52.5114 220.797 54.0775C221.96 55.6471 223.081 57.2382 224.165 58.8613C225.249 60.4845 226.291 62.129 227.294 63.8021C228.3 65.4752 229.259 67.1733 230.18 68.8927C231.096 70.6122 231.974 72.3566 232.809 74.1189C233.643 75.8812 234.432 77.6648 235.177 79.4663C235.927 81.2679 236.626 83.0872 237.286 84.9244C237.942 86.758 238.552 88.6095 239.119 90.4788C239.687 92.3445 240.204 94.2245 240.678 96.1152C241.153 98.0059 241.581 99.9108 241.963 101.823C242.341 103.735 242.676 105.658 242.961 107.588C243.247 109.514 243.486 111.451 243.678 113.392C243.867 115.332 244.01 117.277 244.106 119.224C244.203 121.172 244.253 123.124 244.253 125.075Z" fill="#F9CC00"/>
</g>
<mask id="mask2_19_195" style="mask-type:luminance" maskUnits="userSpaceOnUse" x="5" y="103" width="240" height="44">
<path d="M5.89661 103.753H244.253V146.904H5.89661V103.753Z" fill="white"/>
</mask>
<g mask="url(#mask2_19_195)">
<path d="M244.253 125.107C244.253 127.058 244.203 129.006 244.106 130.954C244.01 132.902 243.867 134.846 243.678 136.79C243.486 138.731 243.247 140.664 242.961 142.594C242.676 144.524 242.34 146.443 241.962 148.359C241.581 150.271 241.152 152.172 240.678 154.063C240.204 155.957 239.686 157.837 239.119 159.703C238.552 161.569 237.942 163.42 237.285 165.257C236.626 167.095 235.926 168.914 235.177 170.716C234.432 172.517 233.643 174.297 232.808 176.063C231.974 177.825 231.096 179.566 230.179 181.286C229.259 183.009 228.299 184.703 227.293 186.376C226.291 188.049 225.249 189.697 224.165 191.317C223.08 192.94 221.96 194.535 220.797 196.101C219.634 197.667 218.436 199.204 217.198 200.713C215.96 202.219 214.686 203.696 213.377 205.14C212.068 206.589 210.723 207.998 209.346 209.378C207.965 210.759 206.553 212.104 205.108 213.413C203.663 214.722 202.186 215.996 200.677 217.234C199.172 218.472 197.634 219.67 196.068 220.833C194.499 221.993 192.908 223.116 191.284 224.201C189.661 225.282 188.017 226.327 186.344 227.329C184.671 228.332 182.973 229.291 181.253 230.212C179.534 231.132 177.793 232.01 176.027 232.841C174.265 233.676 172.481 234.468 170.679 235.213C168.878 235.959 167.059 236.662 165.221 237.318C163.388 237.974 161.536 238.588 159.667 239.152C157.801 239.719 155.921 240.24 154.031 240.714C152.14 241.189 150.235 241.613 148.323 241.995C146.411 242.376 144.488 242.708 142.558 242.994C140.632 243.283 138.695 243.522 136.754 243.711C134.813 243.903 132.869 244.046 130.921 244.142C128.974 244.239 127.022 244.285 125.074 244.285C123.123 244.285 121.172 244.239 119.224 244.142C117.276 244.046 115.332 243.903 113.391 243.711C111.451 243.522 109.514 243.283 107.587 242.994C105.657 242.708 103.735 242.376 101.822 241.995C99.9103 241.613 98.0054 241.189 96.1147 240.714C94.224 240.24 92.344 239.719 90.4783 239.152C88.609 238.588 86.7575 237.974 84.9239 237.318C83.0867 236.662 81.2674 235.959 79.4659 235.213C77.6643 234.468 75.8807 233.676 74.1184 232.841C72.3525 232.01 70.6117 231.132 68.8922 230.212C67.1728 229.291 65.4747 228.332 63.8016 227.329C62.1285 226.327 60.484 225.282 58.8608 224.201C57.2377 223.116 55.6466 221.993 54.077 220.833C52.5109 219.67 50.9734 218.472 49.468 217.234C47.959 215.996 46.4821 214.722 45.0373 213.413C43.5926 212.104 42.1799 210.759 40.7993 209.378C39.4223 207.998 38.0774 206.589 36.7682 205.14C35.459 203.696 34.1855 202.219 32.9476 200.713C31.7097 199.204 30.5111 197.667 29.3481 196.101C28.1852 194.535 27.065 192.94 25.9806 191.317C24.8961 189.697 23.8544 188.049 22.852 186.376C21.846 184.703 20.8864 183.009 19.966 181.286C19.0492 179.566 18.1716 177.825 17.3369 176.063C16.5021 174.297 15.7137 172.517 14.9681 170.716C14.219 168.914 13.5198 167.095 12.8598 165.257C12.2034 163.42 11.5934 161.569 11.0262 159.703C10.459 157.837 9.94174 155.957 9.46728 154.063C8.99282 152.172 8.56474 150.271 8.18303 148.359C7.80489 146.443 7.46956 144.524 7.18418 142.594C6.89879 140.664 6.65978 138.731 6.46714 136.79C6.27807 134.846 6.13538 132.902 6.03906 130.954C5.94274 129.006 5.89636 127.058 5.89636 125.107C5.89636 123.156 5.94274 121.208 6.03906 119.26C6.13538 117.312 6.27807 115.368 6.46714 113.424C6.65978 111.483 6.89879 109.55 7.18418 107.62C7.46956 105.69 7.80489 103.771 8.18303 101.855C8.56474 99.9428 8.99282 98.0414 9.46728 96.1507C9.94174 94.2565 10.459 92.3765 11.0262 90.5107C11.5934 88.645 12.2034 86.7936 12.8598 84.9564C13.5198 83.1192 14.219 81.2998 14.9681 79.4983C15.7137 77.6968 16.5021 75.9131 17.3369 74.1509C18.1716 72.3886 19.0492 70.6477 19.966 68.9283C20.8864 67.2052 21.846 65.5107 22.852 63.8377C23.8544 62.1646 24.8961 60.5164 25.9806 58.8969C27.065 57.2737 28.1852 55.6791 29.3481 54.1131C30.5111 52.547 31.7097 51.0095 32.9476 49.5005C34.1855 47.995 35.459 46.5182 36.7682 45.0734C38.0774 43.625 39.4223 42.2159 40.7993 40.8354C42.1799 39.4548 43.5926 38.1099 45.0373 36.8007C46.4821 35.4915 47.959 34.2179 49.468 32.9801C50.9734 31.7422 52.5109 30.5436 54.077 29.3806C55.6466 28.2212 57.2377 27.0975 58.8608 26.013C60.484 24.9285 62.1285 23.8869 63.8016 22.8845C65.4747 21.882 67.1728 20.9224 68.8922 20.002C70.6117 19.0817 72.3525 18.2041 74.1184 17.3729C75.8807 16.5381 77.6643 15.7462 79.4659 15.0006C81.2674 14.255 83.0867 13.5523 84.9239 12.8959C86.7575 12.2395 88.609 11.6259 90.4783 11.0623C92.344 10.495 94.224 9.97421 96.1147 9.49975C98.0054 9.02529 99.9103 8.60078 101.822 8.21907C103.735 7.83737 105.657 7.5056 107.587 7.22021C109.514 6.93126 111.451 6.69225 113.391 6.50318C115.332 6.31054 117.276 6.16785 119.224 6.07153C121.172 5.97521 123.123 5.92883 125.074 5.92883C127.022 5.92883 128.974 5.97521 130.921 6.07153C132.869 6.16785 134.813 6.31054 136.754 6.50318C138.695 6.69225 140.632 6.93126 142.558 7.22021C144.488 7.5056 146.411 7.83737 148.323 8.21907C150.235 8.60078 152.14 9.02529 154.031 9.49975C155.921 9.97421 157.801 10.495 159.667 11.0623C161.536 11.6259 163.388 12.2395 165.221 12.8959C167.059 13.5523 168.878 14.255 170.679 15.0006C172.481 15.7462 174.265 16.5381 176.027 17.3729C177.793 18.2041 179.534 19.0817 181.253 20.002C182.973 20.9224 184.671 21.882 186.344 22.8845C188.017 23.8869 189.661 24.9285 191.284 26.013C192.908 27.0975 194.499 28.2212 196.068 29.3806C197.634 30.5436 199.172 31.7422 200.677 32.9801C202.186 34.2179 203.663 35.4915 205.108 36.8007C206.553 38.1099 207.965 39.4548 209.346 40.8354C210.723 42.2159 212.068 43.625 213.377 45.0734C214.686 46.5182 215.96 47.995 217.198 49.5005C218.436 51.0095 219.634 52.547 220.797 54.1131C221.96 55.6791 223.08 57.2737 224.165 58.8933C225.249 60.5164 226.291 62.1646 227.293 63.8377C228.299 65.5107 229.259 67.2052 230.179 68.9283C231.096 70.6477 231.974 72.3886 232.808 74.1509C233.643 75.9131 234.432 77.6968 235.177 79.4983C235.926 81.2998 236.626 83.1192 237.285 84.9564C237.942 86.7936 238.552 88.645 239.119 90.5107C239.686 92.3765 240.204 94.2565 240.678 96.1507C241.152 98.0414 241.581 99.9428 241.962 101.855C242.34 103.771 242.676 105.69 242.961 107.62C243.247 109.55 243.486 111.483 243.678 113.424C243.867 115.368 244.01 117.312 244.106 119.26C244.203 121.208 244.253 123.156 244.253 125.107Z" fill="#010101"/>
</g>
<mask id="mask3_19_195" style="mask-type:luminance" maskUnits="userSpaceOnUse" x="43" y="43" width="163" height="163">
<path d="M43.8641 43.8643H205.508V205.508H43.8641V43.8643Z" fill="white"/>
</mask>
<g mask="url(#mask3_19_195)">
<path d="M124.686 205.508C80.1191 205.508 43.8641 169.25 43.8641 124.686C43.8641 80.1193 80.1191 43.8643 124.686 43.8643C169.249 43.8643 205.508 80.1193 205.508 124.686C205.508 169.25 169.249 205.508 124.686 205.508ZM124.686 45.2948C80.9111 45.2948 45.2946 80.9112 45.2946 124.686C45.2946 168.461 80.9111 204.074 124.686 204.074C168.461 204.074 204.074 168.461 204.074 124.686C204.074 80.9112 168.461 45.2948 124.686 45.2948Z" fill="#010101"/>
</g>
<mask id="mask4_19_195" style="mask-type:luminance" maskUnits="userSpaceOnUse" x="50" y="50" width="151" height="151">
<path d="M50.025 50.025H200.025V200.025H50.025V50.025Z" fill="white"/>
</mask>
<g mask="url(#mask4_19_195)">
<path d="M200.025 125.025C200.025 126.252 199.993 127.479 199.932 128.703C199.872 129.93 199.782 131.154 199.661 132.374C199.543 133.597 199.394 134.814 199.212 136.027C199.033 137.243 198.823 138.453 198.584 139.655C198.341 140.86 198.074 142.056 197.778 143.247C197.478 144.439 197.15 145.619 196.793 146.797C196.436 147.97 196.055 149.133 195.641 150.289C195.227 151.445 194.785 152.59 194.314 153.724C193.846 154.859 193.347 155.979 192.823 157.092C192.298 158.201 191.745 159.297 191.167 160.377C190.589 161.462 189.983 162.529 189.352 163.581C188.724 164.633 188.067 165.671 187.382 166.692C186.701 167.712 185.995 168.714 185.263 169.703C184.532 170.687 183.779 171.654 182.998 172.603C182.22 173.552 181.418 174.483 180.594 175.389C179.77 176.299 178.924 177.19 178.057 178.057C177.19 178.924 176.299 179.77 175.389 180.594C174.483 181.418 173.552 182.22 172.603 182.998C171.654 183.779 170.687 184.532 169.703 185.263C168.714 185.995 167.712 186.701 166.692 187.382C165.671 188.067 164.633 188.724 163.581 189.352C162.529 189.983 161.462 190.589 160.377 191.167C159.297 191.745 158.201 192.298 157.092 192.823C155.979 193.347 154.859 193.846 153.724 194.314C152.59 194.785 151.445 195.227 150.289 195.641C149.133 196.055 147.97 196.436 146.797 196.793C145.619 197.15 144.439 197.478 143.247 197.778C142.056 198.074 140.86 198.341 139.655 198.584C138.453 198.823 137.243 199.033 136.027 199.212C134.814 199.394 133.597 199.543 132.374 199.661C131.154 199.782 129.93 199.872 128.703 199.932C127.479 199.993 126.252 200.025 125.025 200.025C123.798 200.025 122.571 199.993 121.344 199.932C120.116 199.872 118.893 199.782 117.673 199.661C116.449 199.543 115.233 199.394 114.02 199.212C112.803 199.033 111.594 198.823 110.392 198.584C109.19 198.341 107.991 198.074 106.799 197.778C105.608 197.478 104.427 197.15 103.253 196.793C102.076 196.436 100.913 196.055 99.7575 195.641C98.6017 195.227 97.4565 194.785 96.3221 194.314C95.1877 193.846 94.0675 193.347 92.9581 192.823C91.8487 192.298 90.7499 191.745 89.669 191.167C88.5881 190.589 87.5179 189.983 86.4655 189.352C85.4132 188.724 84.3751 188.067 83.3548 187.382C82.3345 186.701 81.3321 185.995 80.3475 185.263C79.3594 184.532 78.3926 183.779 77.4437 182.998C76.4948 182.22 75.5673 181.418 74.6576 180.594C73.7479 179.77 72.8596 178.924 71.9892 178.057C71.1223 177.19 70.2769 176.299 69.4528 175.389C68.6288 174.483 67.8261 173.552 67.0484 172.603C66.2707 171.654 65.5145 170.687 64.7832 169.703C64.0518 168.714 63.3455 167.712 62.6642 166.692C61.9828 165.671 61.3264 164.633 60.695 163.581C60.0636 162.529 59.4571 161.462 58.8792 160.377C58.3013 159.297 57.7483 158.201 57.2239 157.092C56.6995 155.979 56.2037 154.859 55.7328 153.724C55.2619 152.59 54.8195 151.445 54.4093 150.289C53.9955 149.133 53.6102 147.97 53.2535 146.797C52.8967 145.619 52.5685 144.439 52.2725 143.247C51.9728 142.056 51.7052 140.86 51.4662 139.655C51.2237 138.453 51.0167 137.243 50.8348 136.027C50.6564 134.814 50.5066 133.597 50.3853 132.374C50.264 131.154 50.1749 129.93 50.1142 128.703C50.0536 127.479 50.025 126.252 50.025 125.025C50.025 123.798 50.0536 122.571 50.1142 121.344C50.1749 120.116 50.264 118.893 50.3853 117.673C50.5066 116.449 50.6564 115.233 50.8348 114.02C51.0167 112.803 51.2237 111.594 51.4662 110.392C51.7052 109.19 51.9728 107.991 52.2725 106.799C52.5685 105.608 52.8967 104.427 53.2535 103.253C53.6102 102.076 53.9955 100.913 54.4093 99.7575C54.8195 98.6016 55.2619 97.4565 55.7328 96.3221C56.2037 95.1877 56.6995 94.0675 57.2239 92.9581C57.7483 91.8487 58.3013 90.7499 58.8792 89.669C59.4571 88.5881 60.0636 87.5179 60.695 86.4655C61.3264 85.4131 61.9828 84.375 62.6642 83.3548C63.3455 82.3345 64.0518 81.3321 64.7832 80.3475C65.5145 79.3594 66.2707 78.3926 67.0484 77.4437C67.8261 76.4948 68.6288 75.5673 69.4528 74.6576C70.2769 73.7479 71.1223 72.8596 71.9892 71.9892C72.8596 71.1223 73.7479 70.2769 74.6576 69.4528C75.5673 68.6288 76.4948 67.8261 77.4437 67.0484C78.3926 66.2707 79.3594 65.5145 80.3475 64.7832C81.3321 64.0518 82.3345 63.3455 83.3548 62.6642C84.3751 61.9828 85.4132 61.3264 86.4655 60.695C87.5179 60.0636 88.5881 59.4571 89.669 58.8792C90.7499 58.3013 91.8487 57.7483 92.9581 57.2239C94.0675 56.6995 95.1877 56.2037 96.3221 55.7328C97.4565 55.2619 98.6017 54.8195 99.7575 54.4093C100.913 53.9955 102.076 53.6102 103.253 53.2535C104.427 52.8967 105.608 52.5685 106.799 52.2725C107.991 51.9728 109.19 51.7052 110.392 51.4662C111.594 51.2237 112.803 51.0167 114.02 50.8348C115.233 50.6564 116.449 50.5066 117.673 50.3853C118.893 50.264 120.116 50.1749 121.344 50.1142C122.571 50.0536 123.798 50.025 125.025 50.025C126.252 50.025 127.479 50.0536 128.703 50.1142C129.93 50.1749 131.154 50.264 132.374 50.3853C133.597 50.5066 134.814 50.6564 136.027 50.8348C137.243 51.0167 138.453 51.2237 139.655 51.4662C140.86 51.7052 142.056 51.9728 143.247 52.2725C144.439 52.5685 145.619 52.8967 146.797 53.2535C147.97 53.6102 149.133 53.9955 150.289 54.4093C151.445 54.8195 152.59 55.2619 153.724 55.7328C154.859 56.2037 155.979 56.6995 157.092 57.2239C158.201 57.7483 159.297 58.3013 160.377 58.8792C161.462 59.4571 162.529 60.0636 163.581 60.695C164.633 61.3264 165.671 61.9828 166.692 62.6642C167.712 63.3455 168.714 64.0518 169.703 64.7832C170.687 65.5145 171.654 66.2707 172.603 67.0484C173.552 67.8261 174.483 68.6288 175.389 69.4528C176.299 70.2769 177.19 71.1223 178.057 71.9892C178.924 72.8596 179.77 73.7479 180.594 74.6576C181.418 75.5673 182.22 76.4948 182.998 77.4437C183.779 78.3926 184.532 79.3594 185.263 80.3475C185.995 81.3321 186.701 82.3345 187.382 83.3548C188.067 84.375 188.724 85.4131 189.352 86.4655C189.983 87.5179 190.589 88.5881 191.167 89.669C191.745 90.7499 192.298 91.8487 192.823 92.9581C193.347 94.0675 193.846 95.1877 194.314 96.3221C194.785 97.4565 195.227 98.6016 195.641 99.7575C196.055 100.913 196.436 102.076 196.793 103.253C197.15 104.427 197.478 105.608 197.778 106.799C198.074 107.991 198.341 109.19 198.584 110.392C198.823 111.594 199.033 112.803 199.212 114.02C199.394 115.233 199.543 116.449 199.661 117.673C199.782 118.893 199.872 120.116 199.932 121.344C199.993 122.571 200.025 123.798 200.025 125.025Z" fill="#010101"/>
</g>
<path d="M44.3705 85.3603C45.6547 82.3494 44.2278 78.8498 41.3525 77.6191C39.2014 76.7023 36.5865 77.1732 34.9848 78.618C34.5924 77.3052 33.4936 76.0102 32.0703 75.4038C29.516 74.3122 26.3054 75.5786 25.1246 78.3468L20.405 89.3878C21.2862 88.1464 24.0616 89.0132 25.1924 89.4948L35.8053 94.0289C36.9611 94.5212 39.4797 95.9161 39.2157 97.425L44.3705 85.3603ZM38.7947 83.0094C40.4892 83.7336 41.563 85.082 41.2063 86.0737L39.6331 89.7552L33.3724 87.0797L34.9456 83.3982C35.4093 82.4529 37.1038 82.2888 38.7947 83.0094ZM26.6943 81.3684C27.0724 80.4801 28.4102 80.3232 29.9406 80.976C31.528 81.6538 32.3521 82.7668 31.9847 83.6265L30.9537 86.0452L25.6597 83.7871L26.6943 81.3684Z" fill="#010101"/>
<path d="M46.551 66.5149L43.9718 70.0929L39.8408 64.3816L46.551 66.5149ZM49.8936 75.4725C48.8627 76.3536 47.079 74.3809 46.2656 73.2572L45.595 72.3404L49.198 67.3389L50.4073 67.7064C51.738 68.1594 54.0211 69.194 53.5466 70.3997L58.944 62.9083C57.7953 63.9535 54.9735 63.4684 53.593 63.0867L37.1225 58.2101L33.6194 63.0688C34.6503 62.1912 36.459 64.1783 37.2688 65.302L44.4178 75.526C45.1812 76.6176 46.6866 79.3217 46.0338 80.8307L49.8936 75.4725Z" fill="#010101"/>
<path d="M65.5488 57.3695C64.1968 58.0901 62.0885 56.1317 61.2573 55.1899L58.8279 52.4252L60.3655 51.0732L64.1112 52.682C65.3776 53.2421 68.0602 54.6976 67.2825 55.8463L74.1747 49.7925C72.9047 50.5167 70.3826 49.8175 68.8665 49.2431L63.8936 47.0777C64.6891 45.0194 64.3288 42.5722 62.7663 40.7956C60.5117 38.2271 56.6554 37.956 54.1333 40.1749L45.2863 47.9482C46.6169 47.2062 48.7466 49.186 49.5564 50.1064L57.1762 58.7751C58.0039 59.7204 59.6734 62.0642 58.7851 63.3127L65.5488 57.3695ZM54.4401 43.4034C55.2748 42.6721 56.9979 43.2571 58.2893 44.7268C59.5628 46.1788 59.9231 47.9589 59.0883 48.6937L57.0906 50.4489L52.4424 45.1585L54.4401 43.4034Z" fill="#010101"/>
<path d="M85.5086 43.8154C88.3767 42.2386 89.4112 38.5999 87.9058 35.8602C86.7785 33.8125 84.4277 32.5711 82.2765 32.7209C82.776 31.4438 82.7118 29.7458 81.9626 28.3902C80.6284 25.9572 77.3179 24.9762 74.6816 26.4246L64.158 32.2072C65.617 31.772 67.2687 34.1657 67.8609 35.2431L73.4188 45.3565C74.0253 46.4588 75.149 49.1094 74.011 50.1332L85.5086 43.8154ZM82.5691 38.5286C83.4538 40.141 83.4716 41.8676 82.5762 42.4241L79.0695 44.3505L75.7875 38.3859L79.2978 36.4595C80.2467 36.0029 81.6808 36.9126 82.5691 38.5286ZM74.0538 29.7707C74.8993 29.307 76.0515 30.0062 76.8542 31.4652C77.6818 32.9778 77.6461 34.3655 76.8256 34.815L74.5211 36.0814L71.7493 31.0372L74.0538 29.7707Z" fill="#010101"/>
<path d="M106.341 36.2733L104.74 29.7629C104.761 30.6155 104.554 34.0758 100.37 35.3815L97.1056 36.3981L95.2541 30.4549C97.259 30.0162 99.3637 30.0019 100.259 31.4966L97.9653 24.1336C98.0795 25.8709 96.335 27.0588 94.4372 27.8329L92.5822 21.8933L95.2898 21.0478C99.4743 19.7458 101.611 22.4748 102.078 23.1882L99.6955 16.9204L84.9088 21.5294C86.4285 21.3939 87.595 24.0587 87.9625 25.2323L91.3978 36.2483C91.7724 37.4505 92.3182 40.2794 90.9983 41.0571L106.341 36.2733Z" fill="#010101"/>
<path d="M115.841 35.1441C114.325 34.9372 113.758 32.1154 113.636 30.8668L113.28 27.2032L115.316 27.0034L117.418 30.4994C118.12 31.6945 119.444 34.4413 118.138 34.9229L127.271 34.0346C125.819 33.8812 124.181 31.8407 123.286 30.4887L120.518 25.8262C122.366 24.6168 123.504 22.4229 123.275 20.0684C122.943 16.6652 119.975 14.193 116.629 14.5176L104.911 15.6556C106.423 15.8304 106.994 18.6807 107.112 19.9044L108.228 31.3912C108.349 32.6434 108.335 35.5187 106.883 36.0145L115.841 35.1441ZM114.995 17.318C116.098 17.211 117.154 18.695 117.343 20.6428C117.528 22.562 116.779 24.2208 115.673 24.3279L113.026 24.5847L112.348 17.5749L114.995 17.318Z" fill="#010101"/>
<path d="M131.307 24.0128C132.94 24.1091 134.207 23.0139 134.303 21.4122C134.364 19.921 133.436 18.783 132.066 18.701C131.845 16.5213 133.657 15.576 135.38 15.1515L134.977 14.1027C131.342 14.677 128.656 16.9708 128.46 20.2385C128.331 22.3397 129.409 23.8986 131.307 24.0128Z" fill="#010101"/>
<path d="M146.638 33.2576C146.46 34.1459 145.289 34.4776 143.57 34.1316C140.135 33.4431 137.07 30.5928 136.756 27.8495L135.611 35.4872C136.143 34.7595 136.885 34.4883 137.83 34.6774C139.46 35.0056 141.169 36.6002 143.691 37.1068C147.672 37.9059 151.679 35.6085 152.41 31.9698C153.683 25.4594 142.735 22.9979 143.384 19.7587C143.584 18.7563 144.701 18.3853 146.363 18.7171C149.57 19.3628 152.463 22.1774 152.777 24.9207L153.922 17.283C153.387 18.0107 152.685 18.2569 151.796 18.0785C150.22 17.7646 148.91 16.277 146.388 15.774C142.436 14.9821 138.404 17.2402 137.691 20.7933C136.428 27.0968 147.394 29.4762 146.638 33.2576Z" fill="#010101"/>
<path d="M164.324 37.0102C162.316 40.5062 164.488 44.1128 168.113 46.1961C170.011 47.2877 171.923 47.7122 173.603 47.6659L173.678 48.8217L176.464 50.4234L181.023 42.4932L182.518 43.3529L183.827 41.0734L177.47 37.4204C175.593 36.3431 174.027 34.431 175.18 32.4297C175.761 31.4166 177.227 30.036 179.104 31.1133C180.802 32.0872 181.797 35.4584 181.237 37.8984L183.927 33.6854C183.798 32.3262 182.496 29.7256 179.76 28.1524C175.882 25.9264 171.873 26.2189 170.114 29.2833C169.051 31.1312 169.404 32.9184 170.346 34.5059C167.984 34.1599 165.708 34.6022 164.324 37.0102ZM176.335 39.7998L173.496 44.7406C172.579 44.9903 171.755 44.9547 170.667 44.3268C168.337 42.9891 168.969 40.8915 169.522 39.9283C170.817 37.6737 173.699 38.2873 175.422 39.2754L176.335 39.7998Z" fill="#010101"/>
<path d="M193.283 66.8634C195.491 69.3962 198.542 70.5342 201.46 69.9242L201.185 67.295C198.934 67.5162 197.247 67.0096 196.055 65.6434C193.865 63.1355 194.703 59.3398 198.181 56.304C201.57 53.3431 205.569 52.726 207.414 54.8378C208.987 56.6429 209.283 60.8453 207.988 62.8287L213.549 57.4706C212.658 57.7809 212.048 57.6561 211.548 57.0853C210.606 56.0079 210.785 54.2992 208.997 52.2515C205.402 48.1348 198.666 47.9279 194.286 51.7521C189.841 55.6334 189.381 62.3935 193.283 66.8634Z" fill="#010101"/>
<path d="M203.178 81.3188C205.979 86.413 212.482 88.2395 217.655 85.3999C222.856 82.5424 224.775 76.0855 221.975 70.9913C219.16 65.8686 212.696 64.0528 207.498 66.9103C202.322 69.7499 200.364 76.1961 203.178 81.3188ZM219.438 72.3826C220.662 74.6122 218.575 78.0904 214.787 80.1737C210.994 82.257 206.938 82.1536 205.715 79.924C204.488 77.698 206.578 74.2162 210.367 72.1329C214.159 70.0496 218.215 70.1566 219.438 72.3826Z" fill="#010101"/>
<path d="M209.041 94.2953C209.579 95.8079 211.267 96.6319 212.811 96.0826C214.352 95.5332 215.137 93.8244 214.599 92.3119C214.049 90.7708 212.369 89.9753 210.828 90.5246C209.287 91.074 208.491 92.7542 209.041 94.2953Z" fill="#010101"/>
<path d="M64.5186 211.743C66.3237 213.084 68.8957 212.688 70.1764 210.965C71.1324 209.674 71.2359 207.847 70.526 206.545C71.4678 206.492 72.5094 205.967 73.1444 205.111C74.2824 203.577 73.9507 201.23 72.2883 199.996L65.6566 195.076C66.3486 195.865 65.3248 197.581 64.8218 198.258L60.0915 204.63C59.5778 205.322 58.2436 206.784 57.2769 206.367L64.5186 211.743ZM66.9801 208.393C66.2273 209.406 65.1536 209.913 64.5471 209.513L62.3389 207.872L65.1286 204.112L67.3368 205.753C67.8933 206.217 67.7363 207.377 66.9801 208.393ZM70.0159 200.563C70.5474 200.959 70.4404 201.879 69.759 202.796C69.0527 203.749 68.1715 204.123 67.6578 203.741L66.2059 202.66L68.564 199.486L70.0159 200.563Z" fill="#010101"/>
<path d="M78.3458 213.777L75.6739 212.343L79.1949 209.011L78.3458 213.777ZM72.5418 216.863C71.8497 216.242 73.0305 214.847 73.7225 214.191L74.2898 213.652L78.0212 215.657L77.8821 216.517C77.6894 217.462 77.1936 219.11 76.3267 218.896L81.9203 221.9C81.107 221.212 81.1819 219.246 81.3174 218.269L83.1582 206.603L79.5302 204.656C80.2223 205.276 79.0308 206.689 78.3351 207.342L72.0102 213.135C71.336 213.756 69.6272 215.026 68.5392 214.715L72.5418 216.863Z" fill="#010101"/>
<path d="M89.1403 224.523C88.2556 223.952 88.7301 222.03 89.019 221.216L89.8716 218.833L91.1951 219.304L91.4805 222.094C91.5661 223.043 91.5875 225.14 90.635 225.058L96.5747 227.181C95.7149 226.66 95.294 224.908 95.1335 223.806L94.7767 220.096C96.2786 219.886 97.6306 218.855 98.1764 217.321C98.9684 215.109 97.8446 212.701 95.6686 211.923L88.0451 209.198C88.937 209.751 88.4554 211.691 88.1736 212.487L85.5016 219.957C85.2127 220.774 84.3601 222.557 83.3148 222.44L89.1403 224.523ZM93.8314 213.186C94.552 213.443 94.7732 214.674 94.3201 215.94C93.8742 217.189 92.9217 218.002 92.2011 217.745L90.4816 217.132L92.1119 212.572L93.8314 213.186Z" fill="#010101"/>
<path d="M106.837 229.272C109.045 229.714 111.2 228.266 111.624 226.157C111.942 224.584 111.26 222.886 110.065 222.012C110.893 221.563 111.61 220.642 111.82 219.597C112.198 217.728 110.896 215.744 108.867 215.334L100.776 213.704C101.735 214.121 101.539 216.112 101.372 216.939L99.8055 224.716C99.6342 225.565 99.0492 227.456 97.9968 227.488L106.837 229.272ZM107.639 225.191C107.39 226.432 106.633 227.345 105.916 227.242L103.216 226.696L104.143 222.108L106.84 222.651C107.539 222.836 107.889 223.949 107.639 225.191ZM107.054 216.814C107.704 216.946 107.996 217.824 107.771 218.948C107.536 220.107 106.901 220.821 106.273 220.692L104.5 220.335L105.281 216.458L107.054 216.814Z" fill="#010101"/>
<path d="M123.473 230.941L124.065 226.371C123.865 226.921 122.874 229.09 119.866 228.886L117.522 228.729L117.811 224.459C119.206 224.673 120.558 225.187 120.762 226.371L121.118 221.077C120.758 222.223 119.349 222.551 117.936 222.576L118.225 218.306L120.169 218.438C123.177 218.641 123.869 220.921 123.99 221.495L124.019 216.886L113.395 216.169C114.405 216.458 114.49 218.455 114.433 219.297L113.898 227.217C113.841 228.077 113.488 230.028 112.45 230.199L123.473 230.941Z" fill="#010101"/>
<path d="M131.57 230.588C130.532 230.417 130.2 228.469 130.14 227.605L129.968 225.08L131.37 224.983L132.747 227.427C133.204 228.262 134.06 230.177 133.154 230.481L139.447 230.053C138.451 229.917 137.367 228.483 136.782 227.534L134.966 224.277C136.265 223.485 137.089 221.998 136.978 220.374C136.818 218.031 134.827 216.272 132.523 216.429L124.443 216.978C125.481 217.128 125.816 219.101 125.873 219.943L126.412 227.859C126.472 228.722 126.405 230.698 125.399 231.009L131.57 230.588ZM131.342 218.323C132.102 218.27 132.797 219.311 132.89 220.653C132.979 221.976 132.43 223.1 131.67 223.153L129.847 223.275L129.519 218.444L131.342 218.323Z" fill="#010101"/>
<path d="M147.62 225.617C147.745 226.227 147.096 226.751 145.915 226.994C143.553 227.479 140.849 226.494 139.915 224.839L141.235 229.983C141.377 229.38 141.777 229.013 142.426 228.877C143.546 228.649 145.055 229.198 146.785 228.845C149.522 228.282 151.444 225.756 150.931 223.255C149.992 218.792 142.401 220.166 141.945 217.943C141.802 217.255 142.412 216.72 143.553 216.484C145.754 216.035 148.341 217.041 149.275 218.696L147.956 213.552C147.813 214.155 147.431 214.501 146.821 214.626C145.74 214.847 144.509 214.258 142.779 214.615C140.065 215.172 138.117 217.683 138.62 220.123C139.508 224.454 147.089 223.02 147.62 225.617Z" fill="#010101"/>
<path d="M159.182 225.047C158.136 225.164 157.266 223.384 156.977 222.567L155.975 219.749L160.045 218.301L161.047 221.123C161.336 221.936 161.807 223.859 160.922 224.43L166.734 222.364C165.688 222.478 164.822 220.698 164.529 219.885L161.875 212.408C161.59 211.612 161.133 209.664 162.025 209.115L156.214 211.177C157.252 211.045 158.108 212.85 158.39 213.645L159.428 216.56L155.357 218.008L154.319 215.09C154.037 214.298 153.581 212.35 154.473 211.798L148.661 213.863C149.7 213.727 150.556 215.536 150.838 216.328L153.495 223.805C153.784 224.622 154.255 226.541 153.37 227.112L159.182 225.047Z" fill="#010101"/>
<path d="M175.045 218.435C178.559 216.534 179.843 212.067 177.91 208.5C175.969 204.915 171.539 203.566 168.021 205.471C164.489 207.384 163.216 211.821 165.157 215.406C167.086 218.974 171.51 220.351 175.045 218.435ZM168.97 207.219C170.508 206.388 172.891 207.837 174.307 210.451C175.723 213.066 175.634 215.856 174.096 216.687C172.559 217.518 170.176 216.07 168.76 213.455C167.343 210.84 167.433 208.051 168.97 207.219Z" fill="#010101"/>
<path d="M187.737 209.917C186.77 210.338 185.432 208.879 184.915 208.187L184.041 207.009L186.36 205.279C188.436 203.731 188.854 200.763 187.28 198.655C185.707 196.543 182.746 196.097 180.666 197.649L174.37 202.343C175.337 201.922 176.689 203.371 177.195 204.045L181.936 210.405C182.454 211.101 183.453 212.81 182.775 213.616L187.737 209.917ZM180.895 199.732C181.637 199.179 183.025 199.8 183.995 201.102C184.969 202.407 185.165 203.916 184.426 204.469L182.96 205.561L179.429 200.827L180.895 199.732Z" fill="#010101"/>
<mask id="mask5_19_195" style="mask-type:luminance" maskUnits="userSpaceOnUse" x="72" y="43" width="106" height="163">
<path d="M72.3806 43.6145H177.607V205.943H72.3806V43.6145Z" fill="white"/>
</mask>
<g mask="url(#mask5_19_195)">
<path fill-rule="evenodd" clip-rule="evenodd" d="M165.407 144.442C165.71 145.117 165.885 145.851 165.86 146.59L164.886 173.812L174.785 176.531C176.433 176.984 177.25 179.213 177.272 180.747C177.311 183.316 175.642 185.092 173.283 185.881L164.372 188.874C163.359 196.939 151.287 201.795 144.534 203.536C137.899 205.244 130.918 205.958 124.075 205.958C114.968 205.958 105.051 204.495 96.6354 200.931C91.4306 198.727 83.6395 194.185 83.6395 187.736C83.6395 182.542 87.3781 178.871 91.5911 176.427C97.1669 173.188 104.341 171.465 110.769 170.488L111.226 162.315L100.171 164.965C97.6877 165.561 96.1752 166.382 94.0526 167.748C93.0074 168.422 91.8373 168.943 90.6422 169.3C88.4269 169.967 85.9297 169.967 84.2174 168.194C84.064 168.037 83.9249 167.858 83.8072 167.673C83.1651 166.663 83.1365 165.44 83.4932 164.327C83.8072 163.349 84.4136 162.432 85.1521 161.719C85.4589 161.426 85.7906 161.163 86.1474 160.938C87.0891 160.338 88.1415 159.903 89.2081 159.582C90.7706 159.115 92.5008 158.847 94.1347 158.894C94.7268 158.912 95.3297 158.976 95.9112 159.111L111.618 155.348L111.675 154.306C104.701 153.354 97.3132 151.021 91.1488 147.756C86.8965 145.502 80.3076 141.171 79.9616 135.866L78.6987 109.921L76.8259 109.778C74.1325 109.614 72.438 107.124 72.4737 104.577C72.5165 101.595 74.7211 100.246 77.2254 99.6471L73.2407 72.0001C72.4309 66.3994 73.6224 59.254 80.5859 58.7759L82.5907 58.6404C81.5205 56.9566 80.9355 54.9232 80.8035 52.954C80.7821 52.6508 80.7714 52.3476 80.7714 52.0443C80.7714 50.1465 81.1923 48.1452 82.2019 46.5149C83.1758 44.9382 84.6883 43.7645 86.5897 43.6325C86.6825 43.629 86.7752 43.6218 86.8644 43.6218H107.202C109.175 43.6218 110.823 44.8169 111.932 46.3651C113.102 47.999 113.73 50.0538 113.866 52.0443C113.887 52.3262 113.898 52.6044 113.898 52.8827C113.898 54.1063 113.705 55.3727 113.277 56.5392L114.882 56.4286C117.683 56.236 120.044 57.2491 121.842 59.3967C123.519 61.3908 124.479 64.0806 125.135 66.5706L131.378 90.2578C131.538 90.2364 131.695 90.2186 131.852 90.2043C132.601 90.1258 133.358 90.083 134.114 90.0902L164.369 90.4612C169.491 90.5218 170.754 94.692 170.715 99.0264C170.701 100.439 169.877 101.392 168.485 101.631L161.775 102.786C160.969 102.925 160.145 102.943 159.332 102.883L154.448 102.501L152.664 110.709L163.455 111.673C164.9 111.801 166.466 112.101 167.747 112.807C169.267 113.645 170.226 114.919 170.779 116.531L170.786 116.546C170.801 116.585 170.808 116.617 170.818 116.653L174.507 131.282C175.135 133.758 174.743 136.344 173.398 138.524C171.985 140.814 168.225 143.097 165.407 144.442ZM124.536 110.014L122.649 107.299L119.295 107.852C119.295 107.984 119.299 108.112 119.302 108.241C119.342 109.568 118.46 110.542 117.223 110.856L117.208 110.859C117.173 110.866 117.144 110.874 117.108 110.881L109.888 112.122C109.225 112.236 108.547 112.24 107.876 112.186L105.796 112.015L105.372 113.97L124.536 110.014Z" fill="#F6F4F1"/>
</g>
<path fill-rule="evenodd" clip-rule="evenodd" d="M163.809 144.175C163.984 144.41 164.144 144.663 164.276 144.924C164.569 145.495 164.768 146.151 164.743 146.797L163.738 174.922L174.511 177.879C176.091 178.314 177.836 183.408 172.945 185.049L163.32 188.281C163.06 196.347 150.128 201.174 144.27 202.679C137.749 204.359 130.825 205.069 124.101 205.069C115.182 205.069 105.358 203.625 97.1065 200.129C92.4618 198.163 84.8027 193.871 84.8027 187.985C84.8027 183.234 88.3522 179.891 92.1907 177.661C97.8557 174.372 105.408 172.656 111.882 171.729L112.478 161.098L99.9283 164.105C97.2171 164.755 95.7581 165.557 93.4607 167.041C92.5046 167.655 91.4237 168.136 90.3392 168.458C88.5556 168.996 86.458 169.096 85.0667 167.651C84.9632 167.548 84.8741 167.434 84.7956 167.309C84.3354 166.592 84.3532 165.711 84.6065 164.926C84.8634 164.127 85.3664 163.371 85.9692 162.789C86.219 162.55 86.4936 162.332 86.7862 162.147C87.6352 161.608 88.6019 161.212 89.5616 160.923C90.9992 160.492 92.6259 160.242 94.1278 160.285C94.72 160.303 95.3478 160.367 95.9222 160.538L112.735 156.511L112.903 153.557C105.775 152.726 98.0091 150.335 91.7127 146.996C87.9456 145.002 81.4423 140.85 81.1283 136.062L79.8156 109.115L76.9224 108.886C74.8462 108.762 73.6155 106.774 73.644 104.841C73.6833 102.048 76.2125 101.167 78.5349 100.806L74.3968 72.0856C73.6904 67.1983 74.4824 60.5916 80.6896 60.1635L84.9169 59.8745C84.5138 59.5178 84.157 59.1111 83.8467 58.6759C82.7087 57.0849 82.0987 55.0586 81.9667 53.1251C81.9488 52.8468 81.9381 52.5722 81.9381 52.2939C81.9381 50.6101 82.3056 48.8122 83.1974 47.3638C83.9787 46.1045 85.1702 45.1235 86.6934 45.0201C86.7612 45.0165 86.829 45.0129 86.9003 45.0129H107.227C108.818 45.0129 110.138 46.0403 111.026 47.2818C112.072 48.7408 112.632 50.5958 112.753 52.3724C112.771 52.6257 112.778 52.8789 112.778 53.1322C112.778 54.6805 112.443 56.3321 111.618 57.6628C111.536 57.7983 111.444 57.9339 111.347 58.0659L114.986 57.8162C117.43 57.6485 119.431 58.5154 120.993 60.3775C122.545 62.2254 123.448 64.8082 124.058 67.1127L130.561 91.7809C131.036 91.6989 131.514 91.6382 131.995 91.5883C132.702 91.5169 133.415 91.4706 134.125 91.4813L164.38 91.8487C168.807 91.9022 169.631 95.6158 169.595 99.2652C169.588 100.121 169.167 100.61 168.314 100.756L161.608 101.912C160.894 102.033 160.163 102.048 159.446 101.994L153.571 101.538L151.298 111.979L163.377 113.06C164.651 113.171 166.092 113.435 167.219 114.055C168.486 114.751 169.263 115.803 169.727 117.166L169.734 117.18L173.426 131.81C173.979 133.99 173.63 136.262 172.453 138.174C171.026 140.486 166.57 143.005 163.809 144.175ZM126.48 111.03L123.202 106.307L118.175 107.138C118.19 107.602 118.172 108.062 118.186 108.526C118.211 109.314 117.679 109.821 116.955 110.003L116.941 110.007L109.721 111.248C109.15 111.348 108.568 111.348 107.998 111.298L104.919 111.045L103.906 115.693L126.48 111.03Z" fill="#010101"/>
<path d="M95.4094 142.566C96.5082 142.145 97.0861 141.731 97.3501 140.525L97.7639 138.613L94.4391 139.305L93.8327 142.077C93.7185 142.616 94.1252 143.055 95.4094 142.566ZM98.0992 137.079L100.232 127.269L96.9077 127.94L94.7709 137.768L98.0992 137.079ZM100.482 126.124L101.463 121.618L98.1349 122.307L97.1574 126.791L100.482 126.124ZM101.795 120.081L101.888 119.663L98.5665 120.327L98.4702 120.769L101.795 120.081ZM101.98 119.228L102.733 115.779C103.846 110.652 100.25 112.589 99.412 116.446L98.6593 119.892L101.98 119.228Z" fill="#F6F4F1"/>
<path d="M127.158 113.445C126.102 113.424 125.913 113.01 128.624 113.124C134.97 113.399 143.24 114.309 149.554 115.375C150.678 115.564 149.465 116.185 147.809 115.9C142.194 114.922 132.645 113.549 127.158 113.445ZM124.115 124.358C127.697 123.562 132.627 122.139 125.317 122.763C126.662 122.392 129.373 121.797 131.093 122.731C136.686 121.426 137.086 120.455 130.947 120.98C132.456 120.566 135.652 119.838 137.268 121.304C143.165 119.952 142.74 119.082 136.936 119.574C138.463 119.157 141.738 118.4 143.343 119.931C148.598 118.761 148.79 117.997 143.161 118.472C144.595 118.083 147.57 117.434 149.254 118.643C154.652 117.498 152.554 117.113 148.559 117.451C149.964 117.066 152.861 116.435 154.559 117.555C160.363 116.428 154.948 116.242 152.707 116.431C154.202 116.025 157.373 115.336 159.007 116.767C161.012 116.456 162.25 116.378 162.307 116.627C161.808 116.738 160.816 116.97 159.471 117.287C159.699 117.626 159.871 118.047 159.96 118.557L161.811 129.013C160.102 122.92 160.884 116.956 155.287 118.265C155.536 118.614 155.718 119.046 155.811 119.581L157.659 130.034C155.451 122.3 156.981 117.887 150.021 119.481C150.203 119.792 150.339 120.163 150.414 120.601L152.265 131.054C149.75 122.25 151.741 119.117 143.967 120.855C144.064 121.083 144.139 121.336 144.189 121.622L146.04 132.074C143.493 123.152 145.583 120.544 137.906 122.182C138.024 122.439 138.117 122.724 138.17 123.049L140.022 133.505C137.51 124.707 139.551 121.929 131.928 123.413C132.234 123.787 132.459 124.272 132.57 124.889L134.421 135.342L131.499 125.121C131.325 124.504 131.004 124.03 130.572 123.673C126.78 124.383 124.197 124.725 124.115 124.358ZM101.723 123.805L116.449 125.157C117.08 125.214 117.694 125.528 118.197 125.97C118.721 126.434 119.131 127.051 119.321 127.672L123.248 140.643C123.823 142.548 125.503 144.207 127.533 145.277C129.623 146.383 132.074 146.857 134.068 146.343L164.908 138.345C166.181 138.017 167.512 137.043 168.414 135.834C169.217 134.76 169.667 133.515 169.41 132.402L165.728 116.627C165.546 115.853 165.165 115.24 164.562 114.819C164.005 114.434 163.242 114.177 162.061 114.07L132.816 111.455C132.181 111.398 131.535 111.383 130.893 111.419C130.279 111.451 129.662 111.526 129.059 111.651L103.207 116.988L103.1 117.476L129.348 112.051C129.93 111.929 130.526 111.858 131.121 111.826C131.738 111.794 132.363 111.808 132.983 111.861L161.84 114.444C162.81 114.53 163.994 114.737 164.533 115.154C165.075 115.536 165.386 116.078 165.536 116.72L169.214 132.495C169.467 133.572 168.928 134.739 168.293 135.588C167.515 136.63 166.278 137.625 165.011 137.953L164.134 138.181L162.389 130.519C162.518 137.072 165.55 137.81 159.824 139.298L158.062 131.543C158.34 138.948 161.28 138.92 154.734 140.618L152.975 132.895C153.403 141.164 156.125 140.254 148.569 142.212L146.807 134.461C147.224 142.666 149.978 141.849 142.523 143.782L140.746 135.973C141.128 143.968 143.967 143.408 136.783 145.27L135.01 137.486C134.721 141.66 137.864 144.988 134.168 145.948C132.134 146.475 129.744 145.876 127.929 144.913C126.191 144 124.433 142.462 123.844 140.525L119.916 127.554C119.699 126.834 119.235 126.163 118.671 125.667C118.122 125.178 117.43 124.818 116.691 124.75L101.808 123.409L101.723 123.805ZM102.843 119.535C108.936 119.877 116.37 120.726 122.164 121.707C123.287 121.896 122.071 122.517 120.419 122.228C115.732 121.415 108.308 120.323 102.793 119.924L102.843 119.535ZM105.369 117.933C104.313 117.915 104.124 117.501 106.835 117.616C113.185 117.89 121.454 118.796 127.768 119.867C128.888 120.056 127.675 120.68 126.024 120.391C120.405 119.417 110.855 118.04 105.369 117.933ZM111.387 116.506C110.331 116.488 110.142 116.071 112.853 116.189C119.203 116.46 127.468 117.369 133.783 118.436C134.906 118.629 133.693 119.249 132.038 118.96C126.423 117.987 116.877 116.61 111.387 116.506ZM117.612 115.486C116.556 115.464 116.367 115.051 119.074 115.168C125.428 115.44 133.693 116.346 140.008 117.416C141.135 117.605 139.918 118.226 138.263 117.94C132.652 116.966 123.098 115.589 117.612 115.486ZM123.006 114.466C121.95 114.444 121.761 114.03 124.472 114.148C130.822 114.419 139.091 115.329 145.405 116.396C146.529 116.585 145.316 117.205 143.661 116.92C138.042 115.946 128.496 114.569 123.006 114.466Z" fill="#F6F4F1"/>
<path d="M103.5 125.457L113.199 126.345C113.831 126.405 114.441 126.716 114.944 127.158C115.008 127.212 115.065 127.269 115.126 127.329L117.901 126.684C117.844 126.627 117.783 126.562 117.719 126.509C117.323 126.159 116.852 125.917 116.385 125.874L104.499 124.779C103.418 124.657 99.4151 125.078 103.5 125.457ZM115.525 127.79C115.622 127.925 115.714 128.068 115.793 128.207L118.518 127.576C118.45 127.433 118.372 127.287 118.279 127.151L115.525 127.79ZM116.185 129.224L116.406 129.937L119.068 129.32L118.85 128.606L116.185 129.224ZM116.513 130.28L120.109 141.938C120.898 144.495 123.017 146.725 125.578 148.159C127.144 149.037 128.871 149.615 130.551 149.793C134.207 150.168 132.923 147.449 130.958 147.16C129.677 146.971 128.382 146.536 127.198 145.912C125.011 144.756 123.191 142.947 122.557 140.853L119.913 132.113C119.628 131.171 118.85 129.737 117.894 129.962L116.513 130.28ZM138.067 148.455L162.825 141.995C163.877 141.717 166.135 140.778 165.45 140.058C164.887 139.462 157.738 140.846 151.234 142.633C147.589 143.579 134.885 146.201 134.243 148.341C133.879 149.54 136.701 148.812 138.067 148.455ZM171.493 137.582C172.478 135.987 172.824 134.036 172.332 132.085L169.371 120.355C169.175 119.56 168.739 118.168 167.94 118.354L166.927 118.589L170.109 132.238C170.423 133.579 169.913 135.035 168.996 136.262C163.756 143.275 170.523 139.152 171.493 137.582ZM168.729 117.801L168.657 117.512C168.604 117.369 168.554 117.23 168.493 117.095L166.678 117.516L166.845 118.24L168.729 117.801ZM167.933 116.117C167.823 115.974 167.708 115.843 167.58 115.718L166.303 116.014C166.353 116.16 166.396 116.31 166.431 116.467L167.933 116.117ZM167.063 115.282C166.942 115.197 166.81 115.118 166.678 115.043C166.285 114.826 165.839 114.655 165.336 114.523C165.647 114.804 165.896 115.136 166.089 115.511L167.063 115.282Z" fill="#F6F4F1"/>
<path d="M114.087 152.579C120.865 153.129 131.856 151.549 142.212 149.269C161.069 144.549 152.418 145.452 133.922 150.279C131.193 150.992 127.968 150.328 125.228 148.787C122.517 147.268 120.266 144.892 119.42 142.149L115.386 129.071C115.236 128.585 114.915 128.1 114.501 127.726C114.719 127.99 114.9 128.297 114.993 128.618L119.028 141.881C119.945 144.888 122.363 147.339 125.025 148.852C126.84 149.883 128.984 150.6 131.121 150.696C129.206 150.999 127.29 151.27 125.367 151.488C121.867 151.887 118.058 152.198 114.519 151.952V151.934L113.787 151.859C106.646 151.124 98.7546 148.698 92.4297 145.299C92.3084 145.234 91.784 144.931 91.7947 144.767C91.8161 144.685 92.0872 144.571 92.1514 144.549L95.7866 143.254C97.2813 142.701 98.1054 141.963 98.4514 140.351L100.949 128.725C101.059 128.2 101.377 127.572 101.808 127.052C101.184 127.647 100.71 128.464 100.545 129.213L98.0518 140.675C97.7344 142.134 96.9995 142.748 95.651 143.24L92.0195 144.514C91.0598 144.849 91.2346 145.502 92.2406 146.001C98.3479 149.237 106.357 151.763 113.745 152.515L114.087 152.551V152.579Z" fill="#F6F4F1"/>
<path fill-rule="evenodd" clip-rule="evenodd" d="M123.006 148.545C121.593 147.649 120.269 146.44 119.246 144.985C115.732 141.774 103.182 141.681 98.9153 143.533C94.8984 145.281 105.658 148.099 112.685 149.205C118.011 150.04 125.257 150.097 123.006 148.545ZM115.5 138.842C112.425 138.189 106.842 137.515 102.515 137.875C100.378 138.053 99.6929 138.489 101.587 139.448C104.687 141.021 110.384 142.516 115.379 140.308C116.27 139.912 117.02 139.163 115.5 138.842ZM115.953 135.495L114.08 128.635C113.977 128.261 113.745 127.901 113.484 127.644C113.285 127.444 113.003 127.244 112.732 127.212L104.58 126.367C103.628 126.27 102.675 127.801 102.5 128.71L101.402 134.404C101.277 135.228 101.594 136.17 102.675 136.241C105.076 136.398 117.194 140.047 115.953 135.495Z" fill="#F6F4F1"/>
<path d="M147.142 112.015L149.579 100.82L146.864 111.451L135.323 110.959L147.142 112.015ZM132.591 99.5005L131.977 99.4541C132.034 100.703 131.76 101.834 131.2 102.761L131.192 102.768C131.995 101.862 132.516 100.738 132.591 99.5005ZM128.324 104.98C128.174 105.026 128.025 105.073 127.864 105.108L130.707 109.25L128.324 104.98Z" fill="#F6F4F1"/>
<path d="M150.078 112.279L150.417 110.72C150.574 109.999 150.556 109.714 150.014 109.825L148.9 110.046C148.469 110.131 148.258 110.281 148.084 111.084L147.866 112.083L150.078 112.279ZM150.331 108.929L148.961 109.215C148.33 109.347 148.002 109.807 148.911 109.625L150.285 109.354C150.866 109.24 151.184 108.754 150.331 108.929ZM151.316 106.589L151.619 105.198C152.307 102.03 150.049 102.051 149.354 105.241L148.979 106.978C148.854 107.549 148.826 107.773 149.421 107.652L150.467 107.434C150.859 107.352 151.226 106.978 151.316 106.589Z" fill="#F6F4F1"/>
<path d="M90.1507 48.1233C89.2731 46.8997 88.1387 46.1399 86.9543 46.1399H86.9293C86.8723 46.1399 86.8187 46.1435 86.7688 46.147C85.7271 46.2148 84.8139 46.8926 84.1575 47.9557C83.4761 49.0616 83.0695 50.5812 83.0695 52.2936C83.0695 52.5469 83.0766 52.8001 83.0944 53.0499C83.2193 54.8692 83.7794 56.5245 84.5927 57.7695C83.8186 56.446 83.4012 54.8585 83.2978 53.3531C83.2835 53.0998 83.2728 52.8429 83.2728 52.5897C83.2728 51.1342 83.5725 49.5289 84.3466 48.2767C84.8531 47.4562 85.6237 46.7142 86.6332 46.6429C86.676 46.6393 86.7153 46.6393 86.7617 46.6393H86.7866C87.996 46.6393 89.0198 47.5704 89.6798 48.4943C90.7 49.9177 91.2351 51.762 91.3528 53.4958C91.3707 53.7491 91.3778 54.0023 91.3778 54.2592C91.3778 55.7111 91.0817 57.32 90.3076 58.5721C90.1043 58.9003 89.8581 59.2178 89.5727 59.4818C90.0222 59.1714 90.4218 58.7291 90.7571 58.1904C91.4385 57.081 91.8451 55.5613 91.8451 53.8489C91.8451 53.5957 91.838 53.3459 91.8202 53.0962C91.6882 51.152 91.0568 49.3933 90.1507 48.1233Z" fill="#F6F4F1"/>
<path d="M110.881 56.6814C111.366 55.7218 111.648 54.4946 111.648 53.1319C111.648 52.9036 111.641 52.6717 111.627 52.447C111.505 50.6811 110.935 49.0865 110.111 47.9343C109.315 46.8248 108.291 46.1399 107.228 46.1399H90.2048C88.1179 46.1399 90.1013 46.8819 91.0003 46.8748C94.7353 46.8534 95.7913 46.9069 96.3228 52.0902C96.5297 54.0915 96.28 56.1606 95.7984 57.7802C96.8936 56.3211 97.3288 54.1379 97.1611 51.9868C97.0113 50.0747 96.4227 48.2054 95.5915 46.8783C97.8318 46.8783 98.3526 50.0604 98.5595 51.919C98.7878 53.9346 98.5132 56.0143 97.9888 57.6482C99.1232 56.1784 99.5905 53.9809 99.3979 51.8155C99.2338 49.9891 98.6451 48.1947 97.8318 46.8783C100.026 46.8783 100.557 49.8606 100.796 51.7478C101.05 53.7705 100.753 55.8716 100.201 57.509C101.363 56.0322 101.849 53.8168 101.627 51.6443C101.449 49.8927 100.857 48.1804 100.061 46.8783C102.063 46.8783 102.594 49.9819 102.819 51.6265C103.101 53.6777 102.787 55.811 102.205 57.4734C103.397 55.9751 103.903 53.7241 103.65 51.5159C103.458 49.8285 102.865 48.1733 102.088 46.8783C103.868 46.8783 104.421 50.0069 104.635 51.441C104.945 53.5029 104.628 55.6469 104.035 57.32C105.241 55.811 105.751 53.5493 105.459 51.334C105.252 49.7251 104.67 48.1447 103.918 46.8783C105.601 46.8783 106.226 49.9712 106.451 51.3233C106.786 53.3388 106.475 55.4435 105.876 57.081C107.086 55.6041 107.592 53.3888 107.275 51.2162C107.046 49.6502 106.436 48.1162 105.662 46.8783H107.189C110.628 46.8783 112.18 53.2746 110.881 56.6814ZM91.9029 57.4983C91.7495 57.8836 91.5711 58.2403 91.3677 58.565C91.0324 59.1108 90.6329 59.571 90.1834 59.9241L105.965 58.8397L90.879 59.5638C91.3321 58.9574 91.671 58.2582 91.9029 57.4983Z" fill="#F6F4F1"/>
<path d="M90.1545 101.06L85.838 71.2115C85.335 67.7262 85.4349 62.9245 88.7133 60.7449L80.7652 61.2907C75.3393 61.6545 74.9112 67.744 75.5141 71.9285L79.6843 100.856L76.2454 71.8607C76.0099 70.2198 75.9207 68.1899 76.306 66.392C76.784 64.1767 80.6974 65.8961 84.0365 64.8545C82.4276 64.9008 76.916 64.5905 77.5403 63.5952C78.1789 62.5785 79.3846 62.0256 80.9329 61.9185C84.1649 61.6974 86.8904 61.6331 86.2375 62.8353C85.8237 63.5881 85.5918 64.4299 85.3707 65.2861C85.1994 65.9496 82.4526 66.1958 79.563 66.3742C82.8343 66.6453 85.2315 65.8783 85.1709 66.6774C85.0532 68.2613 85.1495 69.8844 85.3564 71.3149L90.0582 101.049L90.1545 101.06Z" fill="#F6F4F1"/>
<path d="M90.928 60.5915C89.1193 60.7163 87.8065 62.0149 87.0895 63.9056C86.3047 65.9853 86.2119 68.7679 86.5508 71.108L90.8852 101.067L91.802 101.077L87.5675 71.479C87.2536 69.303 87.3 66.5704 88.0741 64.5049C88.3488 63.7771 88.734 63.0922 89.2513 62.5642C88.6556 63.8627 88.6342 65.7534 89.0337 67.9438L94.2313 96.4327C94.6487 98.73 95.6404 100.039 96.9568 100.489L90.2216 64.9365C89.9255 63.6844 90.8495 61.6117 92.1337 61.5047L114.126 59.9815C116.47 59.8209 117.148 60.7021 118.5 62.7355C119.474 64.1945 120.205 65.9211 120.637 67.6156L130.026 99.8859L121.686 67.348C121.225 65.5465 120.444 63.7022 119.403 62.1397C118.921 61.4155 118.382 60.752 117.794 60.1777C118.65 60.4916 119.403 61.0481 120.066 61.8472C121.436 63.4989 122.246 65.9175 122.781 67.9723L130.836 98.8549C130.904 99.1117 130.957 99.3722 130.993 99.6361C131.093 100.3 131.089 100.988 130.939 101.645C131.253 100.813 131.346 99.8466 131.193 98.7978C131.153 98.5196 131.096 98.2413 131.021 97.9595L122.966 67.398C122.292 64.8402 121.404 62.6249 120.127 61.1016C118.885 59.6212 117.259 58.79 115.061 58.9398L90.928 60.5915Z" fill="#F6F4F1"/>
<path d="M98.8619 104.195L99.208 108.647C99.2864 109.675 99.7431 110.003 100.121 108.972L101.655 104.805C101.973 103.931 101.488 103.392 100.696 103.36L99.5041 103.318C99.1438 103.307 98.8334 103.835 98.8619 104.195ZM101.933 108.704L103.489 104.463C104.074 102.872 102.872 103.582 102.536 104.488L101.024 108.604C100.428 110.231 101.445 110.038 101.933 108.704ZM104.62 109.906L106.571 110.056C107.845 110.238 108.522 108.676 108.041 106.764C107.673 105.305 106.888 104.117 105.315 103.667L103.507 108.601C103.221 109.378 103.724 109.835 104.62 109.906Z" fill="#F6F4F1"/>
<path d="M108.922 102.005L102.75 102.718L104.092 102.765C105.618 102.818 106.699 103.314 107.448 104.095L114.729 102.9C115.065 102.843 115.204 102.676 114.776 102.469C114.248 102.219 113.616 102.062 112.839 102.051L108.922 102.005ZM108.512 104.688L115.493 103.507C116.221 103.382 115.939 103.114 115.311 103.214L108.273 104.374C107.423 104.513 107.766 104.816 108.512 104.688ZM109.799 106.764L115.789 105.786C116.948 105.594 116.738 104.802 115.525 105.009L109.614 105.997C108.248 106.229 108.647 106.956 109.799 106.764ZM108.986 108.273C109.089 109.172 109.496 110.064 110.588 109.885L115.985 109.011C116.684 108.915 117.091 108.483 117.07 107.62C117.041 106.468 117.002 106.264 116.271 106.382L109.621 107.492C109.1 107.577 108.922 107.731 108.986 108.273Z" fill="#F6F4F1"/>
<path d="M98.0101 102.551L103.29 101.937L81.8393 101.673C80.9225 101.662 79.8737 101.752 78.9319 101.884L98.0101 102.551Z" fill="#F6F4F1"/>
<path d="M98.5446 109.436L98.0666 103.271L77.0692 102.536C75.6208 102.519 74.7896 103.482 74.7718 104.859C74.7504 106.172 75.5423 107.677 76.9942 107.763L93.0509 109.008L77.0264 107.559C75.7956 107.488 75.1642 106.154 75.1785 105.066C75.1963 103.896 75.8634 103.136 77.062 103.15L97.6885 103.871L98.5446 109.436Z" fill="#F6F4F1"/>
<path d="M151.266 95.8048L151.466 99.0832C151.505 99.654 152.068 100.289 152.636 100.335L158.233 100.767C159.574 100.87 160.006 100.164 159.899 99.0974C159.72 97.2781 159.207 95.5907 157.694 94.8166L156.403 98.1735C156.025 99.1474 156.542 99.5969 157.894 99.5612C158.718 99.5362 159.035 99.3222 158.957 98.5088C158.846 97.403 158.604 96.4219 158.04 95.7406C158.978 96.5218 159.342 97.8346 159.496 99.3436C159.588 100.289 159.214 100.639 158.265 100.567L152.668 100.128C152.3 100.103 151.901 99.6218 151.876 99.2651L151.672 95.9831C151.658 95.7548 151.812 94.8416 152.118 94.8523L152.368 94.8594C152.257 95.1056 152.204 95.4802 152.211 95.6121L152.386 98.4375C152.418 98.9191 152.996 99.6932 153.435 98.5552L154.68 95.3089C154.83 94.9094 154.312 94.3172 153.884 94.3029L152.133 94.2423C151.54 94.2173 151.226 95.2126 151.266 95.8048ZM156.306 94.4099C156.146 94.3885 155.982 94.3743 155.811 94.3707L153.938 99.2544L154.43 99.2937L156.306 94.4099Z" fill="#F6F4F1"/>
<path d="M160.97 92.9331L155.308 93.6323L155.829 93.6501C157.531 93.7108 158.697 94.3351 159.454 95.2876L166.399 94.1353C166.835 94.0604 166.952 93.8428 166.653 93.618C166.093 93.2042 165.333 92.9866 164.37 92.9759L160.97 92.9331ZM161.091 96.0117L167.163 95.0057C168.197 94.8345 167.623 94.3422 166.838 94.4706L160.809 95.4731C159.25 95.7477 159.85 96.2329 161.091 96.0117ZM161.512 97.692L167.263 96.7359C168.279 96.5254 168.229 96.2507 167.198 96.4576L161.462 97.4101C160.456 97.5742 160.524 97.8561 161.512 97.692ZM160.656 99.679C160.752 100.342 161.055 100.781 162.054 100.621L167.434 99.7503C168.326 99.6041 168.504 99.069 168.486 98.4233C168.468 97.8168 168.408 97.6384 168.09 97.692L161.038 98.8656C160.742 98.9013 160.567 99.0226 160.656 99.679Z" fill="#F6F4F1"/>
<path d="M150.742 93.4718L155.632 92.8689L134.111 92.6049C133.483 92.5978 132.787 92.6406 132.109 92.7084C131.863 92.7333 131.617 92.7654 131.378 92.794L150.742 93.4718Z" fill="#F6F4F1"/>
<path d="M150.816 100.192L150.445 94.1815L130.586 93.4858L131.717 97.7774C131.799 98.0877 131.866 98.4052 131.909 98.7298L144.859 99.7323L132.084 98.4409L131.028 94.3242L149.853 94.9841L150.816 100.192Z" fill="#F6F4F1"/>
<path d="M163.01 163.695L163.021 163.424L132.06 170.915L130.376 157.356C137.24 156.079 134.65 158.351 136.555 166.249L135.531 156.343C141.888 155.03 139.451 157.969 141.264 165.279L140.236 155.333C145.748 154.099 143.625 158.133 145.266 164.412L144.235 154.413C149.476 153.178 147.467 157.598 149.055 163.549L148.017 153.499C152.387 152.426 150.781 157.912 152.194 162.792L151.152 152.715C155.426 151.627 153.885 157.377 155.28 162.143L154.22 151.923C158.091 150.913 156.749 157.103 158.066 161.387L157.01 151.188C160.588 150.235 159.371 156.542 160.634 160.495L159.6 150.492L160.859 150.15C161.044 150.096 161.615 149.918 161.918 149.729C161.508 149.704 160.795 149.864 160.577 149.925C160.242 150.014 159.907 150.103 159.571 150.196L159.453 149.08L160.723 148.733C163.024 148.106 162.621 147.068 160.224 147.72L159.3 147.97C159.132 147.335 158.765 146.796 158.266 146.361C159.578 145.951 160.884 145.512 162.314 144.981C162.557 145.237 162.764 145.526 162.928 145.84C163.096 146.172 163.242 146.579 163.224 146.961V157.723L163.617 146.757C163.631 146.354 163.506 145.89 163.271 145.437C163.064 145.034 162.771 144.635 162.407 144.289C157.367 146.194 150.039 148.277 142.369 149.968C137.079 151.134 131.621 152.115 126.63 152.729C127.226 153.054 127.736 153.464 128.15 153.945C128.892 154.802 129.341 155.875 129.488 157.078L131.264 171.422L163.01 163.695ZM130.28 156.671C130.041 155.287 133.54 155.308 134.725 155.066L134.846 155.808C133.326 156.1 131.803 156.389 130.28 156.671ZM135.467 155.686C135.32 154.27 138.263 154.324 139.426 154.067L139.558 154.869C138.196 155.148 136.829 155.419 135.467 155.686ZM140.175 154.741C140.029 153.346 141.899 153.51 143.425 153.157L143.568 154.027C142.437 154.27 141.306 154.509 140.175 154.741ZM144.182 153.895C144.028 152.411 145.584 152.65 147.203 152.251L147.36 153.196C146.301 153.432 145.241 153.667 144.182 153.895ZM147.97 153.057C147.813 151.541 148.68 151.891 150.339 151.47L150.503 152.472C149.661 152.672 148.816 152.864 147.97 153.057ZM151.113 152.329C150.949 150.756 151.68 151.134 153.403 150.688L153.571 151.734C152.754 151.937 151.933 152.133 151.113 152.329ZM154.188 151.584C154.024 150.003 154.47 150.41 156.193 149.954L156.368 151.034C155.64 151.22 154.916 151.402 154.188 151.584ZM156.978 150.877C156.817 149.301 157.088 149.718 158.793 149.258L158.975 150.353C158.308 150.531 157.645 150.706 156.978 150.877ZM158.608 148.156C155.633 148.944 157.356 148.587 155.586 147.16C156.254 146.971 156.899 146.782 157.538 146.586C158.048 146.989 158.444 147.546 158.608 148.156ZM155.972 148.841C152.875 149.632 154.584 149.386 152.825 147.938C153.236 147.827 153.639 147.717 154.049 147.603L154.834 147.378C155.347 147.742 155.765 148.263 155.972 148.841ZM153.164 149.543C149.946 150.335 151.58 150.25 149.893 148.723C150.621 148.534 151.345 148.341 152.065 148.145C152.554 148.502 152.954 148.994 153.164 149.543ZM150.114 150.278C146.904 151.034 148.455 151.042 146.772 149.49C147.56 149.304 148.348 149.112 149.137 148.912C149.579 149.272 149.932 149.754 150.114 150.278ZM146.961 151.002C143.564 151.769 144.856 152.083 142.987 150.36C143.996 150.139 144.999 149.911 146.005 149.672C146.436 150.028 146.779 150.492 146.961 151.002ZM143.165 151.837C139.708 152.579 140.91 152.975 138.963 151.202C140.047 150.988 141.128 150.763 142.205 150.528C142.633 150.877 142.976 151.334 143.165 151.837ZM139.152 152.675C135.395 153.442 136.419 154.017 134.161 152.094C135.495 151.866 136.829 151.619 138.16 151.363C138.599 151.705 138.955 152.169 139.152 152.675ZM134.428 153.617C130.836 154.309 131.05 155.333 128.189 152.996C129.898 152.772 131.61 152.515 133.319 152.237C133.811 152.583 134.211 153.068 134.428 153.617Z" fill="#F6F4F1"/>
<path d="M160.531 175.799C160.981 175.678 161.245 175.592 161.609 175.261L161.227 175.161L161.73 166.21C161.587 166.128 161.434 166.064 161.263 166.018L161.223 175.161L160.571 174.993L161.081 165.975C160.931 165.95 160.774 165.936 160.61 165.936L160.567 174.989L159.918 174.822L160.417 165.939C160.267 165.946 160.114 165.964 159.953 165.996L159.914 174.822L159.261 174.651L159.747 166.039L159.729 166.043L159.293 166.15L159.258 174.651L158.605 174.483L159.072 166.207L158.641 166.31L158.605 174.483L157.952 174.312L158.398 166.367L157.981 166.471L157.949 174.312L157.296 174.14L157.724 166.531L157.324 166.631L157.292 174.14L156.639 173.973L157.05 166.695L156.668 166.788L156.639 173.973L155.983 173.802L156.375 166.859L156.012 166.949L155.983 173.802L155.33 173.634L155.701 167.024L155.355 167.109L155.327 173.634L154.674 173.463L155.027 167.188L154.695 167.27L154.67 173.463L154.017 173.291L154.356 167.352L154.042 167.43L154.017 173.291L153.365 173.124L153.678 167.516L153.386 167.587L153.361 173.124L152.708 172.956L153.004 167.68L152.73 167.748L152.705 172.953L152.052 172.785L152.334 167.844L152.073 167.908L152.052 172.781L151.399 172.614L151.656 168.008L151.413 168.065L151.395 172.614L150.743 172.442L150.985 168.172L150.757 168.226L150.739 172.442L150.09 172.275L150.311 168.336L150.104 168.386L150.083 172.271L149.433 172.103L149.637 168.5L149.444 168.547L149.43 172.103L148.777 171.936L148.962 168.665L148.788 168.707L148.773 171.936L148.124 171.765L148.288 168.829L148.131 168.868L148.117 171.765L147.468 171.593L147.61 168.993L147.475 169.025L147.464 171.593L146.808 171.426L146.94 169.157L146.818 169.185L146.808 171.422L146.155 171.254L146.266 169.321L146.162 169.346L146.155 171.254L145.499 171.083L145.591 169.485L145.506 169.506L145.499 171.083L144.846 170.916L144.917 169.649L144.849 169.667L144.842 170.916L144.189 170.744L144.243 169.813L144.193 169.828L144.189 170.744L143.536 170.573L143.569 169.977L143.536 169.988L143.533 170.573L142.88 170.405L142.898 170.141L142.88 170.145V170.405L142.359 170.27L159.9 175.093C160.745 175.311 161.006 175.525 160.531 175.799ZM136.655 171.658L135.26 172.103L138.15 171.754L133.687 173.192L138.146 172.36L132.966 174.033L138.143 172.938L132.524 174.772L138.139 173.555L132.235 175.482L138.132 174.13L132.067 176.124L138.132 174.715L131.996 176.748L138.125 175.289L132.003 177.351L138.125 175.906L132.071 177.947L138.118 176.481L132.142 178.539L138.114 177.108L132.221 179.142L138.111 177.679L132.292 179.745L138.107 178.3L132.371 180.355L138.103 178.874L132.438 180.908C132.492 181.264 137.451 179.616 138.1 179.424L132.635 181.468C132.774 181.71 137.486 180.18 138.096 179.998L133.045 181.992C134.854 181.525 136.213 181.154 138.093 180.612L158.095 174.882L138.257 179.952L156.679 174.508L138.26 179.377L155.662 174.233L138.264 178.824L154.681 173.973L138.267 178.25L153.661 173.702L138.271 177.633L152.565 173.413L138.278 177.059L151.545 173.138L138.282 176.431L150.432 172.842L138.285 175.856L149.408 172.571L138.289 175.239L148.313 172.278L138.292 174.665L147.293 172.007L138.296 174.08L146.251 171.729L138.3 173.505L145.235 171.458L138.303 172.892L144.136 171.165L138.307 172.31L143.119 170.894L138.31 171.708L142.049 170.609L136.655 171.658ZM161.88 174.968L161.905 174.94L162.365 166.774C162.237 166.603 162.087 166.449 161.919 166.328L161.88 174.968ZM162.543 173.67C162.625 173.388 162.672 173.106 162.686 172.838L162.868 168.739C162.893 168.137 162.797 167.577 162.568 167.116L162.543 173.67Z" fill="#F6F4F1"/>
<path d="M163.846 175.688L162.775 175.935L163.346 176.067L162.815 176.224L163.667 176.127L164.431 176.323L162.843 176.798L164.78 176.416L165.544 176.62L162.875 177.415L165.826 176.691L166.578 176.887L162.907 177.989L166.91 176.976L167.663 177.172L162.936 178.592L167.955 177.251L168.701 177.444L162.968 179.17L169.068 177.543L169.814 177.736L163 179.787L170.11 177.815L170.852 178.007L163.029 180.362L171.166 178.089L171.908 178.286L163.061 180.947L172.211 178.364L172.942 178.56L147.789 186.669L162.904 180.997L146.141 186.237L162.872 180.408L144.882 185.902L162.843 179.834L143.59 185.659L162.811 179.217L142.335 185.374L162.779 178.639L141.015 185.167L162.747 178.036L139.905 184.867L162.718 177.461L138.667 184.643L162.686 176.844L137.501 184.332L162.654 176.274L136.22 184.05L158.823 177.033L134.461 183.815L147.186 187.229C148.524 187.578 149.33 187.671 150.586 187.175L173.199 179.698C174.58 179.242 174.277 178.393 172.814 178.014L163.846 175.688Z" fill="#F6F4F1"/>
<path d="M130.544 171.468L128.774 157.163C128.642 156.104 128.25 155.162 127.608 154.413C127.012 153.728 126.199 153.204 125.171 152.897C124.9 152.925 124.633 152.954 124.369 152.982L126.973 167.038C127.123 167.844 127.412 168.575 127.8 169.2C127.497 168.643 127.29 168.037 127.173 167.409L124.608 153.571C124.79 153.553 124.972 153.532 125.153 153.51C126.038 153.782 126.841 154.249 127.451 154.955C128.097 155.701 128.45 156.625 128.571 157.595L130.544 171.468Z" fill="#F6F4F1"/>
<path d="M145.591 187.743L132.103 184.09L130.904 174.383C130.761 173.241 130.13 172.178 129.213 171.611C128.728 171.308 128.286 170.948 127.9 170.523C127.105 169.642 126.513 168.5 126.267 167.166L123.955 154.723C123.655 153.089 120.02 153.232 120.43 155.023L127.344 185.246C127.654 186.601 129.213 187.586 130.469 187.925L145.345 191.924C148.295 192.719 147.831 188.349 145.591 187.743Z" fill="#F6F4F1"/>
<path fill-rule="evenodd" clip-rule="evenodd" d="M134.317 187.525L135.84 185.456L134.01 184.999L132.516 187.029C132.291 187.332 131.774 187.397 131.41 187.297L130.725 187.115C129.544 186.797 128.039 185.859 127.746 184.589L121.018 155.176C120.89 154.609 120.504 154.438 120.686 155.237L127.543 185.203C127.835 186.473 129.341 187.407 130.522 187.725L145.633 191.834C145.893 191.906 146.564 191.759 146.71 191.453L142.957 190.447C142.551 190.336 142.668 190.09 142.775 189.951L144.309 187.864L143.639 187.693L142.115 189.762C141.962 189.969 141.634 190.09 141.384 190.022L139.08 189.409C138.552 189.269 138.716 189.002 138.841 188.831L140.382 186.737L139.183 186.412L137.588 188.574C137.435 188.788 137.085 188.873 136.832 188.806L136.215 188.649C135.387 188.428 135.609 188.106 135.78 187.871L137.26 185.863L136.59 185.691L135.07 187.753C134.638 188.345 133.721 188.335 134.317 187.525Z" fill="#010101"/>
<path d="M126.77 185.823C125.625 185.888 124.473 185.923 123.327 185.923C118.522 185.923 114.163 185.36 111.002 184.45C107.713 183.501 105.676 182.138 105.676 180.586C105.676 180.294 105.748 180.012 105.88 179.737C105.73 179.966 105.608 180.208 105.541 180.476C105.837 179.01 107.717 177.558 109.921 176.641C108.391 176.916 106.29 177.329 104.221 178.004C106.718 177.13 109.397 176.538 111.862 176.134L112.026 176.448L112.083 175.482C107.314 176.245 103.272 177.476 100.432 179.013C97.6889 180.501 96.0907 182.249 96.0907 184.1V186.547C96.0907 187.211 96.294 187.86 96.6793 188.485C96.4367 188.003 96.2976 187.496 96.2976 186.958V184.507C96.2976 182.32 98.6663 180.629 100.404 179.67C90.8039 186.48 106.6 190.447 112.047 190.233C105.644 189.619 100.75 187.04 103.942 186.833C106.361 186.676 108.348 185.456 107.71 183.769C108.83 184.393 110.121 184.814 110.945 185.056C116.057 186.408 122.264 186.647 126.966 186.237C126.891 186.102 126.827 185.966 126.77 185.823ZM144.528 192.448L130.284 188.617C129.321 188.36 128.279 187.8 127.548 187.018C128.25 188.164 129.545 188.87 130.69 189.141L144.528 192.448Z" fill="#F6F4F1"/>
<path d="M95.2381 164.291C96.1157 163.446 96.6401 162.661 96.5081 162.215C96.4938 162.176 96.476 162.136 96.4546 162.104C96.1799 161.673 95.2738 161.444 94.0966 161.412C93.458 161.394 92.7481 161.434 92.0204 161.541C92.5091 161.491 92.9836 161.473 93.4188 161.483C94.5282 161.516 95.3773 161.73 95.6377 162.136C95.6555 162.168 95.6733 162.2 95.684 162.24C95.8089 162.661 95.3202 163.396 94.4926 164.191C93.8932 164.769 93.1191 165.361 92.263 165.871C91.4139 166.389 90.4864 166.824 89.5839 167.095C88.0535 167.555 86.5873 167.541 85.699 166.62L85.6919 166.613C85.7062 166.645 85.7276 166.674 85.7454 166.702C85.7811 166.763 85.8275 166.817 85.881 166.874C86.8299 167.858 88.3888 167.869 90.0155 167.38C90.9751 167.091 91.9633 166.628 92.8658 166.082C93.7755 165.532 94.5996 164.908 95.2381 164.291ZM97.1966 162.008L97.2358 162.143L117.588 157.324C120.035 156.842 115.75 156.946 114.473 157.249L96.8541 161.473C96.9362 161.548 97.004 161.63 97.061 161.719C97.1217 161.812 97.1645 161.908 97.1966 162.008ZM97.828 163.114C98.3168 163.399 99.1515 163.135 100.989 162.693L112.344 159.974C113.485 159.7 114.577 159.325 115.508 158.926L97.828 163.114ZM93.2868 162.507C92.1238 162.026 87.7574 164.041 87.3828 165.921C87.1331 167.166 88.4102 165.418 90.1761 164.234C91.7528 163.182 93.8718 162.75 93.2868 162.507ZM90.9109 161.712C89.9477 161.312 86.334 162.982 86.0237 164.537C85.8203 165.568 86.8763 164.12 88.3353 163.142C89.641 162.268 91.3925 161.915 90.9109 161.712Z" fill="#F6F4F1"/>
<path d="M113.855 156.66L114.907 156.407C115.018 154.413 113.976 156.2 113.855 156.66ZM117.098 155.882L118.043 155.658C118.111 153.977 117.187 154.288 117.098 155.882ZM119.131 155.397L119.745 155.247C119.602 154.894 119.167 154.541 119.131 155.397ZM114.187 169.524L114.626 161.476C114.676 160.606 113.634 160.656 113.584 161.558L113.163 169.025C113.092 170.316 114.098 171.133 114.187 169.524ZM117.48 169.713L117.822 161.18C117.936 158.319 116.927 158.993 116.802 161.287L116.345 169.577C116.235 171.554 117.394 171.828 117.48 169.713ZM120.687 171.222C122.716 171.183 123.134 170.063 122.388 166.813L121.011 160.788C120.287 157.634 119.017 158.305 118.903 161.13L118.56 169.699C118.539 170.641 118.489 171.265 120.687 171.222Z" fill="#F6F4F1"/>
<path d="M123.534 171.822C123.149 171.857 122.749 171.882 122.339 171.904C121.789 171.929 121.237 171.943 120.687 171.943C118.475 171.943 116.467 171.736 115.008 171.397C114.187 171.205 113.52 170.958 113.071 170.669L112.75 176.441C112.643 178.371 111.644 180.501 109.521 180.494C110.567 180.901 112.785 179.852 112.953 176.859L113.256 171.419C113.667 171.629 114.137 171.786 114.583 171.907L114.177 179.977C114.12 181.075 113.428 182.656 112.746 183.255C112.261 183.68 113.474 183.722 113.97 183.722C116.331 183.722 119.282 182.763 119.399 180.44L119.799 172.546C120.006 172.549 120.213 172.553 120.42 172.553L120.016 180.465C119.963 181.507 119.588 182.638 118.814 183.476C118.176 184.165 118.518 184.215 119.414 183.829C120.591 183.323 121.515 182.067 121.59 180.519L121.996 172.532L122.346 172.514C122.688 172.499 123.031 172.478 123.377 172.45L126.577 185.114L123.534 171.822ZM111.305 178.771C111.594 178.307 111.804 177.786 111.922 177.216C110.242 177.647 108.869 178.172 107.898 178.753C106.939 179.335 106.4 179.959 106.4 180.587C106.4 180.861 106.5 181.14 106.689 181.407C106.632 181.272 106.603 181.136 106.603 180.997C106.603 180.283 107.463 179.663 108.005 179.338C109.075 178.692 110.246 178.264 111.476 177.936C111.462 178.225 111.408 178.496 111.305 178.771Z" fill="#F6F4F1"/>
<path d="M81.4598 119.66L81.5989 122.535L84.888 121.272L82.1162 122.721C81.4954 123.045 81.2778 123.498 82.1518 123.056L91.5982 118.286L82.3801 123.712C81.606 124.169 81.3884 125.475 82.5157 124.797L97.6199 115.707C99.7175 114.444 97.8054 111.897 96.7744 112.361L88.0629 116.267L94.8801 111.191C96.5069 109.982 94.5591 110.003 93.1821 110.898L82.3552 117.94C81.8129 118.293 81.4241 119.014 81.4598 119.66ZM82.6441 127.925L97.042 119.638C97.9659 119.11 98.9291 117.437 97.0955 118.54L82.6441 127.24C81.6916 127.811 81.2814 128.714 82.6441 127.925ZM82.0163 130.811L82.2553 134.978C82.3195 135.98 82.6227 136.526 83.4075 136.095L92.2724 131.257L83.5716 136.751C82.1162 137.664 84.2815 141.224 86.3007 140.058L93.7101 135.784C94.3165 135.435 94.6875 134.696 94.8338 134.011L97.3166 122.606C97.6627 121.008 97.652 120.031 96.0467 120.965L83.115 128.482C82.373 128.91 81.9663 129.952 82.0163 130.811ZM87.8132 142.769C88.7336 143.358 89.6468 143.771 90.4602 143.911C91.2129 144.039 91.8729 143.928 92.3509 143.486C92.7005 143.161 92.968 142.655 93.125 141.931L93.917 138.296C94.1417 137.268 93.9419 136.48 93.0608 136.99L86.6681 140.679C85.9011 141.121 86.3863 141.867 87.8132 142.769ZM89.8537 109.482C85.2875 109.486 82.4943 111.647 81.6524 115.275C81.3313 116.663 81.1779 117.873 82.2517 117.152L91.8693 110.895C93.7422 109.757 92.2653 109.479 89.8537 109.482Z" fill="#F6F4F1"/>
<path fill-rule="evenodd" clip-rule="evenodd" d="M122.741 103.642C122.941 103.378 123.045 102.793 123.048 102.579C123.012 102.083 122.923 101.587 122.809 101.102L113.88 62.9314C113.809 62.6174 113.712 62.3035 113.573 62.0181C113.11 61.0977 112.228 61.3617 112.539 61.6756C112.721 61.854 112.856 62.0645 112.967 62.2928C113.085 62.5425 113.163 62.8136 113.227 63.0812L122.559 101.066C122.663 101.516 122.752 101.98 122.784 102.443C122.813 102.843 122.806 103.246 122.741 103.642ZM104.227 101.131H104.484L95.8863 64.3619C95.8114 64.0444 95.7151 63.734 95.5796 63.4451C95.1158 62.5247 94.2311 62.7887 94.545 63.1026C94.7234 63.281 94.8625 63.495 94.9695 63.7233C95.0873 63.973 95.1693 64.2441 95.2299 64.5117L104.227 101.131ZM107.766 101.173L108.019 101.177L99.3609 64.155C99.2896 63.841 99.1933 63.5307 99.0577 63.2417C98.5904 62.3213 97.7057 62.5889 98.0232 62.8993C98.2016 63.0776 98.3407 63.2881 98.4477 63.52C98.5654 63.7697 98.6439 64.0408 98.7081 64.3048L107.766 101.173ZM111.098 101.213L111.347 101.216L102.636 63.9516C102.561 63.6377 102.465 63.3273 102.329 63.0348C101.862 62.118 100.981 62.382 101.291 62.6923C101.473 62.8743 101.612 63.0848 101.719 63.3166C101.837 63.5663 101.919 63.8339 101.979 64.1014L111.098 101.213ZM114.315 101.423C114.404 101.448 114.494 101.473 114.576 101.502L105.704 63.5449C105.629 63.231 105.532 62.9171 105.397 62.6281C104.93 61.7113 104.045 61.9753 104.359 62.2857C104.541 62.464 104.68 62.6781 104.787 62.9064C104.905 63.1561 104.987 63.4272 105.047 63.6948L114.315 101.423ZM117.426 104.049C117.626 103.785 117.729 103.2 117.733 102.989C117.694 102.49 117.604 101.997 117.49 101.509L108.568 63.3416C108.493 63.0241 108.393 62.7137 108.258 62.4248C107.794 61.5044 106.909 61.772 107.223 62.0823C107.402 62.2607 107.544 62.4712 107.648 62.6995C107.766 62.9528 107.848 63.2239 107.912 63.4914L117.244 101.473C117.348 101.926 117.433 102.386 117.465 102.85C117.497 103.25 117.49 103.653 117.426 104.049ZM120.084 103.845C120.283 103.581 120.387 102.996 120.387 102.786C120.355 102.286 120.262 101.794 120.148 101.305L111.222 63.1347C111.151 62.8208 111.051 62.5104 110.916 62.2215C110.452 61.3046 109.567 61.5651 109.881 61.879C110.063 62.0574 110.199 62.2678 110.309 62.4961C110.427 62.7494 110.505 63.0205 110.57 63.2845L119.902 101.27C120.005 101.723 120.091 102.183 120.123 102.647C120.155 103.046 120.148 103.449 120.084 103.845Z" fill="#F6F4F1"/>
<path d="M102.65 121.818L117.854 123.341C118.892 123.448 119.72 123.762 120.352 124.229C121.036 124.74 121.49 125.428 121.721 126.234L124.618 137.632L121.333 126.345C121.122 125.628 120.715 125.011 120.109 124.558C119.531 124.133 118.771 123.844 117.815 123.751L102.611 122.221L102.65 121.818Z" fill="#F6F4F1"/>
<path d="M123.823 192.398C124.223 192.398 124.544 192.719 124.544 193.119C124.544 193.515 124.223 193.839 123.823 193.839C123.334 193.839 122.756 193.832 122.104 193.818C121.515 193.803 120.941 193.786 120.388 193.764C119.992 193.75 119.681 193.415 119.699 193.015C119.713 192.619 120.049 192.312 120.445 192.327C121.016 192.352 121.579 192.369 122.132 192.38C122.607 192.391 123.167 192.398 123.823 192.398ZM128.931 201.356C137.358 202.287 154.263 197.671 159.942 190.893C161.034 189.594 160.353 189.626 158.498 190.322C156.946 190.903 156.043 191.139 155.473 191.884C153.796 194.06 151.413 195.345 148.841 196.265C150.371 195.473 151.705 194.492 152.829 193.301C153.596 192.487 153.792 191.945 151.969 192.626C150.988 192.994 150.114 193.39 149.736 193.75C146.269 197.068 136.929 200.218 128.931 201.356ZM145.62 192.74C143.037 193.978 139.676 194.988 135.799 195.687C132.046 196.361 127.808 196.739 123.327 196.739C115.665 196.739 108.722 195.63 103.692 193.839C98.5484 192.009 95.3698 189.433 95.3698 186.548V184.1C95.3698 183.401 95.5553 182.72 95.9085 182.067C95.4483 182.798 95.1665 183.615 95.1665 184.507V186.958C90.6003 187.603 87.3897 185.905 90.1223 182.431C86.1411 185.474 87.272 190.193 90.3185 192.947C95.2985 197.446 106.7 200.31 113.224 201.077C113.62 201.124 113.977 200.838 114.016 200.446C114.059 200.05 113.77 199.693 113.374 199.647C109.703 199.219 105.134 198.213 100.753 196.8C102.676 196.782 103.928 196.058 103.621 194.438C109.675 196.597 116.931 197.353 123.327 197.353C127.497 197.353 131.728 197.032 135.834 196.294C137.486 195.997 143.929 194.478 145.62 192.74ZM112.122 174.747L112.233 172.817C104.324 173.937 97.4889 175.888 92.7585 178.635C88.4742 181.122 85.9342 184.254 85.9342 187.985C85.9342 189.045 86.2446 190.104 86.8332 191.149C86.3944 190.279 86.1411 189.355 86.1411 188.395C86.1411 184.175 89.4659 181.189 92.8584 179.22C98.3557 176.027 105.74 174.365 112.012 173.462L112.122 174.747ZM118.083 192.191C118.479 192.22 118.779 192.562 118.75 192.962C118.722 193.354 118.379 193.654 117.98 193.629C114.059 193.34 103.275 191.824 100.129 188.477C105.187 190.425 112.672 191.795 118.083 192.191Z" fill="#F6F4F1"/>
<path fill-rule="evenodd" clip-rule="evenodd" d="M122.524 154.869C123.123 154.941 123.651 155.433 123.794 156.221C123.94 157.013 123.505 157.837 122.799 157.937C122.092 158.041 121.347 157.185 121.24 156.589C121.133 155.99 121.215 155.9 121.333 155.622C121.293 155.793 121.247 155.743 121.326 156.171C121.404 156.603 121.993 157.309 122.546 157.231C123.098 157.152 123.434 156.464 123.33 155.886C123.223 155.308 122.917 155.001 122.524 154.869ZM128.813 173.034C129.413 173.102 129.951 173.655 130.087 174.386C130.24 175.235 129.791 176.002 129.088 176.102C128.382 176.202 127.686 175.599 127.529 174.75C127.468 174.404 127.504 174.065 127.622 173.783C127.583 173.958 127.579 174.144 127.615 174.336C127.736 175.004 128.282 175.474 128.835 175.396C129.388 175.317 129.737 174.715 129.62 174.051C129.53 173.555 129.202 173.166 128.813 173.034Z" fill="#010101"/>
<path fill-rule="evenodd" clip-rule="evenodd" d="M77.401 106.899C76.7981 106.831 76.263 106.278 76.1274 105.547C75.9741 104.702 76.4235 103.931 77.1263 103.831C77.8326 103.731 78.5283 104.334 78.6817 105.183C78.7459 105.529 78.7066 105.868 78.5925 106.15C78.6282 105.979 78.6317 105.786 78.5996 105.597C78.4783 104.933 77.9325 104.459 77.376 104.537C76.8231 104.616 76.4735 105.219 76.5948 105.886C76.684 106.378 77.0121 106.767 77.401 106.899Z" fill="#F6F4F1"/>
<path d="M149.747 188.196L151.649 187.561C151.913 187.472 152.184 187.967 152.13 188.246L151.709 190.39C151.221 192.865 147.111 189.077 149.747 188.196ZM154.741 186.523L158.145 185.385C158.391 185.303 158.644 185.759 158.598 186.013L158.12 188.442C158.048 188.802 157.799 189.195 157.453 189.312L154.053 190.479C153.768 190.575 153.282 190.204 153.34 189.904L153.796 187.593C153.889 187.126 154.288 186.672 154.741 186.523ZM159.515 185.784L159.115 187.818C158.865 189.084 158.487 189.509 158.815 187.86L159.204 185.888C159.418 184.792 159.807 184.293 159.515 185.784ZM162.561 183.908L166.403 182.624C166.596 182.559 166.853 182.873 166.813 183.069L166.282 185.763C166.218 186.098 165.918 186.412 165.597 186.519L161.741 187.843C161.527 187.914 161.213 187.589 161.252 187.368L161.737 184.914C161.823 184.489 162.147 184.047 162.561 183.908ZM170.245 182.235L169.817 184.389C169.635 185.32 167.677 186.487 167.973 184.982L168.433 182.652C168.529 182.153 169.136 181.732 169.632 181.56C170.056 181.418 170.409 181.393 170.245 182.235ZM171.101 181.596L170.577 184.268C170.431 184.999 170.231 185.246 170.416 184.3L170.941 181.632C171.08 180.929 171.283 180.676 171.101 181.596ZM172.86 180.465C176.017 179.388 175.111 183.219 172.867 184.029C171.826 184.4 171.597 184.289 171.729 183.633L172.207 181.204C172.279 180.843 172.521 180.579 172.86 180.465Z" fill="#F6F4F1"/>
<path d="M26.1097 124.436L26.3273 120.883C26.2024 121.319 25.5532 123.038 23.2237 123.038H21.4079V119.735C22.4924 119.827 23.5662 120.152 23.7838 121.055V116.956C23.5662 117.855 22.4924 118.183 21.4079 118.276V114.969H22.9133C25.2428 114.969 25.8921 116.692 26.0169 117.127L25.7993 113.57H17.573C18.3649 113.742 18.5362 115.279 18.5362 115.932V122.061C18.5362 122.728 18.3649 124.251 17.573 124.436H26.1097Z" fill="#F6F4F1"/>
<path d="M33.4172 122.389C33.4172 122.871 32.8429 123.163 31.9118 123.163C30.0496 123.163 28.1589 122 27.7059 120.602L27.9092 124.701C28.1125 124.265 28.4693 124.048 28.9794 124.048C29.8641 124.048 30.92 124.701 32.2863 124.701C34.4446 124.701 36.2889 123.085 36.2889 121.115C36.2746 117.591 30.3136 117.452 30.3136 115.7C30.3136 115.154 30.8594 114.844 31.7584 114.844C33.4957 114.844 35.2972 116.011 35.7467 117.405L35.5469 113.31C35.3436 113.742 35.0011 113.945 34.5195 113.945C33.6669 113.945 32.8286 113.31 31.4623 113.31C29.3219 113.31 27.4597 114.908 27.4597 116.831C27.4597 120.245 33.4172 120.338 33.4172 122.389Z" fill="#F6F4F1"/>
<path d="M15.7751 129.456C15.9143 129.021 16.5671 127.298 18.8787 127.298H19.3924V134.39C19.3924 135.057 19.2212 136.58 18.4293 136.765H23.2095C22.4176 136.58 22.2642 135.057 22.2642 134.39V127.298H22.7743C25.0895 127.298 25.7388 129.021 25.8636 129.456L25.646 125.899H16.0106L15.7751 129.456Z" fill="#F6F4F1"/>
<path d="M31.9776 136.765C35.0348 136.765 37.3179 134.436 37.3179 131.286C37.3179 128.182 35.0812 125.899 31.9776 125.899H26.9476C27.7396 126.071 27.8965 127.608 27.8965 128.261V134.39C27.8965 135.057 27.7396 136.58 26.9476 136.765H31.9776ZM31.9633 127.298C33.1869 127.298 34.1501 129.053 34.1501 131.332C34.1501 133.598 33.1869 135.367 31.9633 135.367H30.7683V127.298H31.9633Z" fill="#F6F4F1"/>
<path d="M221.968 116.599C221.968 114.177 220.056 113.324 217.544 113.324C215.743 113.324 214.391 114.241 214.066 114.769L214.191 117.405C214.562 116.196 215.85 114.844 217.123 114.844C218.597 114.844 218.814 115.946 218.814 116.599C218.814 119.05 214.515 122.371 213.741 123.038H213.724V124.436H221.654L221.903 120.726C221.718 121.518 220.18 121.675 219.528 121.675H217.758C219.888 120.277 221.968 118.429 221.968 116.599Z" fill="#F6F4F1"/>
<path d="M233.355 119.003C233.355 115.868 231.461 113.324 228.357 113.324C225.268 113.324 223.359 115.868 223.359 119.003C223.359 122.153 225.268 124.7 228.357 124.7C231.461 124.7 233.355 122.153 233.355 119.003ZM228.375 123.163C227.255 123.163 226.541 121.301 226.541 119.003C226.541 116.706 227.255 114.844 228.375 114.844C229.492 114.844 230.205 116.706 230.205 119.003C230.205 121.301 229.474 123.163 228.375 123.163Z" fill="#F6F4F1"/>
<path d="M222.856 128.927C222.856 126.505 220.944 125.653 218.432 125.653C216.631 125.653 215.279 126.569 214.954 127.097L215.079 129.734C215.45 128.524 216.738 127.172 218.012 127.172C219.485 127.172 219.702 128.275 219.702 128.927C219.702 131.378 215.404 134.699 214.63 135.366H214.612V136.765H222.542L222.792 133.055C222.606 133.847 221.069 134.004 220.416 134.004H218.646C220.776 132.605 222.856 130.757 222.856 128.927Z" fill="#F6F4F1"/>
<path d="M230.58 131.161C231.543 130.683 232.274 129.919 232.274 128.71C232.274 126.833 230.505 125.653 228.129 125.653C226.128 125.653 224.886 126.491 224.451 127.097L224.59 129.734C224.961 128.46 226.22 127.172 227.647 127.172C228.796 127.172 229.106 128.196 229.106 128.817C229.106 130.044 227.879 130.511 226.731 130.511V131.906C227.804 131.906 229.292 132.373 229.292 133.768C229.292 134.36 229.028 135.491 227.601 135.491C226.452 135.491 225.646 134.746 225.118 134.018L223.937 134.824C224.59 135.987 226.11 137.029 228.282 137.029C230.505 137.029 232.46 135.941 232.46 133.815C232.46 132.434 231.654 131.628 230.58 131.161Z" fill="#F6F4F1"/>
</svg>
