<svg width="453" height="48" viewBox="0 0 453 48" fill="none" xmlns="http://www.w3.org/2000/svg">
<path d="M25.7769 0.900993C25.1259 0.848909 24.4748 0.900994 23.8238 0.999952C23.7248 0.999952 23.5738 0.999951 23.4696 1.05204C23.2196 1.15099 23.1727 1.24995 23.2196 1.49995C23.2196 1.60412 23.2717 1.70308 23.3238 1.75516C23.4696 2.20308 23.6727 2.55724 23.8238 2.95829C24.1727 3.6562 24.4227 4.35933 24.4748 5.10933C24.5269 5.81245 24.6259 6.51558 24.7248 7.2187C24.8759 7.91662 24.9279 8.67183 24.8238 9.42183C24.7248 9.82287 24.7248 10.2239 24.7769 10.625C24.8238 11.276 24.9279 11.927 24.9279 12.5781C24.8759 13.6822 24.9279 14.8333 24.9279 15.9375C24.9279 16.0885 24.9279 16.1875 24.8759 16.3385C24.7248 17.1406 24.7248 17.9947 24.7248 18.7968C24.7248 19.3489 24.7248 19.901 24.5738 20.4479C24.5738 20.651 24.5269 20.8489 24.3238 20.9531C24.1259 21 23.9748 20.8489 23.8238 20.7031C23.3238 20.151 22.9227 19.5468 22.5217 18.8958C22.0165 17.9947 21.4644 17.1406 20.9175 16.2916L19.9644 14.9375C19.4123 13.8854 18.8082 12.8333 18.2092 11.8281C17.8082 11.125 17.4071 10.427 16.9071 9.77079C16.105 8.77079 15.454 7.7187 14.8498 6.56245C14.5477 5.96349 14.1988 5.41141 13.7457 4.85933L12.9957 3.85933C12.4957 3.25516 11.9904 2.6562 11.3915 2.10412C10.8915 1.70308 10.2873 1.40099 9.63628 1.24995C9.18315 1.15099 8.73524 1.09891 8.28211 1.05204C7.57899 0.953076 6.92795 0.900994 6.23003 0.953077C5.7769 0.999951 5.2769 1.05204 4.82378 1.05204C4.52169 1.09891 4.27169 0.999952 3.97482 0.999952C3.27169 0.999952 2.62065 0.953076 1.91753 0.900993C1.4644 0.848909 1.06336 0.848909 0.615445 0.900993C0.214404 0.953076 0.0633613 1.15099 0.16232 1.49995C0.214404 1.70308 0.261279 1.90099 0.365445 2.10412L0.615445 2.85412C0.813361 3.60933 1.01649 4.35933 1.31336 5.10933C1.4644 5.46349 1.56857 5.91141 1.61545 6.31245L1.76649 7.4687C1.81857 8.11974 1.81857 8.7187 1.7144 9.36974C1.61545 9.67183 1.61545 9.97391 1.61545 10.276C1.61545 10.5729 1.66753 10.875 1.66753 11.2291C1.66753 11.8281 1.7144 12.4322 1.61545 13.0312C1.51649 13.8333 1.56857 14.5833 1.56857 15.3385C1.56857 15.7864 1.61545 16.2395 1.66753 16.6927C1.76649 17.0416 1.76649 17.3437 1.76649 17.6927V19.0468C1.76649 19.5 1.7144 19.901 1.66753 20.3489C1.56857 20.75 1.51649 21.151 1.56857 21.552C1.66753 22.1562 1.76649 22.8072 1.7144 23.4583C1.7144 23.5572 1.7144 23.6562 1.76649 23.7604C1.81857 24.4114 1.81857 25.1093 1.7144 25.7656C1.66753 26.1145 1.61545 26.4635 1.61545 26.8177C1.61545 27.1666 1.66753 27.5156 1.66753 27.9166C1.66753 28.6718 1.61545 29.4739 1.56857 30.2239C1.41753 31.5781 1.11545 32.8802 0.511279 34.1354C0.313361 34.5364 0.110237 34.9375 0.0112786 35.3906C-0.035596 35.6406 0.0633613 35.7916 0.313361 35.8906C0.365445 35.8906 0.41232 35.9375 0.511279 35.9375C1.01649 35.9375 1.56857 36.0885 2.11545 36.0416C2.41753 36.0416 2.66753 36.0416 2.91753 35.9895C3.57378 35.9895 4.22482 35.9375 4.82378 35.9375H5.0269C5.7769 35.8385 6.48003 35.8906 7.23003 35.9895C7.43315 35.9895 7.68315 36.0416 7.93315 35.9895C8.3342 35.8906 8.43315 35.7395 8.3342 35.3385L8.23524 35.0885C8.13107 34.8385 8.03211 34.5364 7.88107 34.2864C7.57899 33.6822 7.28211 33.0312 7.13107 32.3281C6.92795 31.677 6.78211 31.026 6.73003 30.3229V28.2708C6.78211 27.6666 6.82899 27.0677 6.73003 26.4635C6.73003 26.0625 6.63107 25.6145 6.67795 25.2135C6.67795 24.8125 6.67795 24.4114 6.73003 24.0104V22.5052C6.73003 22.0052 6.73003 21.4531 6.63107 20.901C6.5269 20.401 6.5269 19.901 6.63107 19.3958C6.73003 18.8437 6.82899 18.2968 6.78211 17.7916C6.67795 16.8906 6.73003 15.9895 6.78211 15.1354C6.82899 14.8854 6.88107 14.6354 6.98003 14.4322C7.07899 14.1354 7.23003 14.0833 7.53211 14.2343C7.63107 14.3333 7.73003 14.3854 7.78211 14.4843L8.48524 15.1354C8.8342 15.4895 9.13628 15.8906 9.38628 16.2916C9.88628 17.0937 10.3863 17.8958 10.7873 18.7447C11.1884 19.5468 11.7404 20.151 12.1936 20.901C12.5425 21.5052 13.0477 22.052 13.2977 22.7552C13.4488 23.1093 13.5477 23.4583 13.7977 23.7604C14.2977 24.5625 14.7977 25.4114 15.3498 26.1666C15.5998 26.5156 15.855 26.9166 16.0009 27.3177C16.2561 27.8697 16.5529 28.4218 16.9071 28.8697C17.605 29.8229 18.1102 30.8281 18.7092 31.7812C19.1623 32.4791 19.5634 33.1822 20.1623 33.6822C20.5165 33.9322 20.8134 34.2864 21.0634 34.5885L21.5686 35.1875C21.9175 35.4895 22.3186 35.6406 22.7717 35.6875C23.1207 35.7916 23.4696 35.7395 23.8238 35.7916C24.5269 35.8906 25.2248 35.9895 25.9279 35.9375C26.0269 35.9375 26.1311 35.9375 26.23 35.9895C26.6779 36.0416 27.1832 35.9895 27.6311 35.8906C28.4332 35.6875 28.9384 35.1875 29.1884 34.3333C29.3863 33.5833 29.4852 32.8333 29.6884 32.0781C29.7873 31.7812 29.8394 31.4791 29.7873 31.177C29.7352 30.427 29.6884 29.6718 29.7352 28.9218C29.7352 27.3177 29.6884 25.7656 29.7352 24.1614C29.8394 22.4062 29.6884 20.651 29.8863 18.8958V18.1458C29.7873 17.5937 29.8394 17.0416 29.8394 16.4895C29.8863 15.8906 29.9384 15.2864 29.8394 14.6875C29.6884 14.0364 29.6884 13.3333 29.8394 12.6822C29.9384 12.3281 29.9904 12.0312 29.9384 11.677C29.8394 11.0781 29.7352 10.427 29.7873 9.82287V8.86974C29.7873 8.42183 29.7873 7.91662 29.8863 7.4687L30.0894 5.46349C30.0894 4.85933 30.1884 4.20828 30.4384 3.60933L31.1415 2.05204C31.1936 1.80204 31.3394 1.60412 31.3394 1.40099C31.3394 1.15099 31.2925 1.09891 31.0894 0.999952L30.5894 0.900993C29.8394 0.802035 29.0842 0.802035 28.3342 0.84891C27.9852 0.900994 27.5842 0.953077 27.1832 0.953077C26.73 0.900994 26.23 0.900993 25.7769 0.900993Z" fill="white"/>
<path d="M52.7926 3.60939C52.5895 3.60939 52.3395 3.65627 52.0895 3.60939C51.3863 3.60939 50.6884 3.75523 49.9853 3.75523C49.7822 3.75523 49.5843 3.80731 49.3811 3.85939C47.829 4.10939 46.3759 4.60939 44.9697 5.35939C44.2717 5.76043 43.5686 6.16148 43.0165 6.81773C42.7145 7.16668 42.3134 7.46877 41.9124 7.76564C41.5113 7.96877 41.2145 8.21877 40.9124 8.56773L40.0113 9.62502C39.4592 10.3229 38.954 11.0781 38.553 11.9271C38.303 12.4792 38.0061 13.0313 37.7509 13.6354C37.204 14.8854 36.652 16.1406 36.5478 17.5417C36.5009 18.3438 36.402 19.099 36.5009 19.849C36.5009 20.099 36.5478 20.3021 36.5009 20.5521C36.402 21.0521 36.5009 21.6042 36.5478 22.1042C36.6988 23.2552 37.0009 24.3594 37.402 25.4115C37.902 26.7136 38.4072 28.0209 39.1051 29.224C39.5582 29.974 40.0582 30.6771 40.7613 31.2292C41.0634 31.4792 41.3603 31.7813 41.6155 32.1302C41.8655 32.4323 42.1155 32.8334 42.4645 33.0834C43.1155 33.5313 43.8186 33.9844 44.5217 34.3854L46.2249 35.2396C47.178 35.7917 48.178 36.0886 49.2301 36.3386C50.1363 36.5417 51.0895 36.5886 51.9905 36.6927C52.4384 36.7396 52.8915 36.7396 53.2926 36.6406C53.7457 36.5886 54.1468 36.4427 54.5478 36.3906C55.2978 36.3386 56.0478 36.2396 56.803 36.0417C57.954 35.6875 59.1051 35.2396 60.2092 34.7344C60.8603 34.4375 61.5113 34.1354 62.1155 33.6354C62.3655 33.4323 62.6155 33.1823 62.9176 32.9844C63.6676 32.3802 64.4228 31.7813 65.0738 31.0781C65.4749 30.5781 65.8759 30.125 66.1259 29.5209L66.277 29.0729C66.8759 28.1719 67.2301 27.1667 67.829 26.3125C68.079 25.9636 68.2301 25.5625 68.329 25.1615C68.4801 24.6094 68.6311 24.0104 68.7301 23.4063L68.9801 21.7031C69.0322 20.9011 69.1832 20.1511 69.0322 19.349C68.9332 18.6459 68.8811 17.9427 68.7301 17.2917C68.4332 16.1406 68.2301 14.9844 67.829 13.8334C67.678 13.4323 67.579 12.9792 67.329 12.5781C66.6259 11.3281 65.7249 10.224 64.8238 9.11981C64.5738 8.71877 64.2197 8.46877 63.9176 8.11981C63.6207 7.76564 63.2665 7.46877 62.9176 7.16668C62.2665 6.6146 61.5113 6.1146 60.7613 5.6146C60.4592 5.41148 60.1624 5.21356 59.8082 5.06252C58.9072 4.70835 58.0061 4.35939 57.0009 4.20835L56.303 4.05731C55.1468 3.70835 53.9957 3.55731 52.7926 3.60939ZM53.1415 8.02085C54.3967 7.96877 55.3968 8.71877 56.303 9.72398C56.704 10.224 57.0999 10.724 57.454 11.2761C58.1572 12.2292 58.704 13.2813 59.0061 14.4323C59.3082 15.5365 59.5061 16.7396 59.6572 17.8959C59.7092 18.3438 59.7613 18.7969 59.7092 19.2969C59.6572 19.849 59.6572 20.4479 59.7092 21.0521C59.7613 21.3021 59.7613 21.5521 59.7092 21.8021V22.2031C59.7092 22.9063 59.6103 23.5573 59.4592 24.2084C59.2092 24.9636 59.0582 25.7136 58.8082 26.4636C58.4072 27.5156 57.902 28.5209 57.152 29.4219C56.5999 30.0729 56.0009 30.6771 55.2978 31.1771C54.4957 31.6771 53.6936 31.9792 52.7405 31.9792C52.4905 31.9792 52.2926 32.0313 52.0374 32.0313C51.3863 32.0313 50.8343 31.8802 50.3343 31.4271C49.9332 31.0781 49.4853 30.724 49.1311 30.3229C48.4801 29.625 47.8811 28.8698 47.428 28.0209L46.8238 26.8177C46.5738 26.1667 46.4228 25.4115 46.277 24.7136C46.1728 23.8073 45.9749 22.8542 45.8238 21.9063L45.6259 20.099C45.6259 19.6459 45.7717 19.2448 45.8238 18.7969C45.9228 17.7448 46.1728 16.6927 46.1728 15.6354C46.1728 14.9844 46.4228 14.4323 46.6259 13.8334C46.777 13.3334 47.027 12.8802 47.3759 12.4792C47.7301 11.9792 47.928 11.375 48.2822 10.875C48.7822 10.1719 49.2822 9.47397 49.9853 9.02085C50.8863 8.46877 51.8395 7.96877 53.1415 8.02085Z" fill="white"/>
<path d="M83.915 3.70825C83.415 3.75513 83.0139 3.75513 82.6129 3.75513C82.1598 3.80721 81.7587 3.90617 81.3108 3.90617C80.8108 3.90617 80.3056 4.01034 79.8056 4.20825C79.3525 4.35929 78.9046 4.60929 78.4514 4.76034C77.7014 5.10929 76.9462 5.46346 76.2952 6.01554C75.8473 6.3645 75.3941 6.71346 75.0921 7.16659L74.1389 8.31763C73.79 8.67179 73.4879 9.07283 73.29 9.52075C73.04 10.026 72.8889 10.526 72.6389 10.9739C72.2848 11.677 72.1337 12.4322 72.1337 13.2343C72.1337 14.2343 72.1337 15.2343 72.4358 16.2395C72.79 17.4426 73.3889 18.4426 74.3421 19.2447C74.6441 19.4478 74.8941 19.6458 75.1441 19.901C75.6441 20.3489 76.1441 20.802 76.6962 21.1041C77.4514 21.552 78.1494 22.0051 78.9046 22.4062C79.5035 22.8072 80.1546 23.0572 80.8108 23.3593C81.7119 23.8072 82.5608 24.3593 83.566 24.7135C84.316 24.9635 84.9671 25.3124 85.6702 25.6614C85.9723 25.8124 86.2223 25.9635 86.4723 26.2135L87.7275 27.2655C87.9775 27.4166 88.1754 27.6197 88.3785 27.8697C88.8264 28.4218 89.2275 28.9739 89.2796 29.6718C89.3785 30.2239 89.2796 30.7239 88.8785 31.1249C88.4775 31.427 88.0764 31.7291 87.6233 31.927C86.7223 32.328 85.8212 32.2812 84.9202 32.2812C84.566 32.2812 84.165 32.2291 83.816 32.1822C82.6129 32.0312 81.4619 31.7812 80.3056 31.3801C79.8577 31.2291 79.4566 30.927 79.0035 30.776C77.7483 30.3749 76.6962 29.6249 75.6441 28.8697C74.941 28.3697 74.3421 27.7708 73.691 27.2187C73.54 27.1145 73.3889 26.9166 73.2379 27.0155C72.9879 27.1145 73.04 27.3176 73.04 27.5155C73.04 28.1718 73.1389 28.8697 73.0869 29.5728C73.0869 29.8228 73.04 30.026 73.04 30.276C73.04 30.8749 73.1389 31.427 73.1389 32.0312L73.2379 34.1353C73.2379 34.4374 73.29 34.7864 73.29 35.0885C73.3369 35.2864 73.3369 35.4895 73.441 35.6874C73.54 35.8905 73.691 35.9374 73.8889 35.8905L74.1389 35.7916C74.441 35.6405 74.7431 35.4374 75.0452 35.2395C75.7431 34.7864 76.4462 34.6353 77.3004 34.7864C78.0504 34.9895 78.8525 35.1874 79.6077 35.3385C80.0556 35.4374 80.5087 35.5364 80.9098 35.6874C81.3577 35.8905 81.8108 36.0885 82.3108 36.1874C83.2119 36.3905 84.1181 36.6405 85.0712 36.6405C85.7223 36.6405 86.3212 36.5885 86.9254 36.6926C87.9254 36.7916 88.8264 36.5885 89.7327 36.2395C90.7327 35.8385 91.6858 35.4374 92.6389 34.9374C93.3889 34.5364 94.1441 34.0833 94.7431 33.3853C95.2952 32.7812 95.7952 32.1301 96.2483 31.3801C96.8994 30.3749 97.3525 29.2708 97.6025 28.0676C97.7014 27.4687 97.8004 26.8645 97.7535 26.2655C97.7535 25.4114 97.4983 24.5624 97.3004 23.7603C96.8994 22.453 96.0452 21.401 95.1441 20.401C94.6441 19.8489 93.9931 19.4478 93.441 18.9947C92.2379 18.0937 90.9358 17.2916 89.5296 16.7395C89.1806 16.5885 88.8264 16.4374 88.4775 16.2395C87.8785 15.7864 87.1754 15.4895 86.4202 15.2864C85.9202 15.1353 85.4723 14.8853 85.0712 14.6353C84.6702 14.3333 84.2691 14.1353 83.8681 13.8853C83.066 13.5312 82.2639 13.1301 81.5608 12.578C80.9098 12.0312 80.5556 11.328 80.6077 10.4739C80.6598 9.62492 81.0087 9.02075 81.7119 8.67179C82.8108 8.11971 83.915 7.96867 85.0712 8.06763C86.2223 8.21867 87.3264 8.42179 88.4254 8.71867C89.3785 9.02075 90.3316 9.32284 91.1337 9.97388C91.5348 10.276 91.9358 10.526 92.3369 10.776L93.2379 11.328C93.8889 11.828 94.3941 12.3801 95.0452 12.8801C95.2431 13.0833 95.4931 13.2812 95.7483 13.3801C96.0452 13.5312 96.1962 13.4322 96.1962 13.1301C96.2483 13.0833 96.2483 13.0312 96.1962 12.9791C96.1962 12.5312 96.1962 12.1301 96.1494 11.7291L96.0452 10.927C95.9983 10.427 95.8473 9.92179 95.8473 9.42179C95.8941 8.61971 95.7952 7.76554 95.7952 6.96346V6.76554C95.7483 6.3645 95.7483 5.96346 95.7952 5.56242C95.7952 5.31242 95.8473 5.06242 95.7952 4.85929C95.7483 4.51033 95.5452 4.35929 95.1962 4.55721L94.5921 4.91138C94.29 5.10929 94.04 5.21346 93.691 5.31242C92.8369 5.41138 92.0348 5.35929 91.2327 5.16138C89.8837 4.81242 88.5764 4.41138 87.2223 4.15617C86.0712 3.90617 84.9671 3.70825 83.915 3.70825Z" fill="white"/>
<path d="M112.133 3.70825C111.633 3.75513 111.232 3.75513 110.831 3.75513C110.378 3.80721 109.977 3.90617 109.529 3.90617C109.029 3.90617 108.524 4.01034 108.024 4.20825C107.571 4.35929 107.123 4.60929 106.67 4.76034C105.92 5.10929 105.164 5.46346 104.513 6.01554C104.065 6.3645 103.612 6.71346 103.31 7.16659L102.357 8.31763C102.008 8.67179 101.706 9.07283 101.508 9.52075C101.258 10.026 101.107 10.526 100.857 10.9739C100.503 11.677 100.352 12.4322 100.352 13.2343C100.352 14.2343 100.352 15.2343 100.654 16.2395C101.008 17.4426 101.607 18.4426 102.56 19.2447C102.862 19.4478 103.112 19.6458 103.362 19.901C103.862 20.3489 104.362 20.802 104.914 21.1041C105.67 21.552 106.367 22.0051 107.123 22.4062C107.722 22.8072 108.373 23.0572 109.029 23.3593C109.93 23.8072 110.779 24.3593 111.784 24.7135C112.534 24.9635 113.185 25.3124 113.888 25.6614C114.19 25.8124 114.44 25.9635 114.69 26.2135L115.946 27.2655C116.196 27.4166 116.394 27.6197 116.597 27.8697C117.045 28.4218 117.446 28.9739 117.498 29.6718C117.597 30.2239 117.498 30.7239 117.097 31.1249C116.696 31.427 116.295 31.7291 115.841 31.927C114.94 32.328 114.039 32.2812 113.138 32.2812C112.784 32.2812 112.383 32.2291 112.034 32.1822C110.831 32.0312 109.68 31.7812 108.524 31.3801C108.076 31.2291 107.675 30.927 107.222 30.776C105.966 30.3749 104.914 29.6249 103.862 28.8697C103.159 28.3697 102.56 27.7708 101.909 27.2187C101.758 27.1145 101.607 26.9166 101.456 27.0155C101.206 27.1145 101.258 27.3176 101.258 27.5155C101.258 28.1718 101.357 28.8697 101.305 29.5728C101.305 29.8228 101.258 30.026 101.258 30.276C101.258 30.8749 101.357 31.427 101.357 32.0312L101.456 34.1353C101.456 34.4374 101.508 34.7864 101.508 35.0885C101.555 35.2864 101.555 35.4895 101.659 35.6874C101.758 35.8905 101.909 35.9374 102.107 35.8905L102.357 35.7916C102.659 35.6405 102.961 35.4374 103.263 35.2395C103.961 34.7864 104.664 34.6353 105.519 34.7864C106.269 34.9895 107.071 35.1874 107.826 35.3385C108.274 35.4374 108.727 35.5364 109.128 35.6874C109.576 35.8905 110.029 36.0885 110.529 36.1874C111.43 36.3905 112.336 36.6405 113.289 36.6405C113.94 36.6405 114.539 36.5885 115.144 36.6926C116.144 36.7916 117.045 36.5885 117.951 36.2395C118.951 35.8385 119.904 35.4374 120.857 34.9374C121.607 34.5364 122.362 34.0833 122.961 33.3853C123.513 32.7812 124.013 32.1301 124.466 31.3801C125.117 30.3749 125.571 29.2708 125.821 28.0676C125.92 27.4687 126.019 26.8645 125.972 26.2655C125.972 25.4114 125.716 24.5624 125.519 23.7603C125.117 22.453 124.263 21.401 123.362 20.401C122.862 19.8489 122.211 19.4478 121.659 18.9947C120.456 18.0937 119.154 17.2916 117.748 16.7395C117.399 16.5885 117.045 16.4374 116.696 16.2395C116.097 15.7864 115.394 15.4895 114.638 15.2864C114.138 15.1353 113.69 14.8853 113.289 14.6353C112.888 14.3333 112.487 14.1353 112.086 13.8853C111.284 13.5312 110.482 13.1301 109.779 12.578C109.128 12.0312 108.774 11.328 108.826 10.4739C108.878 9.62492 109.227 9.02075 109.93 8.67179C111.029 8.11971 112.133 7.96867 113.289 8.06763C114.44 8.21867 115.545 8.42179 116.644 8.71867C117.597 9.02075 118.55 9.32284 119.352 9.97388C119.753 10.276 120.154 10.526 120.555 10.776L121.456 11.328C122.107 11.828 122.612 12.3801 123.263 12.8801C123.461 13.0833 123.711 13.2812 123.966 13.3801C124.263 13.5312 124.414 13.4322 124.414 13.1301C124.466 13.0833 124.466 13.0312 124.414 12.9791C124.414 12.5312 124.414 12.1301 124.367 11.7291L124.263 10.927C124.216 10.427 124.065 9.92179 124.065 9.42179C124.112 8.61971 124.013 7.76554 124.013 6.96346V6.76554C123.966 6.3645 123.966 5.96346 124.013 5.56242C124.013 5.31242 124.065 5.06242 124.013 4.85929C123.966 4.51033 123.763 4.35929 123.414 4.55721L122.81 4.91138C122.508 5.10929 122.258 5.21346 121.909 5.31242C121.055 5.41138 120.253 5.35929 119.451 5.16138C118.102 4.81242 116.795 4.41138 115.44 4.15617C114.289 3.90617 113.185 3.70825 112.133 3.70825Z" fill="white"/>
<path d="M144.414 3.60939C144.211 3.60939 143.961 3.65627 143.711 3.60939C143.007 3.60939 142.31 3.75523 141.606 3.75523C141.403 3.75523 141.205 3.80731 141.002 3.85939C139.45 4.10939 137.997 4.60939 136.591 5.35939C135.893 5.76043 135.19 6.16148 134.638 6.81773C134.336 7.16668 133.935 7.46877 133.534 7.76564C133.132 7.96877 132.836 8.21877 132.534 8.56773L131.632 9.62502C131.08 10.3229 130.575 11.0781 130.174 11.9271C129.924 12.4792 129.627 13.0313 129.372 13.6354C128.825 14.8854 128.273 16.1406 128.169 17.5417C128.122 18.3438 128.023 19.099 128.122 19.849C128.122 20.099 128.169 20.3021 128.122 20.5521C128.023 21.0521 128.122 21.6042 128.169 22.1042C128.32 23.2552 128.622 24.3594 129.023 25.4115C129.523 26.7136 130.028 28.0209 130.726 29.224C131.179 29.974 131.679 30.6771 132.382 31.2292C132.685 31.4792 132.981 31.7813 133.237 32.1302C133.487 32.4323 133.737 32.8334 134.086 33.0834C134.737 33.5313 135.44 33.9844 136.143 34.3854L137.846 35.2396C138.799 35.7917 139.799 36.0886 140.851 36.3386C141.757 36.5417 142.711 36.5886 143.612 36.6927C144.06 36.7396 144.513 36.7396 144.914 36.6406C145.367 36.5886 145.768 36.4427 146.169 36.3906C146.919 36.3386 147.669 36.2396 148.424 36.0417C149.575 35.6875 150.726 35.2396 151.83 34.7344C152.481 34.4375 153.132 34.1354 153.737 33.6354C153.987 33.4323 154.237 33.1823 154.539 32.9844C155.289 32.3802 156.044 31.7813 156.695 31.0781C157.096 30.5781 157.497 30.125 157.747 29.5209L157.898 29.0729C158.497 28.1719 158.851 27.1667 159.45 26.3125C159.7 25.9636 159.851 25.5625 159.95 25.1615C160.101 24.6094 160.252 24.0104 160.351 23.4063L160.601 21.7031C160.653 20.9011 160.804 20.1511 160.653 19.349C160.554 18.6459 160.502 17.9427 160.351 17.2917C160.054 16.1406 159.851 14.9844 159.45 13.8334C159.299 13.4323 159.2 12.9792 158.95 12.5781C158.247 11.3281 157.346 10.224 156.445 9.11981C156.195 8.71877 155.841 8.46877 155.539 8.11981C155.242 7.76564 154.888 7.46877 154.539 7.16668C153.888 6.6146 153.132 6.1146 152.382 5.6146C152.08 5.41148 151.784 5.21356 151.429 5.06252C150.528 4.70835 149.627 4.35939 148.622 4.20835L147.924 4.05731C146.768 3.70835 145.617 3.55731 144.414 3.60939ZM144.763 8.02085C146.018 7.96877 147.018 8.71877 147.924 9.72398C148.325 10.224 148.721 10.724 149.075 11.2761C149.778 12.2292 150.325 13.2813 150.627 14.4323C150.929 15.5365 151.127 16.7396 151.278 17.8959C151.33 18.3438 151.382 18.7969 151.33 19.2969C151.278 19.849 151.278 20.4479 151.33 21.0521C151.382 21.3021 151.382 21.5521 151.33 21.8021V22.2031C151.33 22.9063 151.231 23.5573 151.08 24.2084C150.83 24.9636 150.679 25.7136 150.429 26.4636C150.028 27.5156 149.523 28.5209 148.773 29.4219C148.221 30.0729 147.622 30.6771 146.919 31.1771C146.117 31.6771 145.315 31.9792 144.362 31.9792C144.112 31.9792 143.914 32.0313 143.659 32.0313C143.007 32.0313 142.455 31.8802 141.955 31.4271C141.554 31.0781 141.106 30.724 140.752 30.3229C140.101 29.625 139.502 28.8698 139.049 28.0209L138.445 26.8177C138.195 26.1667 138.044 25.4115 137.898 24.7136C137.794 23.8073 137.596 22.8542 137.445 21.9063L137.247 20.099C137.247 19.6459 137.393 19.2448 137.445 18.7969C137.544 17.7448 137.794 16.6927 137.794 15.6354C137.794 14.9844 138.044 14.4323 138.247 13.8334C138.398 13.3334 138.648 12.8802 138.997 12.4792C139.351 11.9792 139.549 11.375 139.903 10.875C140.403 10.1719 140.903 9.47397 141.606 9.02085C142.507 8.46877 143.461 7.96877 144.763 8.02085Z" fill="white"/>
<path d="M175.536 3.70825C175.036 3.75513 174.635 3.75513 174.234 3.75513C173.781 3.80721 173.38 3.90617 172.932 3.90617C172.432 3.90617 171.927 4.01034 171.427 4.20825C170.974 4.35929 170.526 4.60929 170.073 4.76034C169.323 5.10929 168.567 5.46346 167.916 6.01554C167.468 6.3645 167.015 6.71346 166.713 7.16659L165.76 8.31763C165.411 8.67179 165.109 9.07283 164.911 9.52075C164.661 10.026 164.51 10.526 164.26 10.9739C163.906 11.677 163.755 12.4322 163.755 13.2343C163.755 14.2343 163.755 15.2343 164.057 16.2395C164.411 17.4426 165.01 18.4426 165.963 19.2447C166.265 19.4478 166.515 19.6458 166.765 19.901C167.265 20.3489 167.765 20.802 168.317 21.1041C169.073 21.552 169.771 22.0051 170.526 22.4062C171.125 22.8072 171.776 23.0572 172.432 23.3593C173.333 23.8072 174.182 24.3593 175.187 24.7135C175.937 24.9635 176.588 25.3124 177.291 25.6614C177.593 25.8124 177.843 25.9635 178.093 26.2135L179.349 27.2655C179.599 27.4166 179.797 27.6197 180 27.8697C180.448 28.4218 180.849 28.9739 180.901 29.6718C181 30.2239 180.901 30.7239 180.5 31.1249C180.099 31.427 179.698 31.7291 179.244 31.927C178.343 32.328 177.442 32.2812 176.541 32.2812C176.187 32.2812 175.786 32.2291 175.437 32.1822C174.234 32.0312 173.083 31.7812 171.927 31.3801C171.479 31.2291 171.078 30.927 170.625 30.776C169.369 30.3749 168.317 29.6249 167.265 28.8697C166.562 28.3697 165.963 27.7708 165.312 27.2187C165.161 27.1145 165.01 26.9166 164.859 27.0155C164.609 27.1145 164.661 27.3176 164.661 27.5155C164.661 28.1718 164.76 28.8697 164.708 29.5728C164.708 29.8228 164.661 30.026 164.661 30.276C164.661 30.8749 164.76 31.427 164.76 32.0312L164.859 34.1353C164.859 34.4374 164.911 34.7864 164.911 35.0885C164.958 35.2864 164.958 35.4895 165.062 35.6874C165.161 35.8905 165.312 35.9374 165.51 35.8905L165.76 35.7916C166.062 35.6405 166.364 35.4374 166.666 35.2395C167.364 34.7864 168.067 34.6353 168.922 34.7864C169.672 34.9895 170.474 35.1874 171.229 35.3385C171.677 35.4374 172.13 35.5364 172.531 35.6874C172.979 35.8905 173.432 36.0885 173.932 36.1874C174.833 36.3905 175.739 36.6405 176.692 36.6405C177.343 36.6405 177.942 36.5885 178.547 36.6926C179.547 36.7916 180.448 36.5885 181.354 36.2395C182.354 35.8385 183.307 35.4374 184.26 34.9374C185.01 34.5364 185.765 34.0833 186.364 33.3853C186.916 32.7812 187.416 32.1301 187.869 31.3801C188.521 30.3749 188.974 29.2708 189.224 28.0676C189.323 27.4687 189.422 26.8645 189.375 26.2655C189.375 25.4114 189.119 24.5624 188.922 23.7603C188.521 22.453 187.666 21.401 186.765 20.401C186.265 19.8489 185.614 19.4478 185.062 18.9947C183.859 18.0937 182.557 17.2916 181.151 16.7395C180.802 16.5885 180.448 16.4374 180.099 16.2395C179.5 15.7864 178.797 15.4895 178.041 15.2864C177.541 15.1353 177.093 14.8853 176.692 14.6353C176.291 14.3333 175.89 14.1353 175.489 13.8853C174.687 13.5312 173.885 13.1301 173.182 12.578C172.531 12.0312 172.177 11.328 172.229 10.4739C172.281 9.62492 172.63 9.02075 173.333 8.67179C174.432 8.11971 175.536 7.96867 176.692 8.06763C177.843 8.21867 178.948 8.42179 180.047 8.71867C181 9.02075 181.953 9.32284 182.755 9.97388C183.156 10.276 183.557 10.526 183.958 10.776L184.859 11.328C185.51 11.828 186.015 12.3801 186.666 12.8801C186.864 13.0833 187.114 13.2812 187.369 13.3801C187.666 13.5312 187.817 13.4322 187.817 13.1301C187.869 13.0833 187.869 13.0312 187.817 12.9791C187.817 12.5312 187.817 12.1301 187.771 11.7291L187.666 10.927C187.619 10.427 187.468 9.92179 187.468 9.42179C187.515 8.61971 187.416 7.76554 187.416 6.96346V6.76554C187.369 6.3645 187.369 5.96346 187.416 5.56242C187.416 5.31242 187.468 5.06242 187.416 4.85929C187.369 4.51033 187.166 4.35929 186.817 4.55721L186.213 4.91138C185.911 5.10929 185.661 5.21346 185.312 5.31242C184.458 5.41138 183.656 5.35929 182.854 5.16138C181.505 4.81242 180.198 4.41138 178.843 4.15617C177.692 3.90617 176.588 3.70825 175.536 3.70825Z" fill="white"/>
<path d="M226.262 0C226.059 0.0989587 225.861 0.0468757 225.606 0.0989583C225.007 0.197917 224.356 0.348958 223.752 0.348958C223.101 0.348958 222.549 0.499999 222.049 0.802083C221.746 0.953125 221.45 1.09896 221.095 1.20312C220.293 1.45312 219.543 1.80208 218.793 2.20312C217.887 2.75521 217.038 3.40625 216.387 4.26042C215.585 5.3125 214.882 6.41667 214.179 7.51562C214.028 7.71875 213.929 7.91667 213.877 8.16667C213.679 8.77083 213.58 9.42188 213.476 10.0729C213.325 10.875 213.325 11.6771 213.429 12.4792L213.877 14.4323C213.981 14.8854 214.127 15.2865 214.429 15.6875C215.283 16.7917 216.184 17.8438 217.236 18.7969C217.538 19.0469 217.84 19.2969 218.189 19.5L219.996 20.5521C220.944 21.151 221.95 21.7031 223.002 22.1042C223.752 22.4062 224.507 22.6042 225.158 23.0052L226.21 23.5573C227.163 23.9583 228.116 24.4583 229.069 24.9115C229.418 25.1094 229.767 25.3125 230.017 25.6146L231.075 26.5677C231.424 26.8177 231.773 27.0677 232.023 27.4688C232.424 28.0208 232.528 28.6719 232.528 29.375C232.528 29.8229 232.325 30.1771 232.023 30.474C231.424 30.9792 230.773 31.3281 230.069 31.4792C229.017 31.7812 227.913 31.9271 226.809 31.8802C226.46 31.8281 226.111 31.8281 225.757 31.7292C225.205 31.6302 224.658 31.4792 224.153 31.3281C223.304 31.125 222.45 30.875 221.7 30.526L220.543 29.974C219.241 29.4219 218.038 28.7188 216.986 27.7188C216.335 27.1146 215.533 26.7135 214.83 26.1667H214.783C214.481 26.0156 214.278 26.0625 214.278 26.4167C214.231 26.7135 214.231 27.0677 214.278 27.3177C214.429 28.1198 214.429 28.974 214.429 29.776C214.429 30.026 214.481 30.224 214.481 30.474C214.528 31.026 214.632 31.6302 214.632 32.1823C214.632 32.8333 214.528 33.5312 214.632 34.1875C214.632 34.6354 214.632 35.0885 214.731 35.5365C214.83 35.8385 215.033 35.9375 215.33 35.8385L215.731 35.6406L216.887 34.9896C217.538 34.6875 218.189 34.5885 218.84 34.7344C219.595 34.8854 220.345 35.0885 221.095 35.2865C222.299 35.5885 223.554 35.8906 224.757 36.3385L225.309 36.4896C225.96 36.6406 226.611 36.6406 227.262 36.6406C228.413 36.6406 229.616 36.7396 230.773 36.6927C231.575 36.5885 232.377 36.4896 233.179 36.2917C233.627 36.1406 234.028 36.0417 234.429 35.7396C234.981 35.3906 235.585 35.0885 236.184 34.7344C236.887 34.3333 237.538 33.8333 238.142 33.2812C239.241 32.2292 240.043 30.9271 240.799 29.625C241.398 28.6198 241.549 27.5156 241.752 26.4167C241.851 25.9115 241.851 25.4115 241.898 24.9115C241.95 24.3125 241.898 23.7604 241.752 23.2083L240.996 21.25C240.845 20.8021 240.595 20.401 240.293 20.0469L239.293 18.9948L238.84 18.4948L237.84 17.5938C236.986 16.6927 235.882 16.1406 234.783 15.5885C234.179 15.3385 233.528 15.0885 232.976 14.6875C232.575 14.3854 232.075 14.1823 231.575 14.0833C230.924 13.9844 230.372 13.7344 229.819 13.4323L228.814 12.9792C227.663 12.5312 226.512 11.9792 225.46 11.3281C224.955 11.026 224.455 10.776 224.054 10.375C223.601 9.82292 223.153 9.22396 222.851 8.56771C222.549 7.91667 222.601 7.31771 223.054 6.71354C223.351 6.26562 223.804 5.96354 224.257 5.71354C224.856 5.35938 225.507 5.21354 226.158 5.21354C226.809 5.21354 227.465 5.26042 228.064 5.16146C228.616 5.10938 229.168 5.16146 229.72 5.3125C230.017 5.46354 230.371 5.5625 230.674 5.61458C231.325 5.76042 231.976 5.96354 232.627 6.16146C233.33 6.41667 233.981 6.71354 234.58 7.16667C235.08 7.51563 235.585 7.86979 236.137 8.16667C236.486 8.36979 236.835 8.67188 237.137 8.96875L238.241 9.97396L239.392 10.875C239.694 11.0781 239.845 10.974 239.845 10.625V10.474C239.845 10.125 239.845 9.77083 239.892 9.42188C239.944 9.17188 239.944 8.86979 239.944 8.56771C239.944 8.11979 239.793 7.66667 239.746 7.16667C239.694 6.76563 239.642 6.36458 239.694 5.91146C239.746 5.5625 239.746 5.16146 239.694 4.8125C239.595 3.90625 239.491 3.05729 239.543 2.15625V1.40104C239.491 1.05208 239.293 0.953124 239.043 1.15104L238.59 1.45312C237.59 2.20312 236.486 2.40625 235.283 2.10417C234.934 2.05208 234.58 1.95312 234.278 1.85417C233.429 1.70312 232.627 1.45312 231.877 1.05208C231.476 0.802083 231.023 0.749999 230.569 0.697917C230.069 0.697917 229.569 0.651042 229.116 0.401042C228.413 0.0989577 227.715 -9.98378e-07 227.012 0.046875C226.861 0.046875 226.71 0.0989587 226.611 0H226.262Z" fill="white"/>
<path d="M250.217 4.35933C249.664 4.30725 249.112 4.35933 248.56 4.41142L247.758 4.51038C247.211 4.66142 247.107 4.81246 247.159 5.31246V5.41142C247.31 6.01558 247.357 6.66663 247.56 7.26558L247.961 8.56767C248.159 9.22392 248.159 9.92184 248.159 10.625C248.159 11.177 248.112 11.776 248.263 12.3281C248.263 12.4791 248.31 12.6302 248.31 12.7812V15.4375C248.263 15.9375 248.31 16.4375 248.263 16.9427C248.211 17.3437 248.112 17.6927 248.112 18.0937C248.06 18.9479 248.211 19.7968 248.159 20.7031C248.159 20.75 248.211 20.8489 248.211 20.901C248.362 21.552 248.362 22.1562 248.263 22.8073C248.211 23.6093 248.211 24.4583 248.112 25.3125C248.06 26.0625 248.112 26.8645 248.112 27.6198C248.112 27.7708 248.112 27.8698 248.159 28.0208C248.263 28.7187 248.263 29.4218 248.112 30.125C248.06 30.7239 247.961 31.3281 247.961 31.8802C247.909 32.3281 247.862 32.7291 247.758 33.1823C247.612 33.4843 247.508 33.8333 247.409 34.1354C247.31 34.4375 247.211 34.7343 247.159 35.0364C247.107 35.5364 247.258 35.8385 247.758 35.9895C248.159 36.0885 248.56 36.1406 249.013 36.0885C249.618 36.0416 250.269 36.0416 250.92 36.0885C251.92 36.1875 252.972 36.0885 254.029 36.0416C254.576 35.9895 255.128 35.9375 255.732 35.9375C256.732 35.9375 257.737 35.9895 258.737 36.0416C259.092 36.0416 259.441 36.1406 259.789 36.0885C260.743 36.0885 261.696 36.0885 262.649 36.0416C263.649 36.0416 264.654 36.0416 265.607 35.9375C266.508 35.8385 267.362 35.7395 268.211 35.5364C269.263 35.3385 269.914 34.7343 270.217 33.6823C270.42 32.9323 270.42 32.1302 270.467 31.3802C270.467 30.875 270.519 30.375 270.618 29.9218C270.868 29.0729 270.769 28.2187 270.769 27.3698C270.769 27.2656 270.717 27.1145 270.618 27.0677C270.467 27.0156 270.42 27.1666 270.316 27.2187C270.269 27.2656 270.269 27.2656 270.269 27.3177L269.513 28.2708C269.217 28.6198 268.967 29.0729 268.566 29.375C267.612 30.177 266.607 30.8281 265.404 31.276C264.555 31.5781 263.649 31.8802 262.701 31.7812C261.748 31.7291 260.743 31.8281 259.789 31.927C259.237 31.9791 258.737 31.8802 258.185 31.8281C257.935 31.8281 257.685 31.7812 257.435 31.677C257.284 31.6302 257.133 31.4791 256.982 31.3281C256.732 31.026 256.685 30.625 256.685 30.276C256.685 29.375 256.633 28.4687 256.581 27.5677C256.534 26.9687 256.581 26.3645 256.633 25.7656C256.633 25.1614 256.685 24.6093 256.831 24.0104C256.883 23.6093 256.982 23.2083 257.185 22.8541C257.435 22.4062 257.737 22.2552 258.237 22.3073C258.487 22.3541 258.691 22.4531 258.888 22.5052C259.092 22.6041 259.289 22.7083 259.493 22.6041C259.539 22.5573 259.638 22.5573 259.691 22.6041C259.743 22.6041 259.789 22.6562 259.743 22.6562C259.592 22.8541 259.789 22.8541 259.894 22.9062C260.894 23.3073 261.899 23.8073 262.847 24.4114L263.149 24.5625C263.352 24.6093 263.451 24.5625 263.503 24.3593C263.55 24.2083 263.602 24.0573 263.602 23.9583C263.602 23.3593 263.55 22.7552 263.602 22.2031C263.602 21.7552 263.55 21.302 263.602 20.8489C263.649 20.4479 263.649 20.0989 263.602 19.6979L263.451 18.5468C263.451 18.0937 263.55 17.6406 263.602 17.1927C263.649 16.7916 263.701 16.4375 263.55 16.0885C263.503 15.8385 263.352 15.7864 263.102 15.8906L262.701 16.0885L262.045 16.4895C261.045 17.0416 260.039 17.4427 258.987 17.7916C258.638 17.9427 258.289 18.0416 257.888 17.9948C257.633 17.9948 257.435 17.8958 257.284 17.6927C257.185 17.4948 257.086 17.3437 257.034 17.1406C256.831 16.2916 256.685 15.4375 256.685 14.5364C256.732 13.4323 256.685 12.3281 256.732 11.2291L256.831 9.92183C256.831 9.67183 256.831 9.42183 256.935 9.17183C257.034 8.71871 257.185 8.56767 257.633 8.56767C258.388 8.56767 259.092 8.52079 259.842 8.61975C260.144 8.61975 260.493 8.67183 260.795 8.67183C261.196 8.67183 261.597 8.61975 261.998 8.56767C262.3 8.56767 262.597 8.56767 262.847 8.61975C263.904 8.77079 264.805 9.11975 265.758 9.52079C266.258 9.77079 266.659 10.026 267.008 10.427C267.461 10.875 267.81 11.3281 268.263 11.7291C268.664 12.0312 268.967 12.3802 269.263 12.7812L269.566 13.1302C269.618 13.1823 269.664 13.2812 269.769 13.2343C269.868 13.2343 269.868 13.0833 269.868 13.0312C269.868 12.2812 269.868 11.5781 269.769 10.875L269.618 8.61975C269.618 8.06767 269.566 7.51558 269.414 6.9635C269.164 5.66142 268.414 5.01038 267.107 4.81246C266.607 4.76038 266.107 4.70829 265.607 4.60933C264.956 4.51038 264.352 4.45829 263.753 4.45829C263.248 4.45829 262.701 4.55725 262.196 4.45829C261.748 4.41142 261.243 4.41142 260.743 4.41142C260.039 4.35933 259.289 4.30725 258.539 4.30725H257.784C257.336 4.30725 256.883 4.30725 256.43 4.41142C255.883 4.51038 255.378 4.51038 254.826 4.45829C254.326 4.41142 253.826 4.35933 253.326 4.35933C252.925 4.35933 252.571 4.41142 252.17 4.41142C251.519 4.45829 250.868 4.30725 250.217 4.35933Z" fill="white"/>
<path d="M301.542 35.8906C302.297 35.8385 302.995 35.8906 303.75 35.7917C303.901 35.7917 304 35.7917 304.151 35.7396C304.401 35.6875 304.401 35.6406 304.25 35.4375L303.901 35.0365C303.396 34.4844 302.948 33.9323 302.547 33.3854C302.146 32.9323 301.844 32.3802 301.542 31.8802C301.141 31.1771 300.641 30.526 300.292 29.776L298.735 26.8177C298.688 26.6146 298.584 26.4635 298.485 26.3125C298.136 25.6615 297.985 24.9115 297.735 24.2083C297.683 24.0104 297.636 23.7604 297.636 23.5573C297.735 22.6042 298.037 21.8021 298.688 21.151C299.24 20.651 299.688 20.0469 299.99 19.3958L300.141 19.099C300.443 18.5469 300.792 18.0938 300.99 17.4948C301.391 16.5417 301.542 15.4896 301.646 14.4323C301.745 13.1823 301.646 11.9792 301.344 10.724C301.042 9.625 300.391 8.67188 299.641 7.81771C299.287 7.46875 298.886 7.11458 298.584 6.71354C298.136 6.11458 297.532 5.66146 296.834 5.3125C295.927 4.91146 294.974 4.55729 293.922 4.35937C293.224 4.20833 292.521 4.10938 291.818 4.15625C291.266 4.20833 290.667 4.26042 290.115 4.26042C289.464 4.20833 288.86 4.20833 288.261 4.20833C287.709 4.20833 287.209 4.20833 286.657 4.26042C286.157 4.26042 285.605 4.35937 285.099 4.35937C284.599 4.35937 284.151 4.26042 283.698 4.26042C282.646 4.20833 281.641 4.15625 280.589 4.15625H280.339C280.037 4.10938 279.688 4.10938 279.386 4.15625C278.787 4.20833 278.235 4.30729 277.631 4.30729C277.23 4.26042 276.829 4.26042 276.427 4.30729C275.776 4.45833 275.625 4.60937 275.829 5.21354C276.079 6.0625 276.282 6.86458 276.48 7.71875C276.73 8.71875 276.829 9.77083 276.829 10.8281C276.782 11.276 276.829 11.776 276.98 12.2292C277.032 12.4323 277.032 12.6302 277.032 12.8333V16.0365C277.032 16.4896 277.032 16.9896 276.933 17.3906C276.782 17.9948 276.782 18.5938 276.881 19.1979C276.98 19.75 276.98 20.3021 276.933 20.849C276.881 21.5052 276.829 22.1562 276.98 22.8073C277.032 23.2552 277.084 23.7083 277.032 24.1615C276.98 24.6094 276.98 25.0625 276.98 25.5104V27.4688C276.933 28.0208 276.829 28.5729 276.881 29.1719C276.881 29.724 276.933 30.3229 276.829 30.875C276.73 32.0313 276.48 33.1823 276.026 34.2865C275.881 34.6354 275.73 34.9896 275.625 35.3906C275.579 35.6875 275.677 35.8385 275.98 35.9375C276.177 35.9896 276.427 35.9896 276.683 35.9375C277.131 35.8906 277.631 35.8385 278.136 35.8906C278.433 35.8906 278.688 35.9375 278.985 35.9375C280.542 35.9375 282.042 35.8906 283.547 35.8385H283.797C284.297 35.7917 284.849 35.7917 285.355 35.8385C285.651 35.8906 285.954 35.8385 286.256 35.7917C286.605 35.6875 286.756 35.4896 286.657 35.1354C286.558 34.6354 286.355 34.2344 286.157 33.8333C285.855 33.2813 285.704 32.6823 285.605 32.0312C285.552 31.3281 285.454 30.625 285.355 29.875C285.302 29.3229 285.302 28.7708 285.355 28.1719C285.454 27.7708 285.454 27.3177 285.355 26.8646C285.204 26.2656 285.25 25.6615 285.302 25.0625C285.302 24.6615 285.355 24.2604 285.454 23.8594C285.5 23.6562 285.651 23.5104 285.901 23.4583C286.006 23.4062 286.105 23.4062 286.204 23.4062H287.657C288.11 23.4062 288.459 23.5573 288.709 23.9583C289.11 24.6094 289.563 25.3125 289.865 26.0625C290.266 27.1146 290.714 28.1719 291.219 29.224C291.516 29.776 291.818 30.3229 292.021 30.9271C292.37 32.0781 292.521 33.2344 292.62 34.3854C292.672 35.1875 292.87 35.4375 293.625 35.5885C293.672 35.6406 293.724 35.6406 293.771 35.6406C294.172 35.7396 294.573 35.7396 294.974 35.7917C295.427 35.8385 295.829 35.8385 296.23 35.7917C296.631 35.7396 297.084 35.7396 297.485 35.7917C298.084 35.8906 298.688 35.9375 299.339 35.9375C299.891 35.8906 300.443 35.8385 300.99 35.8906H301.542ZM285.25 14.8854C285.25 14.0833 285.302 13.3333 285.401 12.5312C285.5 11.9792 285.401 11.4271 285.355 10.8281C285.302 10.276 285.355 9.67188 285.605 9.11979C285.802 8.71875 286.105 8.52083 286.558 8.52083C287.209 8.52083 287.907 8.46875 288.563 8.52083C289.011 8.56771 289.412 8.56771 289.813 8.56771C290.417 8.56771 290.917 8.82292 291.266 9.27083C291.969 10.224 292.37 11.3281 292.469 12.4792C292.521 12.7812 292.422 13.1302 292.422 13.4844C292.37 13.6823 292.37 13.8333 292.37 14.0365C292.521 14.9375 292.422 15.7865 292.021 16.6406L291.469 17.8958C290.969 18.7969 290.266 19.2969 289.214 19.2448C288.412 19.2448 287.61 19.1979 286.808 19.1979C286.052 19.1979 285.651 18.8438 285.5 18.0938C285.401 17.6927 285.355 17.2396 285.302 16.8385C285.302 16.1875 285.25 15.5365 285.25 14.8854Z" fill="white"/>
<path d="M337.632 4.26038C337.179 4.35933 336.679 4.41142 336.226 4.45829H334.325C333.721 4.41142 333.122 4.35933 332.57 4.26038H332.064C331.965 4.35933 331.814 4.30725 331.663 4.30725C331.465 4.30725 331.262 4.30725 331.012 4.41142C330.611 4.51038 330.46 4.76038 330.512 5.2135L330.663 6.06246C330.814 6.81767 330.715 7.51558 330.611 8.21871C330.413 9.22392 330.111 10.1718 329.861 11.125C329.658 11.927 329.408 12.7291 329.111 13.4843C328.757 14.3333 328.507 15.1875 328.106 15.9895C328.007 16.2395 327.908 16.5416 327.856 16.7916C327.705 17.6927 327.403 18.5468 327.054 19.3489C326.856 19.7968 326.752 20.302 326.653 20.75C326.502 21.6041 326.101 22.4062 325.7 23.1562C325.653 23.1562 325.653 23.2083 325.653 23.2083C325.299 23.7083 324.997 23.6562 324.7 23.1562C324.049 22.2031 323.695 21.151 323.392 20.0989C323.096 19.0989 322.695 18.0937 322.293 17.0937C322.043 16.5416 321.892 15.9375 321.689 15.3385C321.387 14.3854 321.189 13.3802 320.887 12.4323C320.736 11.9791 320.538 11.526 320.335 11.125C320.038 10.3229 319.934 9.47392 319.783 8.61975C319.637 7.56767 319.684 6.51558 319.684 5.4635V5.16142C319.637 4.76038 319.486 4.55725 319.132 4.45829C318.731 4.30725 318.283 4.30725 317.882 4.35933C317.179 4.41142 316.476 4.41142 315.778 4.26038H312.314C312.215 4.35933 312.116 4.30725 311.965 4.30725C311.564 4.35933 311.163 4.30725 310.762 4.35933C310.46 4.41142 310.111 4.51038 309.809 4.45829C309.408 4.35934 309.007 4.41142 308.658 4.41142C308.507 4.41142 308.356 4.41142 308.205 4.45829C308.007 4.51038 307.955 4.66142 308.007 4.85933C308.007 4.95829 308.054 5.01038 308.106 5.10933C308.304 5.4635 308.559 5.81246 308.809 6.11454C309.908 7.31767 310.611 8.71871 311.163 10.2239C311.465 10.927 311.663 11.6302 311.965 12.3281C312.267 12.8333 312.418 13.4323 312.517 13.9843C312.57 14.3333 312.668 14.6875 312.82 15.0364C312.971 15.4375 313.267 15.7864 313.418 16.1875C313.721 17.0937 313.971 17.9948 314.221 18.8958C314.372 19.5989 314.523 20.25 314.872 20.901C315.075 21.2031 315.174 21.552 315.325 21.9062L315.726 23.0052C315.924 23.5104 316.075 24.0573 316.179 24.6093C316.325 25.2604 316.528 25.8645 316.877 26.4166C317.127 26.8645 317.33 27.3177 317.377 27.7708C317.481 28.3698 317.632 28.9218 317.83 29.4739L319.486 33.4323C319.736 33.9843 319.986 34.5885 320.387 35.0885C320.84 35.6406 321.34 35.9375 322.043 35.8906H323.997C324.7 35.9375 325.2 35.6406 325.601 35.0364L326.153 34.0833C326.455 33.5833 326.804 33.0833 327.002 32.5312L328.356 28.7187C328.658 27.9166 328.856 27.0156 329.257 26.2135C329.46 25.8645 329.611 25.4635 329.71 25.0625C329.861 24.3125 330.111 23.5104 330.361 22.7552C330.512 22.1562 330.663 21.552 330.965 21C331.215 20.651 331.366 20.1979 331.517 19.7968C331.767 19.0468 331.965 18.2968 332.267 17.5416C332.465 17.0937 332.721 16.5885 332.82 16.0885C333.017 15.2343 333.372 14.4843 333.57 13.6354C333.82 12.7291 334.273 11.927 334.575 11.026C334.872 10.2239 335.325 9.52079 335.575 8.71871C335.929 7.71871 336.429 6.81767 337.278 6.11454C337.632 5.76038 337.934 5.31246 338.184 4.81246C338.335 4.55725 338.335 4.51038 338.132 4.26038H337.632Z" fill="white"/>
<path d="M347.101 4.26038L346.148 4.41142C345.997 4.45829 345.799 4.51038 345.648 4.45829C345.247 4.41142 344.846 4.41142 344.445 4.30725C343.794 4.20829 343.544 4.51038 343.742 5.16142L344.393 7.06767C344.643 8.02079 344.794 8.96871 344.846 9.92183C344.846 10.3229 344.794 10.677 344.794 11.0781C344.747 11.677 344.846 12.2291 344.846 12.8333C344.846 13.2343 344.893 13.6354 344.945 14.0364C344.997 14.4843 345.044 14.8854 344.997 15.3385C344.945 15.7864 344.893 16.2395 344.893 16.7395V20.4479C344.893 20.7031 344.846 20.901 344.846 21.1041C344.846 21.5052 344.747 21.9531 344.794 22.3541C344.893 22.8073 344.893 23.2552 344.893 23.7604C344.893 24.6614 344.747 25.5625 344.846 26.4635C344.893 27.1145 344.846 27.8177 344.846 28.4687C344.846 29.5208 344.794 30.5781 344.695 31.6302C344.596 32.5312 344.393 33.3854 343.945 34.1875C343.742 34.4843 343.643 34.8385 343.591 35.2395C343.492 35.6875 343.643 35.9375 344.143 36.0416C344.893 36.1406 345.695 36.1406 346.549 36.0885C347.002 36.0416 347.45 35.9375 347.955 36.0416C348.554 36.1406 349.205 36.1875 349.809 36.0416C350.362 35.9375 350.862 35.9375 351.414 35.9375C352.216 35.9375 353.065 36.0416 353.867 35.9895C353.966 35.9895 354.117 35.9895 354.221 35.9375C354.57 35.8906 354.669 35.6875 354.622 35.3385L354.471 34.9375C354.169 34.0833 353.919 33.2343 353.669 32.3802C353.419 31.427 353.268 30.4739 353.367 29.4739C353.367 29.2239 353.367 28.9739 353.315 28.7187C353.315 28.3177 353.216 27.8698 353.216 27.4687V25.5625C353.216 25.2604 353.268 24.9114 353.315 24.6093C353.367 24.3593 353.419 24.1614 353.419 23.9114C353.466 22.5573 353.367 21.151 353.367 19.7968C353.367 19.75 353.315 19.6458 353.315 19.5989C353.268 18.8958 353.216 18.1927 353.315 17.4427C353.419 16.9895 353.466 16.4895 353.367 15.9895C353.315 15.6354 353.268 15.2343 353.315 14.8854V13.8854L353.419 11.526C353.419 10.625 353.419 9.77079 353.518 8.92183C353.617 7.91663 353.867 7.01558 354.32 6.16142C354.471 5.86454 354.57 5.56246 354.622 5.26038C354.721 4.81246 354.622 4.55725 354.117 4.45829C353.82 4.41142 353.518 4.41142 353.216 4.41142C352.815 4.41142 352.414 4.41142 352.013 4.35933C351.309 4.26038 350.559 4.26038 349.856 4.35933C349.158 4.51038 348.403 4.41142 347.7 4.26038H347.101Z" fill="white"/>
<path d="M360.53 21.802C360.582 22.1562 360.634 22.453 360.785 22.8072C360.983 23.2551 361.082 23.7603 361.134 24.2603C361.186 24.9114 361.332 25.5103 361.686 26.0624C361.936 26.4635 362.186 26.9687 362.238 27.4687C362.337 27.8176 362.436 28.1718 362.639 28.4687C363.238 29.4218 363.889 30.276 364.645 31.078C365.197 31.7291 365.848 32.2291 366.447 32.7812C366.947 33.2343 367.499 33.6353 368.004 34.0364C368.452 34.3853 369.004 34.6353 369.556 34.9374C370.806 35.5364 372.061 36.1874 373.165 37.0416C373.264 37.0937 373.415 37.1926 373.514 37.3437C373.717 37.5416 373.764 37.7447 373.566 38.0468C373.363 38.3437 373.212 38.6458 373.066 38.9947C372.915 39.2968 372.962 39.4999 373.316 39.651C373.514 39.7499 373.764 39.7499 374.014 39.8489C374.52 39.9478 375.02 40.0989 375.52 40.401C376.171 40.802 376.525 41.7551 376.374 42.4062C376.171 43.4062 375.119 44.2083 373.915 44.1093C373.415 44.0624 372.915 43.9114 372.462 43.7083L371.108 43.2083C370.91 43.1093 370.707 43.2083 370.556 43.3593C370.358 43.5103 370.207 43.7603 370.056 44.0103C369.806 44.4114 369.556 44.8124 369.405 45.2655C369.254 45.6145 369.353 45.9635 369.707 46.1666C370.358 46.6666 371.16 47.0155 372.009 47.1666C372.561 47.2655 373.113 47.3176 373.665 47.4687C374.369 47.6197 375.072 47.6197 375.77 47.4687C376.171 47.3697 376.624 47.2655 377.025 47.2187C377.775 47.1666 378.478 46.8697 379.082 46.4687L380.03 45.8645C380.983 45.2135 381.587 44.3593 381.837 43.2603C381.988 42.5572 382.035 41.802 381.884 41.052C381.785 40.3489 381.483 39.651 380.983 39.0989L380.28 38.3437C379.832 37.8437 379.28 37.4426 378.577 37.2916C378.426 37.2447 378.478 37.1926 378.53 37.0937C378.577 36.9426 378.728 36.8905 378.827 36.8437C379.332 36.6405 379.78 36.4895 380.28 36.3905C381.233 36.2395 382.087 35.9895 382.941 35.6405C383.191 35.5364 383.441 35.4374 383.639 35.2864L385.895 33.8853C386.801 33.2812 387.499 32.5312 388.004 31.6301C388.452 30.8749 388.452 30.177 387.754 29.5728L386.801 28.8697C386.348 28.5728 385.999 28.6197 385.546 28.8697C384.895 29.3749 384.244 29.8228 383.592 30.2239C382.79 30.7239 381.988 31.177 381.233 31.677C380.785 31.9791 380.28 32.1301 379.733 32.1301C378.629 32.1822 377.525 32.1301 376.421 31.828C375.572 31.6301 374.77 31.328 374.066 30.776L372.962 29.8228C372.41 29.3228 372.009 28.8228 371.759 28.1197C371.561 27.5676 371.259 27.0155 370.91 26.5155C370.608 26.0155 370.405 25.5103 370.405 24.9114C370.405 24.6614 370.358 24.4114 370.358 24.1614C370.155 23.2551 370.004 22.3541 369.905 21.453C369.806 20.8489 369.707 20.2499 369.806 19.6458C369.905 19.0468 369.957 18.4426 370.004 17.8958C370.004 17.6405 370.056 17.3437 370.056 17.0937C370.155 16.3905 370.405 15.7395 370.608 15.0364C370.957 13.8333 371.358 12.6301 372.061 11.578C372.764 10.3749 373.665 9.36971 374.869 8.67179C375.473 8.31763 376.072 8.11971 376.723 8.16659C377.025 8.16659 377.374 8.21867 377.676 8.21867H378.228C378.681 8.27075 379.129 8.42179 379.629 8.52075C380.181 8.56763 380.733 8.77075 381.233 9.07284C382.087 9.57284 382.941 10.1249 383.744 10.7239C384.546 11.276 385.244 11.8801 385.796 12.6301C386.046 12.9791 386.4 13.2812 386.749 13.4843C387.051 13.6822 387.249 13.5833 387.301 13.2343C387.301 13.0312 387.301 12.7812 387.249 12.578C387.202 11.9791 387.098 11.328 387.098 10.677C387.098 10.276 387.15 9.87492 387.15 9.47388L386.999 6.8645L386.9 4.91138C386.848 4.76034 386.9 4.55721 386.697 4.45825C386.551 4.35929 386.4 4.55721 386.296 4.66138C386.249 4.70825 386.249 4.70825 386.197 4.70825C385.848 5.06242 385.494 5.35929 385.046 5.41138C384.546 5.51034 384.092 5.51034 383.592 5.41138C382.941 5.26034 382.337 5.01034 381.686 4.76034C380.884 4.45825 380.03 4.05721 379.181 3.85929C378.426 3.70825 377.676 3.55721 376.926 3.50513C376.322 3.50513 375.671 3.50513 375.072 3.60929C374.619 3.70825 374.165 3.75513 373.717 3.80721C373.113 3.85929 372.514 3.95825 371.962 4.15617C370.259 4.76034 368.702 5.6145 367.301 6.71346L365.342 8.27075C364.994 8.46867 364.691 8.77075 364.54 9.17179C364.191 9.87492 363.691 10.4739 363.139 11.026C362.889 11.328 362.686 11.6301 362.587 11.9791L361.837 13.8333C361.535 14.4322 361.285 15.0885 361.186 15.7395C361.082 16.3905 360.931 16.9895 360.733 17.5937C360.53 18.2447 360.53 18.9478 360.582 19.5989C360.681 20.1978 360.582 20.802 360.53 21.3541V21.802Z" fill="white"/>
<path d="M407.599 3.60939C407.396 3.60939 407.146 3.65627 406.896 3.60939C406.193 3.60939 405.495 3.75523 404.792 3.75523C404.589 3.75523 404.391 3.80731 404.188 3.85939C402.635 4.10939 401.182 4.60939 399.776 5.35939C399.078 5.76043 398.375 6.16148 397.823 6.81773C397.521 7.16668 397.12 7.46877 396.719 7.76564C396.318 7.96877 396.021 8.21877 395.719 8.56773L394.818 9.62502C394.266 10.3229 393.76 11.0781 393.359 11.9271C393.109 12.4792 392.813 13.0313 392.557 13.6354C392.01 14.8854 391.458 16.1406 391.354 17.5417C391.307 18.3438 391.208 19.099 391.307 19.849C391.307 20.099 391.354 20.3021 391.307 20.5521C391.208 21.0521 391.307 21.6042 391.354 22.1042C391.505 23.2552 391.807 24.3594 392.208 25.4115C392.708 26.7136 393.214 28.0209 393.912 29.224C394.365 29.974 394.865 30.6771 395.568 31.2292C395.87 31.4792 396.167 31.7813 396.422 32.1302C396.672 32.4323 396.922 32.8334 397.271 33.0834C397.922 33.5313 398.625 33.9844 399.328 34.3854L401.031 35.2396C401.984 35.7917 402.984 36.0886 404.037 36.3386C404.943 36.5417 405.896 36.5886 406.797 36.6927C407.245 36.7396 407.698 36.7396 408.099 36.6406C408.552 36.5886 408.953 36.4427 409.354 36.3906C410.104 36.3386 410.854 36.2396 411.609 36.0417C412.76 35.6875 413.912 35.2396 415.016 34.7344C415.667 34.4375 416.318 34.1354 416.922 33.6354C417.172 33.4323 417.422 33.1823 417.724 32.9844C418.474 32.3802 419.229 31.7813 419.88 31.0781C420.281 30.5781 420.682 30.125 420.932 29.5209L421.083 29.0729C421.682 28.1719 422.037 27.1667 422.635 26.3125C422.885 25.9636 423.037 25.5625 423.135 25.1615C423.287 24.6094 423.438 24.0104 423.537 23.4063L423.787 21.7031C423.839 20.9011 423.99 20.1511 423.839 19.349C423.74 18.6459 423.688 17.9427 423.537 17.2917C423.24 16.1406 423.037 14.9844 422.635 13.8334C422.484 13.4323 422.385 12.9792 422.135 12.5781C421.432 11.3281 420.531 10.224 419.63 9.11981C419.38 8.71877 419.026 8.46877 418.724 8.11981C418.427 7.76564 418.073 7.46877 417.724 7.16668C417.073 6.6146 416.318 6.1146 415.568 5.6146C415.266 5.41148 414.969 5.21356 414.615 5.06252C413.714 4.70835 412.813 4.35939 411.807 4.20835L411.109 4.05731C409.953 3.70835 408.802 3.55731 407.599 3.60939ZM407.948 8.02085C409.203 7.96877 410.203 8.71877 411.109 9.72398C411.51 10.224 411.906 10.724 412.26 11.2761C412.964 12.2292 413.51 13.2813 413.813 14.4323C414.115 15.5365 414.313 16.7396 414.464 17.8959C414.516 18.3438 414.568 18.7969 414.516 19.2969C414.464 19.849 414.464 20.4479 414.516 21.0521C414.568 21.3021 414.568 21.5521 414.516 21.8021V22.2031C414.516 22.9063 414.417 23.5573 414.266 24.2084C414.016 24.9636 413.865 25.7136 413.615 26.4636C413.214 27.5156 412.708 28.5209 411.958 29.4219C411.406 30.0729 410.807 30.6771 410.104 31.1771C409.302 31.6771 408.5 31.9792 407.547 31.9792C407.297 31.9792 407.099 32.0313 406.844 32.0313C406.193 32.0313 405.641 31.8802 405.141 31.4271C404.74 31.0781 404.292 30.724 403.938 30.3229C403.287 29.625 402.688 28.8698 402.234 28.0209L401.63 26.8177C401.38 26.1667 401.229 25.4115 401.083 24.7136C400.979 23.8073 400.781 22.8542 400.63 21.9063L400.432 20.099C400.432 19.6459 400.578 19.2448 400.63 18.7969C400.729 17.7448 400.979 16.6927 400.979 15.6354C400.979 14.9844 401.229 14.4323 401.432 13.8334C401.583 13.3334 401.833 12.8802 402.182 12.4792C402.537 11.9792 402.734 11.375 403.089 10.875C403.589 10.1719 404.089 9.47397 404.792 9.02085C405.693 8.46877 406.646 7.96877 407.948 8.02085Z" fill="white"/>
<path d="M438.721 3.70825C438.221 3.75513 437.82 3.75513 437.419 3.75513C436.966 3.80721 436.565 3.90617 436.117 3.90617C435.617 3.90617 435.112 4.01034 434.612 4.20825C434.159 4.35929 433.711 4.60929 433.258 4.76034C432.508 5.10929 431.753 5.46346 431.102 6.01554C430.654 6.3645 430.201 6.71346 429.899 7.16659L428.945 8.31763C428.596 8.67179 428.294 9.07283 428.096 9.52075C427.846 10.026 427.695 10.526 427.445 10.9739C427.091 11.677 426.94 12.4322 426.94 13.2343C426.94 14.2343 426.94 15.2343 427.242 16.2395C427.596 17.4426 428.195 18.4426 429.149 19.2447C429.451 19.4478 429.701 19.6458 429.951 19.901C430.451 20.3489 430.951 20.802 431.503 21.1041C432.258 21.552 432.956 22.0051 433.711 22.4062C434.31 22.8072 434.961 23.0572 435.617 23.3593C436.518 23.8072 437.367 24.3593 438.373 24.7135C439.123 24.9635 439.774 25.3124 440.477 25.6614C440.779 25.8124 441.029 25.9635 441.279 26.2135L442.534 27.2655C442.784 27.4166 442.982 27.6197 443.185 27.8697C443.633 28.4218 444.034 28.9739 444.086 29.6718C444.185 30.2239 444.086 30.7239 443.685 31.1249C443.284 31.427 442.883 31.7291 442.43 31.927C441.529 32.328 440.628 32.2812 439.727 32.2812C439.373 32.2812 438.971 32.2291 438.623 32.1822C437.419 32.0312 436.268 31.7812 435.112 31.3801C434.664 31.2291 434.263 30.927 433.81 30.776C432.555 30.3749 431.503 29.6249 430.451 28.8697C429.748 28.3697 429.149 27.7708 428.498 27.2187C428.346 27.1145 428.195 26.9166 428.044 27.0155C427.794 27.1145 427.846 27.3176 427.846 27.5155C427.846 28.1718 427.945 28.8697 427.893 29.5728C427.893 29.8228 427.846 30.026 427.846 30.276C427.846 30.8749 427.945 31.427 427.945 32.0312L428.044 34.1353C428.044 34.4374 428.096 34.7864 428.096 35.0885C428.143 35.2864 428.143 35.4895 428.248 35.6874C428.346 35.8905 428.498 35.9374 428.695 35.8905L428.945 35.7916C429.248 35.6405 429.55 35.4374 429.852 35.2395C430.55 34.7864 431.253 34.6353 432.107 34.7864C432.857 34.9895 433.659 35.1874 434.414 35.3385C434.862 35.4374 435.315 35.5364 435.716 35.6874C436.164 35.8905 436.617 36.0885 437.117 36.1874C438.018 36.3905 438.925 36.6405 439.878 36.6405C440.529 36.6405 441.128 36.5885 441.732 36.6926C442.732 36.7916 443.633 36.5885 444.539 36.2395C445.539 35.8385 446.492 35.4374 447.445 34.9374C448.195 34.5364 448.951 34.0833 449.55 33.3853C450.102 32.7812 450.602 32.1301 451.055 31.3801C451.706 30.3749 452.159 29.2708 452.409 28.0676C452.508 27.4687 452.607 26.8645 452.56 26.2655C452.56 25.4114 452.305 24.5624 452.107 23.7603C451.706 22.453 450.852 21.401 449.951 20.401C449.451 19.8489 448.8 19.4478 448.248 18.9947C447.044 18.0937 445.742 17.2916 444.336 16.7395C443.987 16.5885 443.633 16.4374 443.284 16.2395C442.685 15.7864 441.982 15.4895 441.227 15.2864C440.727 15.1353 440.279 14.8853 439.878 14.6353C439.477 14.3333 439.076 14.1353 438.675 13.8853C437.873 13.5312 437.07 13.1301 436.367 12.578C435.716 12.0312 435.362 11.328 435.414 10.4739C435.466 9.62492 435.815 9.02075 436.518 8.67179C437.617 8.11971 438.721 7.96867 439.878 8.06763C441.029 8.21867 442.133 8.42179 443.232 8.71867C444.185 9.02075 445.138 9.32284 445.94 9.97388C446.341 10.276 446.742 10.526 447.143 10.776L448.044 11.328C448.695 11.828 449.201 12.3801 449.852 12.8801C450.05 13.0833 450.3 13.2812 450.555 13.3801C450.852 13.5312 451.003 13.4322 451.003 13.1301C451.055 13.0833 451.055 13.0312 451.003 12.9791C451.003 12.5312 451.003 12.1301 450.956 11.7291L450.852 10.927C450.805 10.427 450.654 9.92179 450.654 9.42179C450.701 8.61971 450.602 7.76554 450.602 6.96346V6.76554C450.555 6.3645 450.555 5.96346 450.602 5.56242C450.602 5.31242 450.654 5.06242 450.602 4.85929C450.555 4.51033 450.352 4.35929 450.003 4.55721L449.399 4.91138C449.096 5.10929 448.846 5.21346 448.498 5.31242C447.643 5.41138 446.841 5.35929 446.039 5.16138C444.69 4.81242 443.383 4.41138 442.029 4.15617C440.878 3.90617 439.774 3.70825 438.721 3.70825Z" fill="white"/>
</svg>
